<svg class="marks" width="1386" height="842" viewBox="0 0 1386 842" version="1.1" xmlns="http://www.w3.org/2000/svg" xmlns:xlink="http://www.w3.org/1999/xlink"><rect width="1386" height="842" style="fill: white;"></rect><g transform="translate(45,5)"><g class="mark-group role-frame root"><g transform="translate(0,0)"><path class="background" d="M0.5,0.5h1200v800h-1200Z" style="fill: none; stroke: #ddd;"></path><g><g class="mark-group role-axis"><g transform="translate(0.5,800.5)"><path class="background" d="M0,0h0v0h0Z" style="pointer-events: none; fill: none;"></path><g><g class="mark-rule role-axis-grid" style="pointer-events: none;"><line transform="translate(23,-800)" x2="0" y2="800" style="fill: none; stroke: #ddd; stroke-width: 1; opacity: 1;"></line><line transform="translate(69,-800)" x2="0" y2="800" style="fill: none; stroke: #ddd; stroke-width: 1; opacity: 1;"></line><line transform="translate(115,-800)" x2="0" y2="800" style="fill: none; stroke: #ddd; stroke-width: 1; opacity: 1;"></line><line transform="translate(162,-800)" x2="0" y2="800" style="fill: none; stroke: #ddd; stroke-width: 1; opacity: 1;"></line><line transform="translate(208,-800)" x2="0" y2="800" style="fill: none; stroke: #ddd; stroke-width: 1; opacity: 1;"></line><line transform="translate(254,-800)" x2="0" y2="800" style="fill: none; stroke: #ddd; stroke-width: 1; opacity: 1;"></line><line transform="translate(300,-800)" x2="0" y2="800" style="fill: none; stroke: #ddd; stroke-width: 1; opacity: 1;"></line><line transform="translate(346,-800)" x2="0" y2="800" style="fill: none; stroke: #ddd; stroke-width: 1; opacity: 1;"></line><line transform="translate(392,-800)" x2="0" y2="800" style="fill: none; stroke: #ddd; stroke-width: 1; opacity: 1;"></line><line transform="translate(438,-800)" x2="0" y2="800" style="fill: none; stroke: #ddd; stroke-width: 1; opacity: 1;"></line><line transform="translate(485,-800)" x2="0" y2="800" style="fill: none; stroke: #ddd; stroke-width: 1; opacity: 1;"></line><line transform="translate(531,-800)" x2="0" y2="800" style="fill: none; stroke: #ddd; stroke-width: 1; opacity: 1;"></line><line transform="translate(577,-800)" x2="0" y2="800" style="fill: none; stroke: #ddd; stroke-width: 1; opacity: 1;"></line><line transform="translate(623,-800)" x2="0" y2="800" style="fill: none; stroke: #ddd; stroke-width: 1; opacity: 1;"></line><line transform="translate(669,-800)" x2="0" y2="800" style="fill: none; stroke: #ddd; stroke-width: 1; opacity: 1;"></line><line transform="translate(715,-800)" x2="0" y2="800" style="fill: none; stroke: #ddd; stroke-width: 1; opacity: 1;"></line><line transform="translate(762,-800)" x2="0" y2="800" style="fill: none; stroke: #ddd; stroke-width: 1; opacity: 1;"></line><line transform="translate(808,-800)" x2="0" y2="800" style="fill: none; stroke: #ddd; stroke-width: 1; opacity: 1;"></line><line transform="translate(854,-800)" x2="0" y2="800" style="fill: none; stroke: #ddd; stroke-width: 1; opacity: 1;"></line><line transform="translate(900,-800)" x2="0" y2="800" style="fill: none; stroke: #ddd; stroke-width: 1; opacity: 1;"></line><line transform="translate(946,-800)" x2="0" y2="800" style="fill: none; stroke: #ddd; stroke-width: 1; opacity: 1;"></line><line transform="translate(992,-800)" x2="0" y2="800" style="fill: none; stroke: #ddd; stroke-width: 1; opacity: 1;"></line><line transform="translate(1038,-800)" x2="0" y2="800" style="fill: none; stroke: #ddd; stroke-width: 1; opacity: 1;"></line><line transform="translate(1085,-800)" x2="0" y2="800" style="fill: none; stroke: #ddd; stroke-width: 1; opacity: 1;"></line><line transform="translate(1131,-800)" x2="0" y2="800" style="fill: none; stroke: #ddd; stroke-width: 1; opacity: 1;"></line><line transform="translate(1177,-800)" x2="0" y2="800" style="fill: none; stroke: #ddd; stroke-width: 1; opacity: 1;"></line></g></g><path class="foreground" d="" style="pointer-events: none; display: none; fill: none;"></path></g></g><g class="mark-group role-axis"><g transform="translate(0.5,0.5)"><path class="background" d="M0,0h0v0h0Z" style="pointer-events: none; fill: none;"></path><g><g class="mark-rule role-axis-grid" style="pointer-events: none;"><line transform="translate(0,800)" x2="1200" y2="0" style="fill: none; stroke: #ddd; stroke-width: 1; opacity: 1;"></line><line transform="translate(0,764)" x2="1200" y2="0" style="fill: none; stroke: #ddd; stroke-width: 1; opacity: 1;"></line><line transform="translate(0,729)" x2="1200" y2="0" style="fill: none; stroke: #ddd; stroke-width: 1; opacity: 1;"></line><line transform="translate(0,693)" x2="1200" y2="0" style="fill: none; stroke: #ddd; stroke-width: 1; opacity: 1;"></line><line transform="translate(0,658)" x2="1200" y2="0" style="fill: none; stroke: #ddd; stroke-width: 1; opacity: 1;"></line><line transform="translate(0,622)" x2="1200" y2="0" style="fill: none; stroke: #ddd; stroke-width: 1; opacity: 1;"></line><line transform="translate(0,587)" x2="1200" y2="0" style="fill: none; stroke: #ddd; stroke-width: 1; opacity: 1;"></line><line transform="translate(0,551)" x2="1200" y2="0" style="fill: none; stroke: #ddd; stroke-width: 1; opacity: 1;"></line><line transform="translate(0,516)" x2="1200" y2="0" style="fill: none; stroke: #ddd; stroke-width: 1; opacity: 1;"></line><line transform="translate(0,480)" x2="1200" y2="0" style="fill: none; stroke: #ddd; stroke-width: 1; opacity: 1;"></line><line transform="translate(0,444)" x2="1200" y2="0" style="fill: none; stroke: #ddd; stroke-width: 1; opacity: 1;"></line><line transform="translate(0,409)" x2="1200" y2="0" style="fill: none; stroke: #ddd; stroke-width: 1; opacity: 1;"></line><line transform="translate(0,373)" x2="1200" y2="0" style="fill: none; stroke: #ddd; stroke-width: 1; opacity: 1;"></line><line transform="translate(0,338)" x2="1200" y2="0" style="fill: none; stroke: #ddd; stroke-width: 1; opacity: 1;"></line><line transform="translate(0,302)" x2="1200" y2="0" style="fill: none; stroke: #ddd; stroke-width: 1; opacity: 1;"></line><line transform="translate(0,267)" x2="1200" y2="0" style="fill: none; stroke: #ddd; stroke-width: 1; opacity: 1;"></line><line transform="translate(0,231)" x2="1200" y2="0" style="fill: none; stroke: #ddd; stroke-width: 1; opacity: 1;"></line><line transform="translate(0,196)" x2="1200" y2="0" style="fill: none; stroke: #ddd; stroke-width: 1; opacity: 1;"></line><line transform="translate(0,160)" x2="1200" y2="0" style="fill: none; stroke: #ddd; stroke-width: 1; opacity: 1;"></line><line transform="translate(0,124)" x2="1200" y2="0" style="fill: none; stroke: #ddd; stroke-width: 1; opacity: 1;"></line><line transform="translate(0,89)" x2="1200" y2="0" style="fill: none; stroke: #ddd; stroke-width: 1; opacity: 1;"></line><line transform="translate(0,53)" x2="1200" y2="0" style="fill: none; stroke: #ddd; stroke-width: 1; opacity: 1;"></line><line transform="translate(0,18)" x2="1200" y2="0" style="fill: none; stroke: #ddd; stroke-width: 1; opacity: 1;"></line></g></g><path class="foreground" d="" style="pointer-events: none; display: none; fill: none;"></path></g></g><g class="mark-group role-axis"><g transform="translate(0.5,800.5)"><path class="background" d="M0,0h0v0h0Z" style="pointer-events: none; fill: none;"></path><g><g class="mark-rule role-axis-tick" style="pointer-events: none;"><line transform="translate(23,0)" x2="0" y2="5" style="fill: none; stroke: #888; stroke-width: 1; opacity: 1;"></line><line transform="translate(69,0)" x2="0" y2="5" style="fill: none; stroke: #888; stroke-width: 1; opacity: 1;"></line><line transform="translate(115,0)" x2="0" y2="5" style="fill: none; stroke: #888; stroke-width: 1; opacity: 1;"></line><line transform="translate(162,0)" x2="0" y2="5" style="fill: none; stroke: #888; stroke-width: 1; opacity: 1;"></line><line transform="translate(208,0)" x2="0" y2="5" style="fill: none; stroke: #888; stroke-width: 1; opacity: 1;"></line><line transform="translate(254,0)" x2="0" y2="5" style="fill: none; stroke: #888; stroke-width: 1; opacity: 1;"></line><line transform="translate(300,0)" x2="0" y2="5" style="fill: none; stroke: #888; stroke-width: 1; opacity: 1;"></line><line transform="translate(346,0)" x2="0" y2="5" style="fill: none; stroke: #888; stroke-width: 1; opacity: 1;"></line><line transform="translate(392,0)" x2="0" y2="5" style="fill: none; stroke: #888; stroke-width: 1; opacity: 1;"></line><line transform="translate(438,0)" x2="0" y2="5" style="fill: none; stroke: #888; stroke-width: 1; opacity: 1;"></line><line transform="translate(485,0)" x2="0" y2="5" style="fill: none; stroke: #888; stroke-width: 1; opacity: 1;"></line><line transform="translate(531,0)" x2="0" y2="5" style="fill: none; stroke: #888; stroke-width: 1; opacity: 1;"></line><line transform="translate(577,0)" x2="0" y2="5" style="fill: none; stroke: #888; stroke-width: 1; opacity: 1;"></line><line transform="translate(623,0)" x2="0" y2="5" style="fill: none; stroke: #888; stroke-width: 1; opacity: 1;"></line><line transform="translate(669,0)" x2="0" y2="5" style="fill: none; stroke: #888; stroke-width: 1; opacity: 1;"></line><line transform="translate(715,0)" x2="0" y2="5" style="fill: none; stroke: #888; stroke-width: 1; opacity: 1;"></line><line transform="translate(762,0)" x2="0" y2="5" style="fill: none; stroke: #888; stroke-width: 1; opacity: 1;"></line><line transform="translate(808,0)" x2="0" y2="5" style="fill: none; stroke: #888; stroke-width: 1; opacity: 1;"></line><line transform="translate(854,0)" x2="0" y2="5" style="fill: none; stroke: #888; stroke-width: 1; opacity: 1;"></line><line transform="translate(900,0)" x2="0" y2="5" style="fill: none; stroke: #888; stroke-width: 1; opacity: 1;"></line><line transform="translate(946,0)" x2="0" y2="5" style="fill: none; stroke: #888; stroke-width: 1; opacity: 1;"></line><line transform="translate(992,0)" x2="0" y2="5" style="fill: none; stroke: #888; stroke-width: 1; opacity: 1;"></line><line transform="translate(1038,0)" x2="0" y2="5" style="fill: none; stroke: #888; stroke-width: 1; opacity: 1;"></line><line transform="translate(1085,0)" x2="0" y2="5" style="fill: none; stroke: #888; stroke-width: 1; opacity: 1;"></line><line transform="translate(1131,0)" x2="0" y2="5" style="fill: none; stroke: #888; stroke-width: 1; opacity: 1;"></line><line transform="translate(1177,0)" x2="0" y2="5" style="fill: none; stroke: #888; stroke-width: 1; opacity: 1;"></line></g><g class="mark-text role-axis-label" style="pointer-events: none;"><text text-anchor="middle" transform="translate(23.076923076923077,15)" style="font-family: sans-serif; font-size: 10px; fill: #000; opacity: 1;">Thu 27</text><text text-anchor="middle" transform="translate(69.23076923076924,15)" style="font-family: sans-serif; font-size: 10px; fill: #000; opacity: 1;">Fri 28</text><text text-anchor="middle" transform="translate(115.38461538461539,15)" style="font-family: sans-serif; font-size: 10px; fill: #000; opacity: 1;">Sat 29</text><text text-anchor="middle" transform="translate(161.53846153846152,15)" style="font-family: sans-serif; font-size: 10px; fill: #000; opacity: 1;">March</text><text text-anchor="middle" transform="translate(207.69230769230768,15)" style="font-family: sans-serif; font-size: 10px; fill: #000; opacity: 1;">Mon 02</text><text text-anchor="middle" transform="translate(253.84615384615384,15)" style="font-family: sans-serif; font-size: 10px; fill: #000; opacity: 1;">Tue 03</text><text text-anchor="middle" transform="translate(300,15)" style="font-family: sans-serif; font-size: 10px; fill: #000; opacity: 1;">Wed 04</text><text text-anchor="middle" transform="translate(346.15384615384613,15)" style="font-family: sans-serif; font-size: 10px; fill: #000; opacity: 1;">Thu 05</text><text text-anchor="middle" transform="translate(392.3076923076923,15)" style="font-family: sans-serif; font-size: 10px; fill: #000; opacity: 1;">Fri 06</text><text text-anchor="middle" transform="translate(438.46153846153845,15)" style="font-family: sans-serif; font-size: 10px; fill: #000; opacity: 1;">Sat 07</text><text text-anchor="middle" transform="translate(484.61538461538464,15)" style="font-family: sans-serif; font-size: 10px; fill: #000; opacity: 1;">Mar 08</text><text text-anchor="middle" transform="translate(530.7692307692307,15)" style="font-family: sans-serif; font-size: 10px; fill: #000; opacity: 1;">Mon 09</text><text text-anchor="middle" transform="translate(576.9230769230769,15)" style="font-family: sans-serif; font-size: 10px; fill: #000; opacity: 1;">Tue 10</text><text text-anchor="middle" transform="translate(623.0769230769231,15)" style="font-family: sans-serif; font-size: 10px; fill: #000; opacity: 1;">Wed 11</text><text text-anchor="middle" transform="translate(669.2307692307693,15)" style="font-family: sans-serif; font-size: 10px; fill: #000; opacity: 1;">Thu 12</text><text text-anchor="middle" transform="translate(715.3846153846154,15)" style="font-family: sans-serif; font-size: 10px; fill: #000; opacity: 1;">Fri 13</text><text text-anchor="middle" transform="translate(761.5384615384615,15)" style="font-family: sans-serif; font-size: 10px; fill: #000; opacity: 1;">Sat 14</text><text text-anchor="middle" transform="translate(807.6923076923077,15)" style="font-family: sans-serif; font-size: 10px; fill: #000; opacity: 1;">Mar 15</text><text text-anchor="middle" transform="translate(853.8461538461539,15)" style="font-family: sans-serif; font-size: 10px; fill: #000; opacity: 1;">Mon 16</text><text text-anchor="middle" transform="translate(900,15)" style="font-family: sans-serif; font-size: 10px; fill: #000; opacity: 1;">Tue 17</text><text text-anchor="middle" transform="translate(946.1538461538461,15)" style="font-family: sans-serif; font-size: 10px; fill: #000; opacity: 1;">Wed 18</text><text text-anchor="middle" transform="translate(992.3076923076923,15)" style="font-family: sans-serif; font-size: 10px; fill: #000; opacity: 1;">Thu 19</text><text text-anchor="middle" transform="translate(1038.4615384615386,15)" style="font-family: sans-serif; font-size: 10px; fill: #000; opacity: 1;">Fri 20</text><text text-anchor="middle" transform="translate(1084.6153846153845,15)" style="font-family: sans-serif; font-size: 10px; fill: #000; opacity: 1;">Sat 21</text><text text-anchor="middle" transform="translate(1130.7692307692307,15)" style="font-family: sans-serif; font-size: 10px; fill: #000; opacity: 1;">Mar 22</text><text text-anchor="middle" transform="translate(1176.923076923077,15)" style="font-family: sans-serif; font-size: 10px; fill: #000; opacity: 1;">Mon 23</text></g><g class="mark-rule role-axis-domain" style="pointer-events: none;"><line transform="translate(0,0)" x2="1200" y2="0" style="fill: none; stroke: #888; stroke-width: 1; opacity: 1;"></line></g><g class="mark-text role-axis-title" style="pointer-events: none;"><text text-anchor="middle" transform="translate(600,30)" style="font-family: sans-serif; font-size: 11px; font-weight: bold; fill: #000; opacity: 1;">x</text></g></g><path class="foreground" d="" style="pointer-events: none; display: none; fill: none;"></path></g></g><g class="mark-group role-axis"><g transform="translate(0.5,0.5)"><path class="background" d="M0,0h0v0h0Z" style="pointer-events: none; fill: none;"></path><g><g class="mark-rule role-axis-tick" style="pointer-events: none;"><line transform="translate(0,800)" x2="-5" y2="0" style="fill: none; stroke: #888; stroke-width: 1; opacity: 1;"></line><line transform="translate(0,764)" x2="-5" y2="0" style="fill: none; stroke: #888; stroke-width: 1; opacity: 1;"></line><line transform="translate(0,729)" x2="-5" y2="0" style="fill: none; stroke: #888; stroke-width: 1; opacity: 1;"></line><line transform="translate(0,693)" x2="-5" y2="0" style="fill: none; stroke: #888; stroke-width: 1; opacity: 1;"></line><line transform="translate(0,658)" x2="-5" y2="0" style="fill: none; stroke: #888; stroke-width: 1; opacity: 1;"></line><line transform="translate(0,622)" x2="-5" y2="0" style="fill: none; stroke: #888; stroke-width: 1; opacity: 1;"></line><line transform="translate(0,587)" x2="-5" y2="0" style="fill: none; stroke: #888; stroke-width: 1; opacity: 1;"></line><line transform="translate(0,551)" x2="-5" y2="0" style="fill: none; stroke: #888; stroke-width: 1; opacity: 1;"></line><line transform="translate(0,516)" x2="-5" y2="0" style="fill: none; stroke: #888; stroke-width: 1; opacity: 1;"></line><line transform="translate(0,480)" x2="-5" y2="0" style="fill: none; stroke: #888; stroke-width: 1; opacity: 1;"></line><line transform="translate(0,444)" x2="-5" y2="0" style="fill: none; stroke: #888; stroke-width: 1; opacity: 1;"></line><line transform="translate(0,409)" x2="-5" y2="0" style="fill: none; stroke: #888; stroke-width: 1; opacity: 1;"></line><line transform="translate(0,373)" x2="-5" y2="0" style="fill: none; stroke: #888; stroke-width: 1; opacity: 1;"></line><line transform="translate(0,338)" x2="-5" y2="0" style="fill: none; stroke: #888; stroke-width: 1; opacity: 1;"></line><line transform="translate(0,302)" x2="-5" y2="0" style="fill: none; stroke: #888; stroke-width: 1; opacity: 1;"></line><line transform="translate(0,267)" x2="-5" y2="0" style="fill: none; stroke: #888; stroke-width: 1; opacity: 1;"></line><line transform="translate(0,231)" x2="-5" y2="0" style="fill: none; stroke: #888; stroke-width: 1; opacity: 1;"></line><line transform="translate(0,196)" x2="-5" y2="0" style="fill: none; stroke: #888; stroke-width: 1; opacity: 1;"></line><line transform="translate(0,160)" x2="-5" y2="0" style="fill: none; stroke: #888; stroke-width: 1; opacity: 1;"></line><line transform="translate(0,124)" x2="-5" y2="0" style="fill: none; stroke: #888; stroke-width: 1; opacity: 1;"></line><line transform="translate(0,89)" x2="-5" y2="0" style="fill: none; stroke: #888; stroke-width: 1; opacity: 1;"></line><line transform="translate(0,53)" x2="-5" y2="0" style="fill: none; stroke: #888; stroke-width: 1; opacity: 1;"></line><line transform="translate(0,18)" x2="-5" y2="0" style="fill: none; stroke: #888; stroke-width: 1; opacity: 1;"></line></g><g class="mark-text role-axis-label" style="pointer-events: none;"><text text-anchor="end" transform="translate(-7,803)" style="font-family: sans-serif; font-size: 10px; fill: #000; opacity: 1;">0</text><text text-anchor="end" transform="translate(-7,767.4444444444445)" style="font-family: sans-serif; font-size: 10px; fill: #000; opacity: 1;">20</text><text text-anchor="end" transform="translate(-7,731.8888888888889)" style="font-family: sans-serif; font-size: 10px; fill: #000; opacity: 1;">40</text><text text-anchor="end" transform="translate(-7,696.3333333333334)" style="font-family: sans-serif; font-size: 10px; fill: #000; opacity: 1;">60</text><text text-anchor="end" transform="translate(-7,660.7777777777777)" style="font-family: sans-serif; font-size: 10px; fill: #000; opacity: 1;">80</text><text text-anchor="end" transform="translate(-7,625.2222222222223)" style="font-family: sans-serif; font-size: 10px; fill: #000; opacity: 1;">100</text><text text-anchor="end" transform="translate(-7,589.6666666666667)" style="font-family: sans-serif; font-size: 10px; fill: #000; opacity: 1;">120</text><text text-anchor="end" transform="translate(-7,554.1111111111111)" style="font-family: sans-serif; font-size: 10px; fill: #000; opacity: 1;">140</text><text text-anchor="end" transform="translate(-7,518.5555555555555)" style="font-family: sans-serif; font-size: 10px; fill: #000; opacity: 1;">160</text><text text-anchor="end" transform="translate(-7,483)" style="font-family: sans-serif; font-size: 10px; fill: #000; opacity: 1;">180</text><text text-anchor="end" transform="translate(-7,447.44444444444446)" style="font-family: sans-serif; font-size: 10px; fill: #000; opacity: 1;">200</text><text text-anchor="end" transform="translate(-7,411.88888888888886)" style="font-family: sans-serif; font-size: 10px; fill: #000; opacity: 1;">220</text><text text-anchor="end" transform="translate(-7,376.3333333333333)" style="font-family: sans-serif; font-size: 10px; fill: #000; opacity: 1;">240</text><text text-anchor="end" transform="translate(-7,340.7777777777778)" style="font-family: sans-serif; font-size: 10px; fill: #000; opacity: 1;">260</text><text text-anchor="end" transform="translate(-7,305.22222222222223)" style="font-family: sans-serif; font-size: 10px; fill: #000; opacity: 1;">280</text><text text-anchor="end" transform="translate(-7,269.6666666666667)" style="font-family: sans-serif; font-size: 10px; fill: #000; opacity: 1;">300</text><text text-anchor="end" transform="translate(-7,234.1111111111111)" style="font-family: sans-serif; font-size: 10px; fill: #000; opacity: 1;">320</text><text text-anchor="end" transform="translate(-7,198.55555555555557)" style="font-family: sans-serif; font-size: 10px; fill: #000; opacity: 1;">340</text><text text-anchor="end" transform="translate(-7,162.99999999999997)" style="font-family: sans-serif; font-size: 10px; fill: #000; opacity: 1;">360</text><text text-anchor="end" transform="translate(-7,127.44444444444444)" style="font-family: sans-serif; font-size: 10px; fill: #000; opacity: 1;">380</text><text text-anchor="end" transform="translate(-7,91.88888888888893)" style="font-family: sans-serif; font-size: 10px; fill: #000; opacity: 1;">400</text><text text-anchor="end" transform="translate(-7,56.33333333333332)" style="font-family: sans-serif; font-size: 10px; fill: #000; opacity: 1;">420</text><text text-anchor="end" transform="translate(-7,20.777777777777803)" style="font-family: sans-serif; font-size: 10px; fill: #000; opacity: 1;">440</text></g><g class="mark-rule role-axis-domain" style="pointer-events: none;"><line transform="translate(0,800)" x2="0" y2="-800" style="fill: none; stroke: #888; stroke-width: 1; opacity: 1;"></line></g><g class="mark-text role-axis-title" style="pointer-events: none;"><text text-anchor="middle" transform="translate(-29,400) rotate(-90) translate(0,-2)" style="font-family: sans-serif; font-size: 11px; font-weight: bold; fill: #000; opacity: 1;">y</text></g></g><path class="foreground" d="" style="pointer-events: none; display: none; fill: none;"></path></g></g><g class="mark-group role-scope layer_0_pathgroup"><g transform="translate(0,0)"><path class="background" d="M0,0h1200v800h-1200Z" style="fill: none;"></path><g><g class="mark-line role-mark layer_0_marks"><path d="M0,800L46.15384615384615,798.2222222222222L92.3076923076923,798.2222222222222L138.46153846153848,798.2222222222222L184.6153846153846,785.7777777777778L230.76923076923077,784L276.92307692307696,780.4444444444445L323.07692307692304,771.5555555555555L369.2307692307692,760.8888888888889L415.38461538461536,757.3333333333334L461.53846153846155,752L507.6923076923077,734.2222222222223L553.8461538461539,709.3333333333334L600,689.7777777777778L646.1538461538461,677.3333333333334L692.3076923076923,672L738.4615384615385,657.7777777777777L784.6153846153846,620.4444444444445L830.7692307692307,606.2222222222222L876.9230769230769,595.5555555555555L923.0769230769231,588.4444444444445L969.2307692307693,574.2222222222223L1015.3846153846154,544L1061.5384615384614,531.5555555555555L1107.6923076923078,515.5555555555555L1153.8461538461538,488.8888888888889L1200,467.55555555555554" style="fill: none; stroke: #1f77b4; stroke-width: 2;"></path></g></g><path class="foreground" d="" style="display: none; fill: none;"></path></g><g transform="translate(0,0)"><path class="background" d="M0,0h1200v800h-1200Z" style="fill: none;"></path><g><g class="mark-line role-mark layer_0_marks"><path d="M0,800L46.15384615384615,798.2222222222222L92.3076923076923,800L138.46153846153848,800L184.6153846153846,787.5555555555555L230.76923076923077,798.2222222222222L276.92307692307696,796.4444444444445L323.07692307692304,791.1111111111111L369.2307692307692,789.3333333333334L415.38461538461536,796.4444444444445L461.53846153846155,794.6666666666666L507.6923076923077,782.2222222222222L553.8461538461539,775.1111111111111L600,780.4444444444445L646.1538461538461,787.5555555555555L692.3076923076923,794.6666666666666L738.4615384615385,785.7777777777778L784.6153846153846,762.6666666666667L830.7692307692307,785.7777777777778L876.9230769230769,789.3333333333334L923.0769230769231,792.8888888888889L969.2307692307693,785.7777777777778L1015.3846153846154,769.7777777777777L1061.5384615384614,787.5555555555555L1107.6923076923078,784L1153.8461538461538,773.3333333333334L1200,778.6666666666667" style="fill: none; stroke: #ffbb78; stroke-width: 2;"></path></g></g><path class="foreground" d="" style="display: none; fill: none;"></path></g><g transform="translate(0,0)"><path class="background" d="M0,0h1200v800h-1200Z" style="fill: none;"></path><g><g class="mark-line role-mark layer_0_marks"><path d="M0,796.4444444444445L46.15384615384615,798.2222222222222L92.3076923076923,762.6666666666667L138.46153846153848,748.4444444444445L184.6153846153846,664.8888888888889L230.76923076923077,657.7777777777777L276.92307692307696,625.7777777777778L323.07692307692304,627.5555555555557L369.2307692307692,593.7777777777778L415.38461538461536,568.8888888888889L461.53846153846155,556.4444444444443L507.6923076923077,584.8888888888888L553.8461538461539,508.44444444444446L600,487.11111111111103L646.1538461538461,453.3333333333333L692.3076923076923,419.5555555555556L738.4615384615385,380.4444444444444L784.6153846153846,407.11111111111114L830.7692307692307,375.11111111111114L876.9230769230769,366.2222222222222L923.0769230769231,455.1111111111111L969.2307692307693,384L1015.3846153846154,366.2222222222222L1061.5384615384614,177.77777777777777L1107.6923076923078,106.66666666666664L1153.8461538461538,33.777777777777814L1200,44.444444444444464" style="fill: none; stroke: #98df8a; stroke-width: 2;"></path></g></g><path class="foreground" d="" style="display: none; fill: none;"></path></g><g transform="translate(0,0)"><path class="background" d="M0,0h1200v800h-1200Z" style="fill: none;"></path><g><g class="mark-line role-mark layer_0_marks"><path d="M0,800L46.15384615384615,798.2222222222222L92.3076923076923,798.2222222222222L138.46153846153848,798.2222222222222L184.6153846153846,785.7777777777778L230.76923076923077,785.7777777777778L276.92307692307696,782.2222222222222L323.07692307692304,773.3333333333334L369.2307692307692,762.6666666666667L415.38461538461536,759.1111111111111L461.53846153846155,753.7777777777777L507.6923076923077,736L553.8461538461539,712.8888888888889L600,693.3333333333334L646.1538461538461,682.6666666666666L692.3076923076923,680.8888888888889L738.4615384615385,670.2222222222222L784.6153846153846,636.4444444444445L830.7692307692307,625.7777777777778L876.9230769230769,618.6666666666666L923.0769230769231,615.1111111111112L969.2307692307693,606.2222222222222L1015.3846153846154,576L1061.5384615384614,563.5555555555555L1107.6923076923078,558.2222222222223L1153.8461538461538,531.5555555555555L1200,510.22222222222223" style="fill: none; stroke: #2ca02c; stroke-width: 2;"></path></g></g><path class="foreground" d="" style="display: none; fill: none;"></path></g><g transform="translate(0,0)"><path class="background" d="M0,0h1200v800h-1200Z" style="fill: none;"></path><g><g class="mark-line role-mark layer_0_marks"><path d="M0,800L46.15384615384615,800L92.3076923076923,800L138.46153846153848,800L184.6153846153846,800L230.76923076923077,798.2222222222222L276.92307692307696,798.2222222222222L323.07692307692304,798.2222222222222L369.2307692307692,798.2222222222222L415.38461538461536,798.2222222222222L461.53846153846155,798.2222222222222L507.6923076923077,798.2222222222222L553.8461538461539,796.4444444444445L600,796.4444444444445L646.1538461538461,794.6666666666666L692.3076923076923,791.1111111111111L738.4615384615385,791.1111111111111L784.6153846153846,791.1111111111111L830.7692307692307,787.5555555555555L876.9230769230769,784L923.0769230769231,780.4444444444445L969.2307692307693,775.1111111111111L1015.3846153846154,775.1111111111111L1061.5384615384614,775.1111111111111L1107.6923076923078,764.4444444444445L1153.8461538461538,764.4444444444445L1200,764.4444444444445" style="fill: none; stroke: #aec7e8; stroke-width: 2;"></path></g></g><path class="foreground" d="" style="display: none; fill: none;"></path></g><g transform="translate(0,0)"><path class="background" d="M0,0h1200v800h-1200Z" style="fill: none;"></path><g><g class="mark-line role-mark layer_0_marks"><path d="M0,800L46.15384615384615,800L92.3076923076923,800L138.46153846153848,800L184.6153846153846,800L230.76923076923077,800L276.92307692307696,784L323.07692307692304,782.2222222222222L369.2307692307692,773.3333333333334L415.38461538461536,720L461.53846153846155,682.6666666666666L507.6923076923077,618.6666666666666L553.8461538461539,618.6666666666666L600,588.4444444444445L646.1538461538461,547.5555555555555L692.3076923076923,520.8888888888889L738.4615384615385,453.3333333333333L784.6153846153846,392.8888888888889L830.7692307692307,391.11111111111114L876.9230769230769,366.2222222222222L923.0769230769231,227.5555555555556L969.2307692307693,195.55555555555557L1015.3846153846154,184.8888888888889L1061.5384615384614,163.55555555555554L1107.6923076923078,159.99999999999997L1153.8461538461538,142.22222222222226L1200,46.22222222222226" style="fill: none; stroke: #d62728; stroke-width: 2;"></path></g></g><path class="foreground" d="" style="display: none; fill: none;"></path></g><g transform="translate(0,0)"><path class="background" d="M0,0h1200v800h-1200Z" style="fill: none;"></path><g><g class="mark-line role-mark layer_0_marks"><path d="M0,800L46.15384615384615,800L92.3076923076923,800L138.46153846153848,800L184.6153846153846,800L230.76923076923077,800L276.92307692307696,800L323.07692307692304,800L369.2307692307692,800L415.38461538461536,800L461.53846153846155,800L507.6923076923077,800L553.8461538461539,800L600,800L646.1538461538461,800L692.3076923076923,800L738.4615384615385,796.4444444444445L784.6153846153846,792.8888888888889L830.7692307692307,792.8888888888889L876.9230769230769,792.8888888888889L923.0769230769231,792.8888888888889L969.2307692307693,792.8888888888889L1015.3846153846154,792.8888888888889L1061.5384615384614,792.8888888888889L1107.6923076923078,792.8888888888889L1153.8461538461538,792.8888888888889L1200,792.8888888888889" style="fill: none; stroke: #ff7f0e; stroke-width: 2;"></path></g></g><path class="foreground" d="" style="display: none; fill: none;"></path></g><g transform="translate(0,0)"><path class="background" d="M0,0h1200v800h-1200Z" style="fill: none;"></path><g><g class="mark-line role-mark layer_0_marks"><path d="M138.46153846153848,766.2222222222222L184.6153846153846,755.5555555555555L230.76923076923077,748.4444444444445L276.92307692307696,734.2222222222223L323.07692307692304,723.5555555555555L369.2307692307692,718.2222222222222L415.38461538461536,711.1111111111111L461.53846153846155,698.6666666666666L507.6923076923077,663.1111111111111L553.8461538461539,636.4444444444445L600,602.6666666666666L646.1538461538461,574.2222222222223L692.3076923076923,552.8888888888889L784.6153846153846,448.00000000000006L1061.5384615384614,234.66666666666666L1107.6923076923078,204.44444444444443L1153.8461538461538,170.66666666666669L1200,124.44444444444444" style="fill: none; stroke: #ff9896; stroke-width: 2;"></path></g></g><path class="foreground" d="" style="display: none; fill: none;"></path></g></g><g class="mark-symbol role-mark layer_1_marks"><path transform="translate(0,800)" d="M2.7386127875258306,0A2.7386127875258306,2.7386127875258306,0,1,1,-2.7386127875258306,0A2.7386127875258306,2.7386127875258306,0,1,1,2.7386127875258306,0" style="fill: white; stroke: #1f77b4; stroke-width: 2; opacity: 1;"></path><path transform="translate(0,800)" d="M2.7386127875258306,0A2.7386127875258306,2.7386127875258306,0,1,1,-2.7386127875258306,0A2.7386127875258306,2.7386127875258306,0,1,1,2.7386127875258306,0" style="fill: white; stroke: #ffbb78; stroke-width: 2; opacity: 1;"></path><path transform="translate(0,796.4444444444445)" d="M2.7386127875258306,0A2.7386127875258306,2.7386127875258306,0,1,1,-2.7386127875258306,0A2.7386127875258306,2.7386127875258306,0,1,1,2.7386127875258306,0" style="fill: white; stroke: #98df8a; stroke-width: 2; opacity: 1;"></path><path transform="translate(0,800)" d="M2.7386127875258306,0A2.7386127875258306,2.7386127875258306,0,1,1,-2.7386127875258306,0A2.7386127875258306,2.7386127875258306,0,1,1,2.7386127875258306,0" style="fill: white; stroke: #2ca02c; stroke-width: 2; opacity: 1;"></path><path transform="translate(0,800)" d="M2.7386127875258306,0A2.7386127875258306,2.7386127875258306,0,1,1,-2.7386127875258306,0A2.7386127875258306,2.7386127875258306,0,1,1,2.7386127875258306,0" style="fill: white; stroke: #aec7e8; stroke-width: 2; opacity: 1;"></path><path transform="translate(0,800)" d="M2.7386127875258306,0A2.7386127875258306,2.7386127875258306,0,1,1,-2.7386127875258306,0A2.7386127875258306,2.7386127875258306,0,1,1,2.7386127875258306,0" style="fill: white; stroke: #d62728; stroke-width: 2; opacity: 1;"></path><path transform="translate(0,800)" d="M2.7386127875258306,0A2.7386127875258306,2.7386127875258306,0,1,1,-2.7386127875258306,0A2.7386127875258306,2.7386127875258306,0,1,1,2.7386127875258306,0" style="fill: white; stroke: #ff7f0e; stroke-width: 2; opacity: 1;"></path><path transform="translate(46.15384615384615,798.2222222222222)" d="M2.7386127875258306,0A2.7386127875258306,2.7386127875258306,0,1,1,-2.7386127875258306,0A2.7386127875258306,2.7386127875258306,0,1,1,2.7386127875258306,0" style="fill: white; stroke: #1f77b4; stroke-width: 2; opacity: 1;"></path><path transform="translate(46.15384615384615,798.2222222222222)" d="M2.7386127875258306,0A2.7386127875258306,2.7386127875258306,0,1,1,-2.7386127875258306,0A2.7386127875258306,2.7386127875258306,0,1,1,2.7386127875258306,0" style="fill: white; stroke: #ffbb78; stroke-width: 2; opacity: 1;"></path><path transform="translate(46.15384615384615,798.2222222222222)" d="M2.7386127875258306,0A2.7386127875258306,2.7386127875258306,0,1,1,-2.7386127875258306,0A2.7386127875258306,2.7386127875258306,0,1,1,2.7386127875258306,0" style="fill: white; stroke: #98df8a; stroke-width: 2; opacity: 1;"></path><path transform="translate(46.15384615384615,798.2222222222222)" d="M2.7386127875258306,0A2.7386127875258306,2.7386127875258306,0,1,1,-2.7386127875258306,0A2.7386127875258306,2.7386127875258306,0,1,1,2.7386127875258306,0" style="fill: white; stroke: #2ca02c; stroke-width: 2; opacity: 1;"></path><path transform="translate(46.15384615384615,800)" d="M2.7386127875258306,0A2.7386127875258306,2.7386127875258306,0,1,1,-2.7386127875258306,0A2.7386127875258306,2.7386127875258306,0,1,1,2.7386127875258306,0" style="fill: white; stroke: #aec7e8; stroke-width: 2; opacity: 1;"></path><path transform="translate(46.15384615384615,800)" d="M2.7386127875258306,0A2.7386127875258306,2.7386127875258306,0,1,1,-2.7386127875258306,0A2.7386127875258306,2.7386127875258306,0,1,1,2.7386127875258306,0" style="fill: white; stroke: #d62728; stroke-width: 2; opacity: 1;"></path><path transform="translate(46.15384615384615,800)" d="M2.7386127875258306,0A2.7386127875258306,2.7386127875258306,0,1,1,-2.7386127875258306,0A2.7386127875258306,2.7386127875258306,0,1,1,2.7386127875258306,0" style="fill: white; stroke: #ff7f0e; stroke-width: 2; opacity: 1;"></path><path transform="translate(92.3076923076923,798.2222222222222)" d="M2.7386127875258306,0A2.7386127875258306,2.7386127875258306,0,1,1,-2.7386127875258306,0A2.7386127875258306,2.7386127875258306,0,1,1,2.7386127875258306,0" style="fill: white; stroke: #1f77b4; stroke-width: 2; opacity: 1;"></path><path transform="translate(92.3076923076923,800)" d="M2.7386127875258306,0A2.7386127875258306,2.7386127875258306,0,1,1,-2.7386127875258306,0A2.7386127875258306,2.7386127875258306,0,1,1,2.7386127875258306,0" style="fill: white; stroke: #ffbb78; stroke-width: 2; opacity: 1;"></path><path transform="translate(92.3076923076923,762.6666666666667)" d="M2.7386127875258306,0A2.7386127875258306,2.7386127875258306,0,1,1,-2.7386127875258306,0A2.7386127875258306,2.7386127875258306,0,1,1,2.7386127875258306,0" style="fill: white; stroke: #98df8a; stroke-width: 2; opacity: 1;"></path><path transform="translate(92.3076923076923,798.2222222222222)" d="M2.7386127875258306,0A2.7386127875258306,2.7386127875258306,0,1,1,-2.7386127875258306,0A2.7386127875258306,2.7386127875258306,0,1,1,2.7386127875258306,0" style="fill: white; stroke: #2ca02c; stroke-width: 2; opacity: 1;"></path><path transform="translate(92.3076923076923,800)" d="M2.7386127875258306,0A2.7386127875258306,2.7386127875258306,0,1,1,-2.7386127875258306,0A2.7386127875258306,2.7386127875258306,0,1,1,2.7386127875258306,0" style="fill: white; stroke: #aec7e8; stroke-width: 2; opacity: 1;"></path><path transform="translate(92.3076923076923,800)" d="M2.7386127875258306,0A2.7386127875258306,2.7386127875258306,0,1,1,-2.7386127875258306,0A2.7386127875258306,2.7386127875258306,0,1,1,2.7386127875258306,0" style="fill: white; stroke: #d62728; stroke-width: 2; opacity: 1;"></path><path transform="translate(92.3076923076923,800)" d="M2.7386127875258306,0A2.7386127875258306,2.7386127875258306,0,1,1,-2.7386127875258306,0A2.7386127875258306,2.7386127875258306,0,1,1,2.7386127875258306,0" style="fill: white; stroke: #ff7f0e; stroke-width: 2; opacity: 1;"></path><path transform="translate(138.46153846153848,798.2222222222222)" d="M2.7386127875258306,0A2.7386127875258306,2.7386127875258306,0,1,1,-2.7386127875258306,0A2.7386127875258306,2.7386127875258306,0,1,1,2.7386127875258306,0" style="fill: white; stroke: #1f77b4; stroke-width: 2; opacity: 1;"></path><path transform="translate(138.46153846153848,800)" d="M2.7386127875258306,0A2.7386127875258306,2.7386127875258306,0,1,1,-2.7386127875258306,0A2.7386127875258306,2.7386127875258306,0,1,1,2.7386127875258306,0" style="fill: white; stroke: #ffbb78; stroke-width: 2; opacity: 1;"></path><path transform="translate(138.46153846153848,748.4444444444445)" d="M2.7386127875258306,0A2.7386127875258306,2.7386127875258306,0,1,1,-2.7386127875258306,0A2.7386127875258306,2.7386127875258306,0,1,1,2.7386127875258306,0" style="fill: white; stroke: #98df8a; stroke-width: 2; opacity: 1;"></path><path transform="translate(138.46153846153848,766.2222222222222)" d="M2.7386127875258306,0A2.7386127875258306,2.7386127875258306,0,1,1,-2.7386127875258306,0A2.7386127875258306,2.7386127875258306,0,1,1,2.7386127875258306,0" style="fill: white; stroke: #ff9896; stroke-width: 2; opacity: 1;"></path><path transform="translate(138.46153846153848,798.2222222222222)" d="M2.7386127875258306,0A2.7386127875258306,2.7386127875258306,0,1,1,-2.7386127875258306,0A2.7386127875258306,2.7386127875258306,0,1,1,2.7386127875258306,0" style="fill: white; stroke: #2ca02c; stroke-width: 2; opacity: 1;"></path><path transform="translate(138.46153846153848,800)" d="M2.7386127875258306,0A2.7386127875258306,2.7386127875258306,0,1,1,-2.7386127875258306,0A2.7386127875258306,2.7386127875258306,0,1,1,2.7386127875258306,0" style="fill: white; stroke: #aec7e8; stroke-width: 2; opacity: 1;"></path><path transform="translate(138.46153846153848,800)" d="M2.7386127875258306,0A2.7386127875258306,2.7386127875258306,0,1,1,-2.7386127875258306,0A2.7386127875258306,2.7386127875258306,0,1,1,2.7386127875258306,0" style="fill: white; stroke: #d62728; stroke-width: 2; opacity: 1;"></path><path transform="translate(138.46153846153848,800)" d="M2.7386127875258306,0A2.7386127875258306,2.7386127875258306,0,1,1,-2.7386127875258306,0A2.7386127875258306,2.7386127875258306,0,1,1,2.7386127875258306,0" style="fill: white; stroke: #ff7f0e; stroke-width: 2; opacity: 1;"></path><path transform="translate(184.6153846153846,785.7777777777778)" d="M2.7386127875258306,0A2.7386127875258306,2.7386127875258306,0,1,1,-2.7386127875258306,0A2.7386127875258306,2.7386127875258306,0,1,1,2.7386127875258306,0" style="fill: white; stroke: #1f77b4; stroke-width: 2; opacity: 1;"></path><path transform="translate(184.6153846153846,787.5555555555555)" d="M2.7386127875258306,0A2.7386127875258306,2.7386127875258306,0,1,1,-2.7386127875258306,0A2.7386127875258306,2.7386127875258306,0,1,1,2.7386127875258306,0" style="fill: white; stroke: #ffbb78; stroke-width: 2; opacity: 1;"></path><path transform="translate(184.6153846153846,664.8888888888889)" d="M2.7386127875258306,0A2.7386127875258306,2.7386127875258306,0,1,1,-2.7386127875258306,0A2.7386127875258306,2.7386127875258306,0,1,1,2.7386127875258306,0" style="fill: white; stroke: #98df8a; stroke-width: 2; opacity: 1;"></path><path transform="translate(184.6153846153846,755.5555555555555)" d="M2.7386127875258306,0A2.7386127875258306,2.7386127875258306,0,1,1,-2.7386127875258306,0A2.7386127875258306,2.7386127875258306,0,1,1,2.7386127875258306,0" style="fill: white; stroke: #ff9896; stroke-width: 2; opacity: 1;"></path><path transform="translate(184.6153846153846,785.7777777777778)" d="M2.7386127875258306,0A2.7386127875258306,2.7386127875258306,0,1,1,-2.7386127875258306,0A2.7386127875258306,2.7386127875258306,0,1,1,2.7386127875258306,0" style="fill: white; stroke: #2ca02c; stroke-width: 2; opacity: 1;"></path><path transform="translate(184.6153846153846,800)" d="M2.7386127875258306,0A2.7386127875258306,2.7386127875258306,0,1,1,-2.7386127875258306,0A2.7386127875258306,2.7386127875258306,0,1,1,2.7386127875258306,0" style="fill: white; stroke: #aec7e8; stroke-width: 2; opacity: 1;"></path><path transform="translate(184.6153846153846,800)" d="M2.7386127875258306,0A2.7386127875258306,2.7386127875258306,0,1,1,-2.7386127875258306,0A2.7386127875258306,2.7386127875258306,0,1,1,2.7386127875258306,0" style="fill: white; stroke: #d62728; stroke-width: 2; opacity: 1;"></path><path transform="translate(184.6153846153846,800)" d="M2.7386127875258306,0A2.7386127875258306,2.7386127875258306,0,1,1,-2.7386127875258306,0A2.7386127875258306,2.7386127875258306,0,1,1,2.7386127875258306,0" style="fill: white; stroke: #ff7f0e; stroke-width: 2; opacity: 1;"></path><path transform="translate(230.76923076923077,784)" d="M2.7386127875258306,0A2.7386127875258306,2.7386127875258306,0,1,1,-2.7386127875258306,0A2.7386127875258306,2.7386127875258306,0,1,1,2.7386127875258306,0" style="fill: white; stroke: #1f77b4; stroke-width: 2; opacity: 1;"></path><path transform="translate(230.76923076923077,798.2222222222222)" d="M2.7386127875258306,0A2.7386127875258306,2.7386127875258306,0,1,1,-2.7386127875258306,0A2.7386127875258306,2.7386127875258306,0,1,1,2.7386127875258306,0" style="fill: white; stroke: #ffbb78; stroke-width: 2; opacity: 1;"></path><path transform="translate(230.76923076923077,657.7777777777777)" d="M2.7386127875258306,0A2.7386127875258306,2.7386127875258306,0,1,1,-2.7386127875258306,0A2.7386127875258306,2.7386127875258306,0,1,1,2.7386127875258306,0" style="fill: white; stroke: #98df8a; stroke-width: 2; opacity: 1;"></path><path transform="translate(230.76923076923077,748.4444444444445)" d="M2.7386127875258306,0A2.7386127875258306,2.7386127875258306,0,1,1,-2.7386127875258306,0A2.7386127875258306,2.7386127875258306,0,1,1,2.7386127875258306,0" style="fill: white; stroke: #ff9896; stroke-width: 2; opacity: 1;"></path><path transform="translate(230.76923076923077,785.7777777777778)" d="M2.7386127875258306,0A2.7386127875258306,2.7386127875258306,0,1,1,-2.7386127875258306,0A2.7386127875258306,2.7386127875258306,0,1,1,2.7386127875258306,0" style="fill: white; stroke: #2ca02c; stroke-width: 2; opacity: 1;"></path><path transform="translate(230.76923076923077,798.2222222222222)" d="M2.7386127875258306,0A2.7386127875258306,2.7386127875258306,0,1,1,-2.7386127875258306,0A2.7386127875258306,2.7386127875258306,0,1,1,2.7386127875258306,0" style="fill: white; stroke: #aec7e8; stroke-width: 2; opacity: 1;"></path><path transform="translate(230.76923076923077,800)" d="M2.7386127875258306,0A2.7386127875258306,2.7386127875258306,0,1,1,-2.7386127875258306,0A2.7386127875258306,2.7386127875258306,0,1,1,2.7386127875258306,0" style="fill: white; stroke: #d62728; stroke-width: 2; opacity: 1;"></path><path transform="translate(230.76923076923077,800)" d="M2.7386127875258306,0A2.7386127875258306,2.7386127875258306,0,1,1,-2.7386127875258306,0A2.7386127875258306,2.7386127875258306,0,1,1,2.7386127875258306,0" style="fill: white; stroke: #ff7f0e; stroke-width: 2; opacity: 1;"></path><path transform="translate(276.92307692307696,780.4444444444445)" d="M2.7386127875258306,0A2.7386127875258306,2.7386127875258306,0,1,1,-2.7386127875258306,0A2.7386127875258306,2.7386127875258306,0,1,1,2.7386127875258306,0" style="fill: white; stroke: #1f77b4; stroke-width: 2; opacity: 1;"></path><path transform="translate(276.92307692307696,796.4444444444445)" d="M2.7386127875258306,0A2.7386127875258306,2.7386127875258306,0,1,1,-2.7386127875258306,0A2.7386127875258306,2.7386127875258306,0,1,1,2.7386127875258306,0" style="fill: white; stroke: #ffbb78; stroke-width: 2; opacity: 1;"></path><path transform="translate(276.92307692307696,625.7777777777778)" d="M2.7386127875258306,0A2.7386127875258306,2.7386127875258306,0,1,1,-2.7386127875258306,0A2.7386127875258306,2.7386127875258306,0,1,1,2.7386127875258306,0" style="fill: white; stroke: #98df8a; stroke-width: 2; opacity: 1;"></path><path transform="translate(276.92307692307696,734.2222222222223)" d="M2.7386127875258306,0A2.7386127875258306,2.7386127875258306,0,1,1,-2.7386127875258306,0A2.7386127875258306,2.7386127875258306,0,1,1,2.7386127875258306,0" style="fill: white; stroke: #ff9896; stroke-width: 2; opacity: 1;"></path><path transform="translate(276.92307692307696,782.2222222222222)" d="M2.7386127875258306,0A2.7386127875258306,2.7386127875258306,0,1,1,-2.7386127875258306,0A2.7386127875258306,2.7386127875258306,0,1,1,2.7386127875258306,0" style="fill: white; stroke: #2ca02c; stroke-width: 2; opacity: 1;"></path><path transform="translate(276.92307692307696,798.2222222222222)" d="M2.7386127875258306,0A2.7386127875258306,2.7386127875258306,0,1,1,-2.7386127875258306,0A2.7386127875258306,2.7386127875258306,0,1,1,2.7386127875258306,0" style="fill: white; stroke: #aec7e8; stroke-width: 2; opacity: 1;"></path><path transform="translate(276.92307692307696,784)" d="M2.7386127875258306,0A2.7386127875258306,2.7386127875258306,0,1,1,-2.7386127875258306,0A2.7386127875258306,2.7386127875258306,0,1,1,2.7386127875258306,0" style="fill: white; stroke: #d62728; stroke-width: 2; opacity: 1;"></path><path transform="translate(276.92307692307696,800)" d="M2.7386127875258306,0A2.7386127875258306,2.7386127875258306,0,1,1,-2.7386127875258306,0A2.7386127875258306,2.7386127875258306,0,1,1,2.7386127875258306,0" style="fill: white; stroke: #ff7f0e; stroke-width: 2; opacity: 1;"></path><path transform="translate(323.07692307692304,771.5555555555555)" d="M2.7386127875258306,0A2.7386127875258306,2.7386127875258306,0,1,1,-2.7386127875258306,0A2.7386127875258306,2.7386127875258306,0,1,1,2.7386127875258306,0" style="fill: white; stroke: #1f77b4; stroke-width: 2; opacity: 1;"></path><path transform="translate(323.07692307692304,791.1111111111111)" d="M2.7386127875258306,0A2.7386127875258306,2.7386127875258306,0,1,1,-2.7386127875258306,0A2.7386127875258306,2.7386127875258306,0,1,1,2.7386127875258306,0" style="fill: white; stroke: #ffbb78; stroke-width: 2; opacity: 1;"></path><path transform="translate(323.07692307692304,627.5555555555557)" d="M2.7386127875258306,0A2.7386127875258306,2.7386127875258306,0,1,1,-2.7386127875258306,0A2.7386127875258306,2.7386127875258306,0,1,1,2.7386127875258306,0" style="fill: white; stroke: #98df8a; stroke-width: 2; opacity: 1;"></path><path transform="translate(323.07692307692304,723.5555555555555)" d="M2.7386127875258306,0A2.7386127875258306,2.7386127875258306,0,1,1,-2.7386127875258306,0A2.7386127875258306,2.7386127875258306,0,1,1,2.7386127875258306,0" style="fill: white; stroke: #ff9896; stroke-width: 2; opacity: 1;"></path><path transform="translate(323.07692307692304,773.3333333333334)" d="M2.7386127875258306,0A2.7386127875258306,2.7386127875258306,0,1,1,-2.7386127875258306,0A2.7386127875258306,2.7386127875258306,0,1,1,2.7386127875258306,0" style="fill: white; stroke: #2ca02c; stroke-width: 2; opacity: 1;"></path><path transform="translate(323.07692307692304,798.2222222222222)" d="M2.7386127875258306,0A2.7386127875258306,2.7386127875258306,0,1,1,-2.7386127875258306,0A2.7386127875258306,2.7386127875258306,0,1,1,2.7386127875258306,0" style="fill: white; stroke: #aec7e8; stroke-width: 2; opacity: 1;"></path><path transform="translate(323.07692307692304,782.2222222222222)" d="M2.7386127875258306,0A2.7386127875258306,2.7386127875258306,0,1,1,-2.7386127875258306,0A2.7386127875258306,2.7386127875258306,0,1,1,2.7386127875258306,0" style="fill: white; stroke: #d62728; stroke-width: 2; opacity: 1;"></path><path transform="translate(323.07692307692304,800)" d="M2.7386127875258306,0A2.7386127875258306,2.7386127875258306,0,1,1,-2.7386127875258306,0A2.7386127875258306,2.7386127875258306,0,1,1,2.7386127875258306,0" style="fill: white; stroke: #ff7f0e; stroke-width: 2; opacity: 1;"></path><path transform="translate(369.2307692307692,760.8888888888889)" d="M2.7386127875258306,0A2.7386127875258306,2.7386127875258306,0,1,1,-2.7386127875258306,0A2.7386127875258306,2.7386127875258306,0,1,1,2.7386127875258306,0" style="fill: white; stroke: #1f77b4; stroke-width: 2; opacity: 1;"></path><path transform="translate(369.2307692307692,789.3333333333334)" d="M2.7386127875258306,0A2.7386127875258306,2.7386127875258306,0,1,1,-2.7386127875258306,0A2.7386127875258306,2.7386127875258306,0,1,1,2.7386127875258306,0" style="fill: white; stroke: #ffbb78; stroke-width: 2; opacity: 1;"></path><path transform="translate(369.2307692307692,593.7777777777778)" d="M2.7386127875258306,0A2.7386127875258306,2.7386127875258306,0,1,1,-2.7386127875258306,0A2.7386127875258306,2.7386127875258306,0,1,1,2.7386127875258306,0" style="fill: white; stroke: #98df8a; stroke-width: 2; opacity: 1;"></path><path transform="translate(369.2307692307692,718.2222222222222)" d="M2.7386127875258306,0A2.7386127875258306,2.7386127875258306,0,1,1,-2.7386127875258306,0A2.7386127875258306,2.7386127875258306,0,1,1,2.7386127875258306,0" style="fill: white; stroke: #ff9896; stroke-width: 2; opacity: 1;"></path><path transform="translate(369.2307692307692,762.6666666666667)" d="M2.7386127875258306,0A2.7386127875258306,2.7386127875258306,0,1,1,-2.7386127875258306,0A2.7386127875258306,2.7386127875258306,0,1,1,2.7386127875258306,0" style="fill: white; stroke: #2ca02c; stroke-width: 2; opacity: 1;"></path><path transform="translate(369.2307692307692,798.2222222222222)" d="M2.7386127875258306,0A2.7386127875258306,2.7386127875258306,0,1,1,-2.7386127875258306,0A2.7386127875258306,2.7386127875258306,0,1,1,2.7386127875258306,0" style="fill: white; stroke: #aec7e8; stroke-width: 2; opacity: 1;"></path><path transform="translate(369.2307692307692,773.3333333333334)" d="M2.7386127875258306,0A2.7386127875258306,2.7386127875258306,0,1,1,-2.7386127875258306,0A2.7386127875258306,2.7386127875258306,0,1,1,2.7386127875258306,0" style="fill: white; stroke: #d62728; stroke-width: 2; opacity: 1;"></path><path transform="translate(369.2307692307692,800)" d="M2.7386127875258306,0A2.7386127875258306,2.7386127875258306,0,1,1,-2.7386127875258306,0A2.7386127875258306,2.7386127875258306,0,1,1,2.7386127875258306,0" style="fill: white; stroke: #ff7f0e; stroke-width: 2; opacity: 1;"></path><path transform="translate(415.38461538461536,757.3333333333334)" d="M2.7386127875258306,0A2.7386127875258306,2.7386127875258306,0,1,1,-2.7386127875258306,0A2.7386127875258306,2.7386127875258306,0,1,1,2.7386127875258306,0" style="fill: white; stroke: #1f77b4; stroke-width: 2; opacity: 1;"></path><path transform="translate(415.38461538461536,796.4444444444445)" d="M2.7386127875258306,0A2.7386127875258306,2.7386127875258306,0,1,1,-2.7386127875258306,0A2.7386127875258306,2.7386127875258306,0,1,1,2.7386127875258306,0" style="fill: white; stroke: #ffbb78; stroke-width: 2; opacity: 1;"></path><path transform="translate(415.38461538461536,568.8888888888889)" d="M2.7386127875258306,0A2.7386127875258306,2.7386127875258306,0,1,1,-2.7386127875258306,0A2.7386127875258306,2.7386127875258306,0,1,1,2.7386127875258306,0" style="fill: white; stroke: #98df8a; stroke-width: 2; opacity: 1;"></path><path transform="translate(415.38461538461536,711.1111111111111)" d="M2.7386127875258306,0A2.7386127875258306,2.7386127875258306,0,1,1,-2.7386127875258306,0A2.7386127875258306,2.7386127875258306,0,1,1,2.7386127875258306,0" style="fill: white; stroke: #ff9896; stroke-width: 2; opacity: 1;"></path><path transform="translate(415.38461538461536,759.1111111111111)" d="M2.7386127875258306,0A2.7386127875258306,2.7386127875258306,0,1,1,-2.7386127875258306,0A2.7386127875258306,2.7386127875258306,0,1,1,2.7386127875258306,0" style="fill: white; stroke: #2ca02c; stroke-width: 2; opacity: 1;"></path><path transform="translate(415.38461538461536,798.2222222222222)" d="M2.7386127875258306,0A2.7386127875258306,2.7386127875258306,0,1,1,-2.7386127875258306,0A2.7386127875258306,2.7386127875258306,0,1,1,2.7386127875258306,0" style="fill: white; stroke: #aec7e8; stroke-width: 2; opacity: 1;"></path><path transform="translate(415.38461538461536,720)" d="M2.7386127875258306,0A2.7386127875258306,2.7386127875258306,0,1,1,-2.7386127875258306,0A2.7386127875258306,2.7386127875258306,0,1,1,2.7386127875258306,0" style="fill: white; stroke: #d62728; stroke-width: 2; opacity: 1;"></path><path transform="translate(415.38461538461536,800)" d="M2.7386127875258306,0A2.7386127875258306,2.7386127875258306,0,1,1,-2.7386127875258306,0A2.7386127875258306,2.7386127875258306,0,1,1,2.7386127875258306,0" style="fill: white; stroke: #ff7f0e; stroke-width: 2; opacity: 1;"></path><path transform="translate(461.53846153846155,752)" d="M2.7386127875258306,0A2.7386127875258306,2.7386127875258306,0,1,1,-2.7386127875258306,0A2.7386127875258306,2.7386127875258306,0,1,1,2.7386127875258306,0" style="fill: white; stroke: #1f77b4; stroke-width: 2; opacity: 1;"></path><path transform="translate(461.53846153846155,794.6666666666666)" d="M2.7386127875258306,0A2.7386127875258306,2.7386127875258306,0,1,1,-2.7386127875258306,0A2.7386127875258306,2.7386127875258306,0,1,1,2.7386127875258306,0" style="fill: white; stroke: #ffbb78; stroke-width: 2; opacity: 1;"></path><path transform="translate(461.53846153846155,556.4444444444443)" d="M2.7386127875258306,0A2.7386127875258306,2.7386127875258306,0,1,1,-2.7386127875258306,0A2.7386127875258306,2.7386127875258306,0,1,1,2.7386127875258306,0" style="fill: white; stroke: #98df8a; stroke-width: 2; opacity: 1;"></path><path transform="translate(461.53846153846155,698.6666666666666)" d="M2.7386127875258306,0A2.7386127875258306,2.7386127875258306,0,1,1,-2.7386127875258306,0A2.7386127875258306,2.7386127875258306,0,1,1,2.7386127875258306,0" style="fill: white; stroke: #ff9896; stroke-width: 2; opacity: 1;"></path><path transform="translate(461.53846153846155,753.7777777777777)" d="M2.7386127875258306,0A2.7386127875258306,2.7386127875258306,0,1,1,-2.7386127875258306,0A2.7386127875258306,2.7386127875258306,0,1,1,2.7386127875258306,0" style="fill: white; stroke: #2ca02c; stroke-width: 2; opacity: 1;"></path><path transform="translate(461.53846153846155,798.2222222222222)" d="M2.7386127875258306,0A2.7386127875258306,2.7386127875258306,0,1,1,-2.7386127875258306,0A2.7386127875258306,2.7386127875258306,0,1,1,2.7386127875258306,0" style="fill: white; stroke: #aec7e8; stroke-width: 2; opacity: 1;"></path><path transform="translate(461.53846153846155,682.6666666666666)" d="M2.7386127875258306,0A2.7386127875258306,2.7386127875258306,0,1,1,-2.7386127875258306,0A2.7386127875258306,2.7386127875258306,0,1,1,2.7386127875258306,0" style="fill: white; stroke: #d62728; stroke-width: 2; opacity: 1;"></path><path transform="translate(461.53846153846155,800)" d="M2.7386127875258306,0A2.7386127875258306,2.7386127875258306,0,1,1,-2.7386127875258306,0A2.7386127875258306,2.7386127875258306,0,1,1,2.7386127875258306,0" style="fill: white; stroke: #ff7f0e; stroke-width: 2; opacity: 1;"></path><path transform="translate(507.6923076923077,734.2222222222223)" d="M2.7386127875258306,0A2.7386127875258306,2.7386127875258306,0,1,1,-2.7386127875258306,0A2.7386127875258306,2.7386127875258306,0,1,1,2.7386127875258306,0" style="fill: white; stroke: #1f77b4; stroke-width: 2; opacity: 1;"></path><path transform="translate(507.6923076923077,782.2222222222222)" d="M2.7386127875258306,0A2.7386127875258306,2.7386127875258306,0,1,1,-2.7386127875258306,0A2.7386127875258306,2.7386127875258306,0,1,1,2.7386127875258306,0" style="fill: white; stroke: #ffbb78; stroke-width: 2; opacity: 1;"></path><path transform="translate(507.6923076923077,584.8888888888888)" d="M2.7386127875258306,0A2.7386127875258306,2.7386127875258306,0,1,1,-2.7386127875258306,0A2.7386127875258306,2.7386127875258306,0,1,1,2.7386127875258306,0" style="fill: white; stroke: #98df8a; stroke-width: 2; opacity: 1;"></path><path transform="translate(507.6923076923077,663.1111111111111)" d="M2.7386127875258306,0A2.7386127875258306,2.7386127875258306,0,1,1,-2.7386127875258306,0A2.7386127875258306,2.7386127875258306,0,1,1,2.7386127875258306,0" style="fill: white; stroke: #ff9896; stroke-width: 2; opacity: 1;"></path><path transform="translate(507.6923076923077,736)" d="M2.7386127875258306,0A2.7386127875258306,2.7386127875258306,0,1,1,-2.7386127875258306,0A2.7386127875258306,2.7386127875258306,0,1,1,2.7386127875258306,0" style="fill: white; stroke: #2ca02c; stroke-width: 2; opacity: 1;"></path><path transform="translate(507.6923076923077,798.2222222222222)" d="M2.7386127875258306,0A2.7386127875258306,2.7386127875258306,0,1,1,-2.7386127875258306,0A2.7386127875258306,2.7386127875258306,0,1,1,2.7386127875258306,0" style="fill: white; stroke: #aec7e8; stroke-width: 2; opacity: 1;"></path><path transform="translate(507.6923076923077,618.6666666666666)" d="M2.7386127875258306,0A2.7386127875258306,2.7386127875258306,0,1,1,-2.7386127875258306,0A2.7386127875258306,2.7386127875258306,0,1,1,2.7386127875258306,0" style="fill: white; stroke: #d62728; stroke-width: 2; opacity: 1;"></path><path transform="translate(507.6923076923077,800)" d="M2.7386127875258306,0A2.7386127875258306,2.7386127875258306,0,1,1,-2.7386127875258306,0A2.7386127875258306,2.7386127875258306,0,1,1,2.7386127875258306,0" style="fill: white; stroke: #ff7f0e; stroke-width: 2; opacity: 1;"></path><path transform="translate(553.8461538461539,709.3333333333334)" d="M2.7386127875258306,0A2.7386127875258306,2.7386127875258306,0,1,1,-2.7386127875258306,0A2.7386127875258306,2.7386127875258306,0,1,1,2.7386127875258306,0" style="fill: white; stroke: #1f77b4; stroke-width: 2; opacity: 1;"></path><path transform="translate(553.8461538461539,775.1111111111111)" d="M2.7386127875258306,0A2.7386127875258306,2.7386127875258306,0,1,1,-2.7386127875258306,0A2.7386127875258306,2.7386127875258306,0,1,1,2.7386127875258306,0" style="fill: white; stroke: #ffbb78; stroke-width: 2; opacity: 1;"></path><path transform="translate(553.8461538461539,508.44444444444446)" d="M2.7386127875258306,0A2.7386127875258306,2.7386127875258306,0,1,1,-2.7386127875258306,0A2.7386127875258306,2.7386127875258306,0,1,1,2.7386127875258306,0" style="fill: white; stroke: #98df8a; stroke-width: 2; opacity: 1;"></path><path transform="translate(553.8461538461539,636.4444444444445)" d="M2.7386127875258306,0A2.7386127875258306,2.7386127875258306,0,1,1,-2.7386127875258306,0A2.7386127875258306,2.7386127875258306,0,1,1,2.7386127875258306,0" style="fill: white; stroke: #ff9896; stroke-width: 2; opacity: 1;"></path><path transform="translate(553.8461538461539,712.8888888888889)" d="M2.7386127875258306,0A2.7386127875258306,2.7386127875258306,0,1,1,-2.7386127875258306,0A2.7386127875258306,2.7386127875258306,0,1,1,2.7386127875258306,0" style="fill: white; stroke: #2ca02c; stroke-width: 2; opacity: 1;"></path><path transform="translate(553.8461538461539,796.4444444444445)" d="M2.7386127875258306,0A2.7386127875258306,2.7386127875258306,0,1,1,-2.7386127875258306,0A2.7386127875258306,2.7386127875258306,0,1,1,2.7386127875258306,0" style="fill: white; stroke: #aec7e8; stroke-width: 2; opacity: 1;"></path><path transform="translate(553.8461538461539,618.6666666666666)" d="M2.7386127875258306,0A2.7386127875258306,2.7386127875258306,0,1,1,-2.7386127875258306,0A2.7386127875258306,2.7386127875258306,0,1,1,2.7386127875258306,0" style="fill: white; stroke: #d62728; stroke-width: 2; opacity: 1;"></path><path transform="translate(553.8461538461539,800)" d="M2.7386127875258306,0A2.7386127875258306,2.7386127875258306,0,1,1,-2.7386127875258306,0A2.7386127875258306,2.7386127875258306,0,1,1,2.7386127875258306,0" style="fill: white; stroke: #ff7f0e; stroke-width: 2; opacity: 1;"></path><path transform="translate(600,689.7777777777778)" d="M2.7386127875258306,0A2.7386127875258306,2.7386127875258306,0,1,1,-2.7386127875258306,0A2.7386127875258306,2.7386127875258306,0,1,1,2.7386127875258306,0" style="fill: white; stroke: #1f77b4; stroke-width: 2; opacity: 1;"></path><path transform="translate(600,780.4444444444445)" d="M2.7386127875258306,0A2.7386127875258306,2.7386127875258306,0,1,1,-2.7386127875258306,0A2.7386127875258306,2.7386127875258306,0,1,1,2.7386127875258306,0" style="fill: white; stroke: #ffbb78; stroke-width: 2; opacity: 1;"></path><path transform="translate(600,487.11111111111103)" d="M2.7386127875258306,0A2.7386127875258306,2.7386127875258306,0,1,1,-2.7386127875258306,0A2.7386127875258306,2.7386127875258306,0,1,1,2.7386127875258306,0" style="fill: white; stroke: #98df8a; stroke-width: 2; opacity: 1;"></path><path transform="translate(600,602.6666666666666)" d="M2.7386127875258306,0A2.7386127875258306,2.7386127875258306,0,1,1,-2.7386127875258306,0A2.7386127875258306,2.7386127875258306,0,1,1,2.7386127875258306,0" style="fill: white; stroke: #ff9896; stroke-width: 2; opacity: 1;"></path><path transform="translate(600,693.3333333333334)" d="M2.7386127875258306,0A2.7386127875258306,2.7386127875258306,0,1,1,-2.7386127875258306,0A2.7386127875258306,2.7386127875258306,0,1,1,2.7386127875258306,0" style="fill: white; stroke: #2ca02c; stroke-width: 2; opacity: 1;"></path><path transform="translate(600,796.4444444444445)" d="M2.7386127875258306,0A2.7386127875258306,2.7386127875258306,0,1,1,-2.7386127875258306,0A2.7386127875258306,2.7386127875258306,0,1,1,2.7386127875258306,0" style="fill: white; stroke: #aec7e8; stroke-width: 2; opacity: 1;"></path><path transform="translate(600,588.4444444444445)" d="M2.7386127875258306,0A2.7386127875258306,2.7386127875258306,0,1,1,-2.7386127875258306,0A2.7386127875258306,2.7386127875258306,0,1,1,2.7386127875258306,0" style="fill: white; stroke: #d62728; stroke-width: 2; opacity: 1;"></path><path transform="translate(600,800)" d="M2.7386127875258306,0A2.7386127875258306,2.7386127875258306,0,1,1,-2.7386127875258306,0A2.7386127875258306,2.7386127875258306,0,1,1,2.7386127875258306,0" style="fill: white; stroke: #ff7f0e; stroke-width: 2; opacity: 1;"></path><path transform="translate(646.1538461538461,677.3333333333334)" d="M2.7386127875258306,0A2.7386127875258306,2.7386127875258306,0,1,1,-2.7386127875258306,0A2.7386127875258306,2.7386127875258306,0,1,1,2.7386127875258306,0" style="fill: white; stroke: #1f77b4; stroke-width: 2; opacity: 1;"></path><path transform="translate(646.1538461538461,787.5555555555555)" d="M2.7386127875258306,0A2.7386127875258306,2.7386127875258306,0,1,1,-2.7386127875258306,0A2.7386127875258306,2.7386127875258306,0,1,1,2.7386127875258306,0" style="fill: white; stroke: #ffbb78; stroke-width: 2; opacity: 1;"></path><path transform="translate(646.1538461538461,453.3333333333333)" d="M2.7386127875258306,0A2.7386127875258306,2.7386127875258306,0,1,1,-2.7386127875258306,0A2.7386127875258306,2.7386127875258306,0,1,1,2.7386127875258306,0" style="fill: white; stroke: #98df8a; stroke-width: 2; opacity: 1;"></path><path transform="translate(646.1538461538461,574.2222222222223)" d="M2.7386127875258306,0A2.7386127875258306,2.7386127875258306,0,1,1,-2.7386127875258306,0A2.7386127875258306,2.7386127875258306,0,1,1,2.7386127875258306,0" style="fill: white; stroke: #ff9896; stroke-width: 2; opacity: 1;"></path><path transform="translate(646.1538461538461,682.6666666666666)" d="M2.7386127875258306,0A2.7386127875258306,2.7386127875258306,0,1,1,-2.7386127875258306,0A2.7386127875258306,2.7386127875258306,0,1,1,2.7386127875258306,0" style="fill: white; stroke: #2ca02c; stroke-width: 2; opacity: 1;"></path><path transform="translate(646.1538461538461,794.6666666666666)" d="M2.7386127875258306,0A2.7386127875258306,2.7386127875258306,0,1,1,-2.7386127875258306,0A2.7386127875258306,2.7386127875258306,0,1,1,2.7386127875258306,0" style="fill: white; stroke: #aec7e8; stroke-width: 2; opacity: 1;"></path><path transform="translate(646.1538461538461,547.5555555555555)" d="M2.7386127875258306,0A2.7386127875258306,2.7386127875258306,0,1,1,-2.7386127875258306,0A2.7386127875258306,2.7386127875258306,0,1,1,2.7386127875258306,0" style="fill: white; stroke: #d62728; stroke-width: 2; opacity: 1;"></path><path transform="translate(646.1538461538461,800)" d="M2.7386127875258306,0A2.7386127875258306,2.7386127875258306,0,1,1,-2.7386127875258306,0A2.7386127875258306,2.7386127875258306,0,1,1,2.7386127875258306,0" style="fill: white; stroke: #ff7f0e; stroke-width: 2; opacity: 1;"></path><path transform="translate(692.3076923076923,672)" d="M2.7386127875258306,0A2.7386127875258306,2.7386127875258306,0,1,1,-2.7386127875258306,0A2.7386127875258306,2.7386127875258306,0,1,1,2.7386127875258306,0" style="fill: white; stroke: #1f77b4; stroke-width: 2; opacity: 1;"></path><path transform="translate(692.3076923076923,794.6666666666666)" d="M2.7386127875258306,0A2.7386127875258306,2.7386127875258306,0,1,1,-2.7386127875258306,0A2.7386127875258306,2.7386127875258306,0,1,1,2.7386127875258306,0" style="fill: white; stroke: #ffbb78; stroke-width: 2; opacity: 1;"></path><path transform="translate(692.3076923076923,419.5555555555556)" d="M2.7386127875258306,0A2.7386127875258306,2.7386127875258306,0,1,1,-2.7386127875258306,0A2.7386127875258306,2.7386127875258306,0,1,1,2.7386127875258306,0" style="fill: white; stroke: #98df8a; stroke-width: 2; opacity: 1;"></path><path transform="translate(692.3076923076923,552.8888888888889)" d="M2.7386127875258306,0A2.7386127875258306,2.7386127875258306,0,1,1,-2.7386127875258306,0A2.7386127875258306,2.7386127875258306,0,1,1,2.7386127875258306,0" style="fill: white; stroke: #ff9896; stroke-width: 2; opacity: 1;"></path><path transform="translate(692.3076923076923,680.8888888888889)" d="M2.7386127875258306,0A2.7386127875258306,2.7386127875258306,0,1,1,-2.7386127875258306,0A2.7386127875258306,2.7386127875258306,0,1,1,2.7386127875258306,0" style="fill: white; stroke: #2ca02c; stroke-width: 2; opacity: 1;"></path><path transform="translate(692.3076923076923,791.1111111111111)" d="M2.7386127875258306,0A2.7386127875258306,2.7386127875258306,0,1,1,-2.7386127875258306,0A2.7386127875258306,2.7386127875258306,0,1,1,2.7386127875258306,0" style="fill: white; stroke: #aec7e8; stroke-width: 2; opacity: 1;"></path><path transform="translate(692.3076923076923,520.8888888888889)" d="M2.7386127875258306,0A2.7386127875258306,2.7386127875258306,0,1,1,-2.7386127875258306,0A2.7386127875258306,2.7386127875258306,0,1,1,2.7386127875258306,0" style="fill: white; stroke: #d62728; stroke-width: 2; opacity: 1;"></path><path transform="translate(692.3076923076923,800)" d="M2.7386127875258306,0A2.7386127875258306,2.7386127875258306,0,1,1,-2.7386127875258306,0A2.7386127875258306,2.7386127875258306,0,1,1,2.7386127875258306,0" style="fill: white; stroke: #ff7f0e; stroke-width: 2; opacity: 1;"></path><path transform="translate(738.4615384615385,657.7777777777777)" d="M2.7386127875258306,0A2.7386127875258306,2.7386127875258306,0,1,1,-2.7386127875258306,0A2.7386127875258306,2.7386127875258306,0,1,1,2.7386127875258306,0" style="fill: white; stroke: #1f77b4; stroke-width: 2; opacity: 1;"></path><path transform="translate(738.4615384615385,785.7777777777778)" d="M2.7386127875258306,0A2.7386127875258306,2.7386127875258306,0,1,1,-2.7386127875258306,0A2.7386127875258306,2.7386127875258306,0,1,1,2.7386127875258306,0" style="fill: white; stroke: #ffbb78; stroke-width: 2; opacity: 1;"></path><path transform="translate(738.4615384615385,380.4444444444444)" d="M2.7386127875258306,0A2.7386127875258306,2.7386127875258306,0,1,1,-2.7386127875258306,0A2.7386127875258306,2.7386127875258306,0,1,1,2.7386127875258306,0" style="fill: white; stroke: #98df8a; stroke-width: 2; opacity: 1;"></path><path transform="translate(738.4615384615385,670.2222222222222)" d="M2.7386127875258306,0A2.7386127875258306,2.7386127875258306,0,1,1,-2.7386127875258306,0A2.7386127875258306,2.7386127875258306,0,1,1,2.7386127875258306,0" style="fill: white; stroke: #2ca02c; stroke-width: 2; opacity: 1;"></path><path transform="translate(738.4615384615385,791.1111111111111)" d="M2.7386127875258306,0A2.7386127875258306,2.7386127875258306,0,1,1,-2.7386127875258306,0A2.7386127875258306,2.7386127875258306,0,1,1,2.7386127875258306,0" style="fill: white; stroke: #aec7e8; stroke-width: 2; opacity: 1;"></path><path transform="translate(738.4615384615385,453.3333333333333)" d="M2.7386127875258306,0A2.7386127875258306,2.7386127875258306,0,1,1,-2.7386127875258306,0A2.7386127875258306,2.7386127875258306,0,1,1,2.7386127875258306,0" style="fill: white; stroke: #d62728; stroke-width: 2; opacity: 1;"></path><path transform="translate(738.4615384615385,796.4444444444445)" d="M2.7386127875258306,0A2.7386127875258306,2.7386127875258306,0,1,1,-2.7386127875258306,0A2.7386127875258306,2.7386127875258306,0,1,1,2.7386127875258306,0" style="fill: white; stroke: #ff7f0e; stroke-width: 2; opacity: 1;"></path><path transform="translate(784.6153846153846,620.4444444444445)" d="M2.7386127875258306,0A2.7386127875258306,2.7386127875258306,0,1,1,-2.7386127875258306,0A2.7386127875258306,2.7386127875258306,0,1,1,2.7386127875258306,0" style="fill: white; stroke: #1f77b4; stroke-width: 2; opacity: 1;"></path><path transform="translate(784.6153846153846,762.6666666666667)" d="M2.7386127875258306,0A2.7386127875258306,2.7386127875258306,0,1,1,-2.7386127875258306,0A2.7386127875258306,2.7386127875258306,0,1,1,2.7386127875258306,0" style="fill: white; stroke: #ffbb78; stroke-width: 2; opacity: 1;"></path><path transform="translate(784.6153846153846,407.11111111111114)" d="M2.7386127875258306,0A2.7386127875258306,2.7386127875258306,0,1,1,-2.7386127875258306,0A2.7386127875258306,2.7386127875258306,0,1,1,2.7386127875258306,0" style="fill: white; stroke: #98df8a; stroke-width: 2; opacity: 1;"></path><path transform="translate(784.6153846153846,448.00000000000006)" d="M2.7386127875258306,0A2.7386127875258306,2.7386127875258306,0,1,1,-2.7386127875258306,0A2.7386127875258306,2.7386127875258306,0,1,1,2.7386127875258306,0" style="fill: white; stroke: #ff9896; stroke-width: 2; opacity: 1;"></path><path transform="translate(784.6153846153846,636.4444444444445)" d="M2.7386127875258306,0A2.7386127875258306,2.7386127875258306,0,1,1,-2.7386127875258306,0A2.7386127875258306,2.7386127875258306,0,1,1,2.7386127875258306,0" style="fill: white; stroke: #2ca02c; stroke-width: 2; opacity: 1;"></path><path transform="translate(784.6153846153846,791.1111111111111)" d="M2.7386127875258306,0A2.7386127875258306,2.7386127875258306,0,1,1,-2.7386127875258306,0A2.7386127875258306,2.7386127875258306,0,1,1,2.7386127875258306,0" style="fill: white; stroke: #aec7e8; stroke-width: 2; opacity: 1;"></path><path transform="translate(784.6153846153846,392.8888888888889)" d="M2.7386127875258306,0A2.7386127875258306,2.7386127875258306,0,1,1,-2.7386127875258306,0A2.7386127875258306,2.7386127875258306,0,1,1,2.7386127875258306,0" style="fill: white; stroke: #d62728; stroke-width: 2; opacity: 1;"></path><path transform="translate(784.6153846153846,792.8888888888889)" d="M2.7386127875258306,0A2.7386127875258306,2.7386127875258306,0,1,1,-2.7386127875258306,0A2.7386127875258306,2.7386127875258306,0,1,1,2.7386127875258306,0" style="fill: white; stroke: #ff7f0e; stroke-width: 2; opacity: 1;"></path><path transform="translate(830.7692307692307,606.2222222222222)" d="M2.7386127875258306,0A2.7386127875258306,2.7386127875258306,0,1,1,-2.7386127875258306,0A2.7386127875258306,2.7386127875258306,0,1,1,2.7386127875258306,0" style="fill: white; stroke: #1f77b4; stroke-width: 2; opacity: 1;"></path><path transform="translate(830.7692307692307,785.7777777777778)" d="M2.7386127875258306,0A2.7386127875258306,2.7386127875258306,0,1,1,-2.7386127875258306,0A2.7386127875258306,2.7386127875258306,0,1,1,2.7386127875258306,0" style="fill: white; stroke: #ffbb78; stroke-width: 2; opacity: 1;"></path><path transform="translate(830.7692307692307,375.11111111111114)" d="M2.7386127875258306,0A2.7386127875258306,2.7386127875258306,0,1,1,-2.7386127875258306,0A2.7386127875258306,2.7386127875258306,0,1,1,2.7386127875258306,0" style="fill: white; stroke: #98df8a; stroke-width: 2; opacity: 1;"></path><path transform="translate(830.7692307692307,625.7777777777778)" d="M2.7386127875258306,0A2.7386127875258306,2.7386127875258306,0,1,1,-2.7386127875258306,0A2.7386127875258306,2.7386127875258306,0,1,1,2.7386127875258306,0" style="fill: white; stroke: #2ca02c; stroke-width: 2; opacity: 1;"></path><path transform="translate(830.7692307692307,787.5555555555555)" d="M2.7386127875258306,0A2.7386127875258306,2.7386127875258306,0,1,1,-2.7386127875258306,0A2.7386127875258306,2.7386127875258306,0,1,1,2.7386127875258306,0" style="fill: white; stroke: #aec7e8; stroke-width: 2; opacity: 1;"></path><path transform="translate(830.7692307692307,391.11111111111114)" d="M2.7386127875258306,0A2.7386127875258306,2.7386127875258306,0,1,1,-2.7386127875258306,0A2.7386127875258306,2.7386127875258306,0,1,1,2.7386127875258306,0" style="fill: white; stroke: #d62728; stroke-width: 2; opacity: 1;"></path><path transform="translate(830.7692307692307,792.8888888888889)" d="M2.7386127875258306,0A2.7386127875258306,2.7386127875258306,0,1,1,-2.7386127875258306,0A2.7386127875258306,2.7386127875258306,0,1,1,2.7386127875258306,0" style="fill: white; stroke: #ff7f0e; stroke-width: 2; opacity: 1;"></path><path transform="translate(876.9230769230769,595.5555555555555)" d="M2.7386127875258306,0A2.7386127875258306,2.7386127875258306,0,1,1,-2.7386127875258306,0A2.7386127875258306,2.7386127875258306,0,1,1,2.7386127875258306,0" style="fill: white; stroke: #1f77b4; stroke-width: 2; opacity: 1;"></path><path transform="translate(876.9230769230769,789.3333333333334)" d="M2.7386127875258306,0A2.7386127875258306,2.7386127875258306,0,1,1,-2.7386127875258306,0A2.7386127875258306,2.7386127875258306,0,1,1,2.7386127875258306,0" style="fill: white; stroke: #ffbb78; stroke-width: 2; opacity: 1;"></path><path transform="translate(876.9230769230769,366.2222222222222)" d="M2.7386127875258306,0A2.7386127875258306,2.7386127875258306,0,1,1,-2.7386127875258306,0A2.7386127875258306,2.7386127875258306,0,1,1,2.7386127875258306,0" style="fill: white; stroke: #98df8a; stroke-width: 2; opacity: 1;"></path><path transform="translate(876.9230769230769,618.6666666666666)" d="M2.7386127875258306,0A2.7386127875258306,2.7386127875258306,0,1,1,-2.7386127875258306,0A2.7386127875258306,2.7386127875258306,0,1,1,2.7386127875258306,0" style="fill: white; stroke: #2ca02c; stroke-width: 2; opacity: 1;"></path><path transform="translate(876.9230769230769,784)" d="M2.7386127875258306,0A2.7386127875258306,2.7386127875258306,0,1,1,-2.7386127875258306,0A2.7386127875258306,2.7386127875258306,0,1,1,2.7386127875258306,0" style="fill: white; stroke: #aec7e8; stroke-width: 2; opacity: 1;"></path><path transform="translate(876.9230769230769,366.2222222222222)" d="M2.7386127875258306,0A2.7386127875258306,2.7386127875258306,0,1,1,-2.7386127875258306,0A2.7386127875258306,2.7386127875258306,0,1,1,2.7386127875258306,0" style="fill: white; stroke: #d62728; stroke-width: 2; opacity: 1;"></path><path transform="translate(876.9230769230769,792.8888888888889)" d="M2.7386127875258306,0A2.7386127875258306,2.7386127875258306,0,1,1,-2.7386127875258306,0A2.7386127875258306,2.7386127875258306,0,1,1,2.7386127875258306,0" style="fill: white; stroke: #ff7f0e; stroke-width: 2; opacity: 1;"></path><path transform="translate(923.0769230769231,588.4444444444445)" d="M2.7386127875258306,0A2.7386127875258306,2.7386127875258306,0,1,1,-2.7386127875258306,0A2.7386127875258306,2.7386127875258306,0,1,1,2.7386127875258306,0" style="fill: white; stroke: #1f77b4; stroke-width: 2; opacity: 1;"></path><path transform="translate(923.0769230769231,792.8888888888889)" d="M2.7386127875258306,0A2.7386127875258306,2.7386127875258306,0,1,1,-2.7386127875258306,0A2.7386127875258306,2.7386127875258306,0,1,1,2.7386127875258306,0" style="fill: white; stroke: #ffbb78; stroke-width: 2; opacity: 1;"></path><path transform="translate(923.0769230769231,455.1111111111111)" d="M2.7386127875258306,0A2.7386127875258306,2.7386127875258306,0,1,1,-2.7386127875258306,0A2.7386127875258306,2.7386127875258306,0,1,1,2.7386127875258306,0" style="fill: white; stroke: #98df8a; stroke-width: 2; opacity: 1;"></path><path transform="translate(923.0769230769231,615.1111111111112)" d="M2.7386127875258306,0A2.7386127875258306,2.7386127875258306,0,1,1,-2.7386127875258306,0A2.7386127875258306,2.7386127875258306,0,1,1,2.7386127875258306,0" style="fill: white; stroke: #2ca02c; stroke-width: 2; opacity: 1;"></path><path transform="translate(923.0769230769231,780.4444444444445)" d="M2.7386127875258306,0A2.7386127875258306,2.7386127875258306,0,1,1,-2.7386127875258306,0A2.7386127875258306,2.7386127875258306,0,1,1,2.7386127875258306,0" style="fill: white; stroke: #aec7e8; stroke-width: 2; opacity: 1;"></path><path transform="translate(923.0769230769231,227.5555555555556)" d="M2.7386127875258306,0A2.7386127875258306,2.7386127875258306,0,1,1,-2.7386127875258306,0A2.7386127875258306,2.7386127875258306,0,1,1,2.7386127875258306,0" style="fill: white; stroke: #d62728; stroke-width: 2; opacity: 1;"></path><path transform="translate(923.0769230769231,792.8888888888889)" d="M2.7386127875258306,0A2.7386127875258306,2.7386127875258306,0,1,1,-2.7386127875258306,0A2.7386127875258306,2.7386127875258306,0,1,1,2.7386127875258306,0" style="fill: white; stroke: #ff7f0e; stroke-width: 2; opacity: 1;"></path><path transform="translate(969.2307692307693,574.2222222222223)" d="M2.7386127875258306,0A2.7386127875258306,2.7386127875258306,0,1,1,-2.7386127875258306,0A2.7386127875258306,2.7386127875258306,0,1,1,2.7386127875258306,0" style="fill: white; stroke: #1f77b4; stroke-width: 2; opacity: 1;"></path><path transform="translate(969.2307692307693,785.7777777777778)" d="M2.7386127875258306,0A2.7386127875258306,2.7386127875258306,0,1,1,-2.7386127875258306,0A2.7386127875258306,2.7386127875258306,0,1,1,2.7386127875258306,0" style="fill: white; stroke: #ffbb78; stroke-width: 2; opacity: 1;"></path><path transform="translate(969.2307692307693,384)" d="M2.7386127875258306,0A2.7386127875258306,2.7386127875258306,0,1,1,-2.7386127875258306,0A2.7386127875258306,2.7386127875258306,0,1,1,2.7386127875258306,0" style="fill: white; stroke: #98df8a; stroke-width: 2; opacity: 1;"></path><path transform="translate(969.2307692307693,606.2222222222222)" d="M2.7386127875258306,0A2.7386127875258306,2.7386127875258306,0,1,1,-2.7386127875258306,0A2.7386127875258306,2.7386127875258306,0,1,1,2.7386127875258306,0" style="fill: white; stroke: #2ca02c; stroke-width: 2; opacity: 1;"></path><path transform="translate(969.2307692307693,775.1111111111111)" d="M2.7386127875258306,0A2.7386127875258306,2.7386127875258306,0,1,1,-2.7386127875258306,0A2.7386127875258306,2.7386127875258306,0,1,1,2.7386127875258306,0" style="fill: white; stroke: #aec7e8; stroke-width: 2; opacity: 1;"></path><path transform="translate(969.2307692307693,195.55555555555557)" d="M2.7386127875258306,0A2.7386127875258306,2.7386127875258306,0,1,1,-2.7386127875258306,0A2.7386127875258306,2.7386127875258306,0,1,1,2.7386127875258306,0" style="fill: white; stroke: #d62728; stroke-width: 2; opacity: 1;"></path><path transform="translate(969.2307692307693,792.8888888888889)" d="M2.7386127875258306,0A2.7386127875258306,2.7386127875258306,0,1,1,-2.7386127875258306,0A2.7386127875258306,2.7386127875258306,0,1,1,2.7386127875258306,0" style="fill: white; stroke: #ff7f0e; stroke-width: 2; opacity: 1;"></path><path transform="translate(1015.3846153846154,544)" d="M2.7386127875258306,0A2.7386127875258306,2.7386127875258306,0,1,1,-2.7386127875258306,0A2.7386127875258306,2.7386127875258306,0,1,1,2.7386127875258306,0" style="fill: white; stroke: #1f77b4; stroke-width: 2; opacity: 1;"></path><path transform="translate(1015.3846153846154,769.7777777777777)" d="M2.7386127875258306,0A2.7386127875258306,2.7386127875258306,0,1,1,-2.7386127875258306,0A2.7386127875258306,2.7386127875258306,0,1,1,2.7386127875258306,0" style="fill: white; stroke: #ffbb78; stroke-width: 2; opacity: 1;"></path><path transform="translate(1015.3846153846154,366.2222222222222)" d="M2.7386127875258306,0A2.7386127875258306,2.7386127875258306,0,1,1,-2.7386127875258306,0A2.7386127875258306,2.7386127875258306,0,1,1,2.7386127875258306,0" style="fill: white; stroke: #98df8a; stroke-width: 2; opacity: 1;"></path><path transform="translate(1015.3846153846154,576)" d="M2.7386127875258306,0A2.7386127875258306,2.7386127875258306,0,1,1,-2.7386127875258306,0A2.7386127875258306,2.7386127875258306,0,1,1,2.7386127875258306,0" style="fill: white; stroke: #2ca02c; stroke-width: 2; opacity: 1;"></path><path transform="translate(1015.3846153846154,775.1111111111111)" d="M2.7386127875258306,0A2.7386127875258306,2.7386127875258306,0,1,1,-2.7386127875258306,0A2.7386127875258306,2.7386127875258306,0,1,1,2.7386127875258306,0" style="fill: white; stroke: #aec7e8; stroke-width: 2; opacity: 1;"></path><path transform="translate(1015.3846153846154,184.8888888888889)" d="M2.7386127875258306,0A2.7386127875258306,2.7386127875258306,0,1,1,-2.7386127875258306,0A2.7386127875258306,2.7386127875258306,0,1,1,2.7386127875258306,0" style="fill: white; stroke: #d62728; stroke-width: 2; opacity: 1;"></path><path transform="translate(1015.3846153846154,792.8888888888889)" d="M2.7386127875258306,0A2.7386127875258306,2.7386127875258306,0,1,1,-2.7386127875258306,0A2.7386127875258306,2.7386127875258306,0,1,1,2.7386127875258306,0" style="fill: white; stroke: #ff7f0e; stroke-width: 2; opacity: 1;"></path><path transform="translate(1061.5384615384614,531.5555555555555)" d="M2.7386127875258306,0A2.7386127875258306,2.7386127875258306,0,1,1,-2.7386127875258306,0A2.7386127875258306,2.7386127875258306,0,1,1,2.7386127875258306,0" style="fill: white; stroke: #1f77b4; stroke-width: 2; opacity: 1;"></path><path transform="translate(1061.5384615384614,787.5555555555555)" d="M2.7386127875258306,0A2.7386127875258306,2.7386127875258306,0,1,1,-2.7386127875258306,0A2.7386127875258306,2.7386127875258306,0,1,1,2.7386127875258306,0" style="fill: white; stroke: #ffbb78; stroke-width: 2; opacity: 1;"></path><path transform="translate(1061.5384615384614,177.77777777777777)" d="M2.7386127875258306,0A2.7386127875258306,2.7386127875258306,0,1,1,-2.7386127875258306,0A2.7386127875258306,2.7386127875258306,0,1,1,2.7386127875258306,0" style="fill: white; stroke: #98df8a; stroke-width: 2; opacity: 1;"></path><path transform="translate(1061.5384615384614,563.5555555555555)" d="M2.7386127875258306,0A2.7386127875258306,2.7386127875258306,0,1,1,-2.7386127875258306,0A2.7386127875258306,2.7386127875258306,0,1,1,2.7386127875258306,0" style="fill: white; stroke: #2ca02c; stroke-width: 2; opacity: 1;"></path><path transform="translate(1061.5384615384614,775.1111111111111)" d="M2.7386127875258306,0A2.7386127875258306,2.7386127875258306,0,1,1,-2.7386127875258306,0A2.7386127875258306,2.7386127875258306,0,1,1,2.7386127875258306,0" style="fill: white; stroke: #aec7e8; stroke-width: 2; opacity: 1;"></path><path transform="translate(1061.5384615384614,163.55555555555554)" d="M2.7386127875258306,0A2.7386127875258306,2.7386127875258306,0,1,1,-2.7386127875258306,0A2.7386127875258306,2.7386127875258306,0,1,1,2.7386127875258306,0" style="fill: white; stroke: #d62728; stroke-width: 2; opacity: 1;"></path><path transform="translate(1061.5384615384614,234.66666666666666)" d="M2.7386127875258306,0A2.7386127875258306,2.7386127875258306,0,1,1,-2.7386127875258306,0A2.7386127875258306,2.7386127875258306,0,1,1,2.7386127875258306,0" style="fill: white; stroke: #ff9896; stroke-width: 2; opacity: 1;"></path><path transform="translate(1061.5384615384614,792.8888888888889)" d="M2.7386127875258306,0A2.7386127875258306,2.7386127875258306,0,1,1,-2.7386127875258306,0A2.7386127875258306,2.7386127875258306,0,1,1,2.7386127875258306,0" style="fill: white; stroke: #ff7f0e; stroke-width: 2; opacity: 1;"></path><path transform="translate(1107.6923076923078,515.5555555555555)" d="M2.7386127875258306,0A2.7386127875258306,2.7386127875258306,0,1,1,-2.7386127875258306,0A2.7386127875258306,2.7386127875258306,0,1,1,2.7386127875258306,0" style="fill: white; stroke: #1f77b4; stroke-width: 2; opacity: 1;"></path><path transform="translate(1107.6923076923078,784)" d="M2.7386127875258306,0A2.7386127875258306,2.7386127875258306,0,1,1,-2.7386127875258306,0A2.7386127875258306,2.7386127875258306,0,1,1,2.7386127875258306,0" style="fill: white; stroke: #ffbb78; stroke-width: 2; opacity: 1;"></path><path transform="translate(1107.6923076923078,106.66666666666664)" d="M2.7386127875258306,0A2.7386127875258306,2.7386127875258306,0,1,1,-2.7386127875258306,0A2.7386127875258306,2.7386127875258306,0,1,1,2.7386127875258306,0" style="fill: white; stroke: #98df8a; stroke-width: 2; opacity: 1;"></path><path transform="translate(1107.6923076923078,558.2222222222223)" d="M2.7386127875258306,0A2.7386127875258306,2.7386127875258306,0,1,1,-2.7386127875258306,0A2.7386127875258306,2.7386127875258306,0,1,1,2.7386127875258306,0" style="fill: white; stroke: #2ca02c; stroke-width: 2; opacity: 1;"></path><path transform="translate(1107.6923076923078,764.4444444444445)" d="M2.7386127875258306,0A2.7386127875258306,2.7386127875258306,0,1,1,-2.7386127875258306,0A2.7386127875258306,2.7386127875258306,0,1,1,2.7386127875258306,0" style="fill: white; stroke: #aec7e8; stroke-width: 2; opacity: 1;"></path><path transform="translate(1107.6923076923078,159.99999999999997)" d="M2.7386127875258306,0A2.7386127875258306,2.7386127875258306,0,1,1,-2.7386127875258306,0A2.7386127875258306,2.7386127875258306,0,1,1,2.7386127875258306,0" style="fill: white; stroke: #d62728; stroke-width: 2; opacity: 1;"></path><path transform="translate(1107.6923076923078,204.44444444444443)" d="M2.7386127875258306,0A2.7386127875258306,2.7386127875258306,0,1,1,-2.7386127875258306,0A2.7386127875258306,2.7386127875258306,0,1,1,2.7386127875258306,0" style="fill: white; stroke: #ff9896; stroke-width: 2; opacity: 1;"></path><path transform="translate(1107.6923076923078,792.8888888888889)" d="M2.7386127875258306,0A2.7386127875258306,2.7386127875258306,0,1,1,-2.7386127875258306,0A2.7386127875258306,2.7386127875258306,0,1,1,2.7386127875258306,0" style="fill: white; stroke: #ff7f0e; stroke-width: 2; opacity: 1;"></path><path transform="translate(1153.8461538461538,488.8888888888889)" d="M2.7386127875258306,0A2.7386127875258306,2.7386127875258306,0,1,1,-2.7386127875258306,0A2.7386127875258306,2.7386127875258306,0,1,1,2.7386127875258306,0" style="fill: white; stroke: #1f77b4; stroke-width: 2; opacity: 1;"></path><path transform="translate(1153.8461538461538,773.3333333333334)" d="M2.7386127875258306,0A2.7386127875258306,2.7386127875258306,0,1,1,-2.7386127875258306,0A2.7386127875258306,2.7386127875258306,0,1,1,2.7386127875258306,0" style="fill: white; stroke: #ffbb78; stroke-width: 2; opacity: 1;"></path><path transform="translate(1153.8461538461538,33.777777777777814)" d="M2.7386127875258306,0A2.7386127875258306,2.7386127875258306,0,1,1,-2.7386127875258306,0A2.7386127875258306,2.7386127875258306,0,1,1,2.7386127875258306,0" style="fill: white; stroke: #98df8a; stroke-width: 2; opacity: 1;"></path><path transform="translate(1153.8461538461538,531.5555555555555)" d="M2.7386127875258306,0A2.7386127875258306,2.7386127875258306,0,1,1,-2.7386127875258306,0A2.7386127875258306,2.7386127875258306,0,1,1,2.7386127875258306,0" style="fill: white; stroke: #2ca02c; stroke-width: 2; opacity: 1;"></path><path transform="translate(1153.8461538461538,764.4444444444445)" d="M2.7386127875258306,0A2.7386127875258306,2.7386127875258306,0,1,1,-2.7386127875258306,0A2.7386127875258306,2.7386127875258306,0,1,1,2.7386127875258306,0" style="fill: white; stroke: #aec7e8; stroke-width: 2; opacity: 1;"></path><path transform="translate(1153.8461538461538,142.22222222222226)" d="M2.7386127875258306,0A2.7386127875258306,2.7386127875258306,0,1,1,-2.7386127875258306,0A2.7386127875258306,2.7386127875258306,0,1,1,2.7386127875258306,0" style="fill: white; stroke: #d62728; stroke-width: 2; opacity: 1;"></path><path transform="translate(1153.8461538461538,170.66666666666669)" d="M2.7386127875258306,0A2.7386127875258306,2.7386127875258306,0,1,1,-2.7386127875258306,0A2.7386127875258306,2.7386127875258306,0,1,1,2.7386127875258306,0" style="fill: white; stroke: #ff9896; stroke-width: 2; opacity: 1;"></path><path transform="translate(1153.8461538461538,792.8888888888889)" d="M2.7386127875258306,0A2.7386127875258306,2.7386127875258306,0,1,1,-2.7386127875258306,0A2.7386127875258306,2.7386127875258306,0,1,1,2.7386127875258306,0" style="fill: white; stroke: #ff7f0e; stroke-width: 2; opacity: 1;"></path><path transform="translate(1200,467.55555555555554)" d="M2.7386127875258306,0A2.7386127875258306,2.7386127875258306,0,1,1,-2.7386127875258306,0A2.7386127875258306,2.7386127875258306,0,1,1,2.7386127875258306,0" style="fill: white; stroke: #1f77b4; stroke-width: 2; opacity: 1;"></path><path transform="translate(1200,778.6666666666667)" d="M2.7386127875258306,0A2.7386127875258306,2.7386127875258306,0,1,1,-2.7386127875258306,0A2.7386127875258306,2.7386127875258306,0,1,1,2.7386127875258306,0" style="fill: white; stroke: #ffbb78; stroke-width: 2; opacity: 1;"></path><path transform="translate(1200,44.444444444444464)" d="M2.7386127875258306,0A2.7386127875258306,2.7386127875258306,0,1,1,-2.7386127875258306,0A2.7386127875258306,2.7386127875258306,0,1,1,2.7386127875258306,0" style="fill: white; stroke: #98df8a; stroke-width: 2; opacity: 1;"></path><path transform="translate(1200,510.22222222222223)" d="M2.7386127875258306,0A2.7386127875258306,2.7386127875258306,0,1,1,-2.7386127875258306,0A2.7386127875258306,2.7386127875258306,0,1,1,2.7386127875258306,0" style="fill: white; stroke: #2ca02c; stroke-width: 2; opacity: 1;"></path><path transform="translate(1200,764.4444444444445)" d="M2.7386127875258306,0A2.7386127875258306,2.7386127875258306,0,1,1,-2.7386127875258306,0A2.7386127875258306,2.7386127875258306,0,1,1,2.7386127875258306,0" style="fill: white; stroke: #aec7e8; stroke-width: 2; opacity: 1;"></path><path transform="translate(1200,46.22222222222226)" d="M2.7386127875258306,0A2.7386127875258306,2.7386127875258306,0,1,1,-2.7386127875258306,0A2.7386127875258306,2.7386127875258306,0,1,1,2.7386127875258306,0" style="fill: white; stroke: #d62728; stroke-width: 2; opacity: 1;"></path><path transform="translate(1200,124.44444444444444)" d="M2.7386127875258306,0A2.7386127875258306,2.7386127875258306,0,1,1,-2.7386127875258306,0A2.7386127875258306,2.7386127875258306,0,1,1,2.7386127875258306,0" style="fill: white; stroke: #ff9896; stroke-width: 2; opacity: 1;"></path><path transform="translate(1200,792.8888888888889)" d="M2.7386127875258306,0A2.7386127875258306,2.7386127875258306,0,1,1,-2.7386127875258306,0A2.7386127875258306,2.7386127875258306,0,1,1,2.7386127875258306,0" style="fill: white; stroke: #ff7f0e; stroke-width: 2; opacity: 1;"></path></g><g class="mark-group role-legend"><g transform="translate(1220,0)"><path class="background" d="M0,0h116v141h-116Z" style="pointer-events: none; fill: none;"></path><g><g class="mark-group role-legend-entry"><g transform="translate(0,16)"><path class="background" d="M0,0h0v0h0Z" style="pointer-events: none; fill: none;"></path><g><g class="mark-group role-scope"><g transform="translate(0,0)"><path class="background" d="M0,0h116v12.5h-116Z" style="pointer-events: none; fill: none; opacity: 1;"></path><g><g class="mark-symbol role-legend-symbol" style="pointer-events: none;"><path transform="translate(6,6)" d="M5,0A5,5,0,1,1,-5,0A5,5,0,1,1,5,0" style="fill: white; stroke: #1f77b4; stroke-width: 1.5; opacity: 1;"></path></g><g class="mark-text role-legend-label" style="pointer-events: none;"><text text-anchor="start" transform="translate(16,9)" style="font-family: sans-serif; font-size: 10px; fill: #000; opacity: 1;">casi-totali</text></g></g><path class="foreground" d="" style="pointer-events: none; display: none; fill: none;"></path></g><g transform="translate(0,16)"><path class="background" d="M0,0h116v12.5h-116Z" style="pointer-events: none; fill: none; opacity: 1;"></path><g><g class="mark-symbol role-legend-symbol" style="pointer-events: none;"><path transform="translate(6,6)" d="M5,0A5,5,0,1,1,-5,0A5,5,0,1,1,5,0" style="fill: white; stroke: #aec7e8; stroke-width: 1.5; opacity: 1;"></path></g><g class="mark-text role-legend-label" style="pointer-events: none;"><text text-anchor="start" transform="translate(16,9)" style="font-family: sans-serif; font-size: 10px; fill: #000; opacity: 1;">decessi</text></g></g><path class="foreground" d="" style="pointer-events: none; display: none; fill: none;"></path></g><g transform="translate(0,32)"><path class="background" d="M0,0h116v12.5h-116Z" style="pointer-events: none; fill: none; opacity: 1;"></path><g><g class="mark-symbol role-legend-symbol" style="pointer-events: none;"><path transform="translate(6,6)" d="M5,0A5,5,0,1,1,-5,0A5,5,0,1,1,5,0" style="fill: white; stroke: #ff7f0e; stroke-width: 1.5; opacity: 1;"></path></g><g class="mark-text role-legend-label" style="pointer-events: none;"><text text-anchor="start" transform="translate(16,9)" style="font-family: sans-serif; font-size: 10px; fill: #000; opacity: 1;">guariti</text></g></g><path class="foreground" d="" style="pointer-events: none; display: none; fill: none;"></path></g><g transform="translate(0,48)"><path class="background" d="M0,0h116v12.5h-116Z" style="pointer-events: none; fill: none; opacity: 1;"></path><g><g class="mark-symbol role-legend-symbol" style="pointer-events: none;"><path transform="translate(6,6)" d="M5,0A5,5,0,1,1,-5,0A5,5,0,1,1,5,0" style="fill: white; stroke: #ffbb78; stroke-width: 1.5; opacity: 1;"></path></g><g class="mark-text role-legend-label" style="pointer-events: none;"><text text-anchor="start" transform="translate(16,9)" style="font-family: sans-serif; font-size: 10px; fill: #000; opacity: 1;">nuovi-casi</text></g></g><path class="foreground" d="" style="pointer-events: none; display: none; fill: none;"></path></g><g transform="translate(0,64)"><path class="background" d="M0,0h116v12.5h-116Z" style="pointer-events: none; fill: none; opacity: 1;"></path><g><g class="mark-symbol role-legend-symbol" style="pointer-events: none;"><path transform="translate(6,6)" d="M5,0A5,5,0,1,1,-5,0A5,5,0,1,1,5,0" style="fill: white; stroke: #2ca02c; stroke-width: 1.5; opacity: 1;"></path></g><g class="mark-text role-legend-label" style="pointer-events: none;"><text text-anchor="start" transform="translate(16,9)" style="font-family: sans-serif; font-size: 10px; fill: #000; opacity: 1;">positivi</text></g></g><path class="foreground" d="" style="pointer-events: none; display: none; fill: none;"></path></g><g transform="translate(0,80)"><path class="background" d="M0,0h116v12.5h-116Z" style="pointer-events: none; fill: none; opacity: 1;"></path><g><g class="mark-symbol role-legend-symbol" style="pointer-events: none;"><path transform="translate(6,6)" d="M5,0A5,5,0,1,1,-5,0A5,5,0,1,1,5,0" style="fill: white; stroke: #98df8a; stroke-width: 1.5; opacity: 1;"></path></g><g class="mark-text role-legend-label" style="pointer-events: none;"><text text-anchor="start" transform="translate(16,9)" style="font-family: sans-serif; font-size: 10px; fill: #000; opacity: 1;">quarantene-attive</text></g></g><path class="foreground" d="" style="pointer-events: none; display: none; fill: none;"></path></g><g transform="translate(0,96)"><path class="background" d="M0,0h116v12.5h-116Z" style="pointer-events: none; fill: none; opacity: 1;"></path><g><g class="mark-symbol role-legend-symbol" style="pointer-events: none;"><path transform="translate(6,6)" d="M5,0A5,5,0,1,1,-5,0A5,5,0,1,1,5,0" style="fill: white; stroke: #d62728; stroke-width: 1.5; opacity: 1;"></path></g><g class="mark-text role-legend-label" style="pointer-events: none;"><text text-anchor="start" transform="translate(16,9)" style="font-family: sans-serif; font-size: 10px; fill: #000; opacity: 1;">quarantene-terminate</text></g></g><path class="foreground" d="" style="pointer-events: none; display: none; fill: none;"></path></g><g transform="translate(0,112)"><path class="background" d="M0,0h116v12.5h-116Z" style="pointer-events: none; fill: none; opacity: 1;"></path><g><g class="mark-symbol role-legend-symbol" style="pointer-events: none;"><path transform="translate(6,6)" d="M5,0A5,5,0,1,1,-5,0A5,5,0,1,1,5,0" style="fill: white; stroke: #ff9896; stroke-width: 1.5; opacity: 1;"></path></g><g class="mark-text role-legend-label" style="pointer-events: none;"><text text-anchor="start" transform="translate(16,9)" style="font-family: sans-serif; font-size: 10px; fill: #000; opacity: 1;">tamponi</text></g></g><path class="foreground" d="" style="pointer-events: none; display: none; fill: none;"></path></g></g></g><path class="foreground" d="" style="pointer-events: none; display: none; fill: none;"></path></g></g><g class="mark-text role-legend-title" style="pointer-events: none;"><text text-anchor="start" transform="translate(0,9)" style="font-family: sans-serif; font-size: 11px; font-weight: bold; fill: #000; opacity: 1;">type</text></g></g><path class="foreground" d="" style="pointer-events: none; display: none; fill: none;"></path></g></g></g><path class="foreground" d="" style="display: none; fill: none;"></path></g></g></g></svg>