<svg class="marks" width="786" height="642" viewBox="0 0 786 642" version="1.1" xmlns="http://www.w3.org/2000/svg" xmlns:xlink="http://www.w3.org/1999/xlink"><rect width="786" height="642" style="fill: white;"></rect><g transform="translate(45,5)"><g class="mark-group role-frame root"><g transform="translate(0,0)"><path class="background" d="M0.5,0.5h600v600h-600Z" style="fill: none; stroke: #ddd;"></path><g><g class="mark-group role-axis"><g transform="translate(0.5,600.5)"><path class="background" d="M0,0h0v0h0Z" style="pointer-events: none; fill: none;"></path><g><g class="mark-rule role-axis-grid" style="pointer-events: none;"><line transform="translate(14,-600)" x2="0" y2="600" style="fill: none; stroke: #ddd; stroke-width: 1; opacity: 1;"></line><line transform="translate(68,-600)" x2="0" y2="600" style="fill: none; stroke: #ddd; stroke-width: 1; opacity: 1;"></line><line transform="translate(95,-600)" x2="0" y2="600" style="fill: none; stroke: #ddd; stroke-width: 1; opacity: 1;"></line><line transform="translate(150,-600)" x2="0" y2="600" style="fill: none; stroke: #ddd; stroke-width: 1; opacity: 1;"></line><line transform="translate(205,-600)" x2="0" y2="600" style="fill: none; stroke: #ddd; stroke-width: 1; opacity: 1;"></line><line transform="translate(259,-600)" x2="0" y2="600" style="fill: none; stroke: #ddd; stroke-width: 1; opacity: 1;"></line><line transform="translate(314,-600)" x2="0" y2="600" style="fill: none; stroke: #ddd; stroke-width: 1; opacity: 1;"></line><line transform="translate(368,-600)" x2="0" y2="600" style="fill: none; stroke: #ddd; stroke-width: 1; opacity: 1;"></line><line transform="translate(423,-600)" x2="0" y2="600" style="fill: none; stroke: #ddd; stroke-width: 1; opacity: 1;"></line><line transform="translate(477,-600)" x2="0" y2="600" style="fill: none; stroke: #ddd; stroke-width: 1; opacity: 1;"></line><line transform="translate(532,-600)" x2="0" y2="600" style="fill: none; stroke: #ddd; stroke-width: 1; opacity: 1;"></line><line transform="translate(586,-600)" x2="0" y2="600" style="fill: none; stroke: #ddd; stroke-width: 1; opacity: 1;"></line></g></g><path class="foreground" d="" style="pointer-events: none; display: none; fill: none;"></path></g></g><g class="mark-group role-axis"><g transform="translate(0.5,0.5)"><path class="background" d="M0,0h0v0h0Z" style="pointer-events: none; fill: none;"></path><g><g class="mark-rule role-axis-grid" style="pointer-events: none;"><line transform="translate(0,600)" x2="600" y2="0" style="fill: none; stroke: #ddd; stroke-width: 1; opacity: 1;"></line><line transform="translate(0,566)" x2="600" y2="0" style="fill: none; stroke: #ddd; stroke-width: 1; opacity: 1;"></line><line transform="translate(0,531)" x2="600" y2="0" style="fill: none; stroke: #ddd; stroke-width: 1; opacity: 1;"></line><line transform="translate(0,497)" x2="600" y2="0" style="fill: none; stroke: #ddd; stroke-width: 1; opacity: 1;"></line><line transform="translate(0,463)" x2="600" y2="0" style="fill: none; stroke: #ddd; stroke-width: 1; opacity: 1;"></line><line transform="translate(0,429)" x2="600" y2="0" style="fill: none; stroke: #ddd; stroke-width: 1; opacity: 1;"></line><line transform="translate(0,394)" x2="600" y2="0" style="fill: none; stroke: #ddd; stroke-width: 1; opacity: 1;"></line><line transform="translate(0,360)" x2="600" y2="0" style="fill: none; stroke: #ddd; stroke-width: 1; opacity: 1;"></line><line transform="translate(0,326)" x2="600" y2="0" style="fill: none; stroke: #ddd; stroke-width: 1; opacity: 1;"></line><line transform="translate(0,291)" x2="600" y2="0" style="fill: none; stroke: #ddd; stroke-width: 1; opacity: 1;"></line><line transform="translate(0,257)" x2="600" y2="0" style="fill: none; stroke: #ddd; stroke-width: 1; opacity: 1;"></line><line transform="translate(0,223)" x2="600" y2="0" style="fill: none; stroke: #ddd; stroke-width: 1; opacity: 1;"></line><line transform="translate(0,189)" x2="600" y2="0" style="fill: none; stroke: #ddd; stroke-width: 1; opacity: 1;"></line><line transform="translate(0,154)" x2="600" y2="0" style="fill: none; stroke: #ddd; stroke-width: 1; opacity: 1;"></line><line transform="translate(0,120)" x2="600" y2="0" style="fill: none; stroke: #ddd; stroke-width: 1; opacity: 1;"></line><line transform="translate(0,86)" x2="600" y2="0" style="fill: none; stroke: #ddd; stroke-width: 1; opacity: 1;"></line><line transform="translate(0,51)" x2="600" y2="0" style="fill: none; stroke: #ddd; stroke-width: 1; opacity: 1;"></line><line transform="translate(0,17)" x2="600" y2="0" style="fill: none; stroke: #ddd; stroke-width: 1; opacity: 1;"></line></g></g><path class="foreground" d="" style="pointer-events: none; display: none; fill: none;"></path></g></g><g class="mark-group role-axis"><g transform="translate(0.5,600.5)"><path class="background" d="M0,0h0v0h0Z" style="pointer-events: none; fill: none;"></path><g><g class="mark-rule role-axis-tick" style="pointer-events: none;"><line transform="translate(14,0)" x2="0" y2="5" style="fill: none; stroke: #888; stroke-width: 1; opacity: 1;"></line><line transform="translate(68,0)" x2="0" y2="5" style="fill: none; stroke: #888; stroke-width: 1; opacity: 1;"></line><line transform="translate(95,0)" x2="0" y2="5" style="fill: none; stroke: #888; stroke-width: 1; opacity: 1;"></line><line transform="translate(150,0)" x2="0" y2="5" style="fill: none; stroke: #888; stroke-width: 1; opacity: 1;"></line><line transform="translate(205,0)" x2="0" y2="5" style="fill: none; stroke: #888; stroke-width: 1; opacity: 1;"></line><line transform="translate(259,0)" x2="0" y2="5" style="fill: none; stroke: #888; stroke-width: 1; opacity: 1;"></line><line transform="translate(314,0)" x2="0" y2="5" style="fill: none; stroke: #888; stroke-width: 1; opacity: 1;"></line><line transform="translate(368,0)" x2="0" y2="5" style="fill: none; stroke: #888; stroke-width: 1; opacity: 1;"></line><line transform="translate(423,0)" x2="0" y2="5" style="fill: none; stroke: #888; stroke-width: 1; opacity: 1;"></line><line transform="translate(477,0)" x2="0" y2="5" style="fill: none; stroke: #888; stroke-width: 1; opacity: 1;"></line><line transform="translate(532,0)" x2="0" y2="5" style="fill: none; stroke: #888; stroke-width: 1; opacity: 1;"></line><line transform="translate(586,0)" x2="0" y2="5" style="fill: none; stroke: #888; stroke-width: 1; opacity: 1;"></line></g><g class="mark-text role-axis-label" style="pointer-events: none;"><text text-anchor="middle" transform="translate(13.636363636363637,15)" style="font-family: sans-serif; font-size: 10px; fill: #000; opacity: 1;">Thu 27</text><text text-anchor="middle" transform="translate(68.18181818181817,15)" style="font-family: sans-serif; font-size: 10px; fill: #000; opacity: 0;">Sat 29</text><text text-anchor="middle" transform="translate(95.45454545454545,15)" style="font-family: sans-serif; font-size: 10px; fill: #000; opacity: 1;">March</text><text text-anchor="middle" transform="translate(150,15)" style="font-family: sans-serif; font-size: 10px; fill: #000; opacity: 0;">Tue 03</text><text text-anchor="middle" transform="translate(204.54545454545453,15)" style="font-family: sans-serif; font-size: 10px; fill: #000; opacity: 1;">Thu 05</text><text text-anchor="middle" transform="translate(259.0909090909091,15)" style="font-family: sans-serif; font-size: 10px; fill: #000; opacity: 0;">Sat 07</text><text text-anchor="middle" transform="translate(313.6363636363636,15)" style="font-family: sans-serif; font-size: 10px; fill: #000; opacity: 1;">Mon 09</text><text text-anchor="middle" transform="translate(368.1818181818182,15)" style="font-family: sans-serif; font-size: 10px; fill: #000; opacity: 0;">Wed 11</text><text text-anchor="middle" transform="translate(422.72727272727275,15)" style="font-family: sans-serif; font-size: 10px; fill: #000; opacity: 1;">Fri 13</text><text text-anchor="middle" transform="translate(477.27272727272725,15)" style="font-family: sans-serif; font-size: 10px; fill: #000; opacity: 0;">Mar 15</text><text text-anchor="middle" transform="translate(531.8181818181818,15)" style="font-family: sans-serif; font-size: 10px; fill: #000; opacity: 1;">Tue 17</text><text text-anchor="middle" transform="translate(586.3636363636364,15)" style="font-family: sans-serif; font-size: 10px; fill: #000; opacity: 0;">Thu 19</text></g><g class="mark-rule role-axis-domain" style="pointer-events: none;"><line transform="translate(0,0)" x2="600" y2="0" style="fill: none; stroke: #888; stroke-width: 1; opacity: 1;"></line></g><g class="mark-text role-axis-title" style="pointer-events: none;"><text text-anchor="middle" transform="translate(300,30)" style="font-family: sans-serif; font-size: 11px; font-weight: bold; fill: #000; opacity: 1;">x</text></g></g><path class="foreground" d="" style="pointer-events: none; display: none; fill: none;"></path></g></g><g class="mark-group role-axis"><g transform="translate(0.5,0.5)"><path class="background" d="M0,0h0v0h0Z" style="pointer-events: none; fill: none;"></path><g><g class="mark-rule role-axis-tick" style="pointer-events: none;"><line transform="translate(0,600)" x2="-5" y2="0" style="fill: none; stroke: #888; stroke-width: 1; opacity: 1;"></line><line transform="translate(0,566)" x2="-5" y2="0" style="fill: none; stroke: #888; stroke-width: 1; opacity: 1;"></line><line transform="translate(0,531)" x2="-5" y2="0" style="fill: none; stroke: #888; stroke-width: 1; opacity: 1;"></line><line transform="translate(0,497)" x2="-5" y2="0" style="fill: none; stroke: #888; stroke-width: 1; opacity: 1;"></line><line transform="translate(0,463)" x2="-5" y2="0" style="fill: none; stroke: #888; stroke-width: 1; opacity: 1;"></line><line transform="translate(0,429)" x2="-5" y2="0" style="fill: none; stroke: #888; stroke-width: 1; opacity: 1;"></line><line transform="translate(0,394)" x2="-5" y2="0" style="fill: none; stroke: #888; stroke-width: 1; opacity: 1;"></line><line transform="translate(0,360)" x2="-5" y2="0" style="fill: none; stroke: #888; stroke-width: 1; opacity: 1;"></line><line transform="translate(0,326)" x2="-5" y2="0" style="fill: none; stroke: #888; stroke-width: 1; opacity: 1;"></line><line transform="translate(0,291)" x2="-5" y2="0" style="fill: none; stroke: #888; stroke-width: 1; opacity: 1;"></line><line transform="translate(0,257)" x2="-5" y2="0" style="fill: none; stroke: #888; stroke-width: 1; opacity: 1;"></line><line transform="translate(0,223)" x2="-5" y2="0" style="fill: none; stroke: #888; stroke-width: 1; opacity: 1;"></line><line transform="translate(0,189)" x2="-5" y2="0" style="fill: none; stroke: #888; stroke-width: 1; opacity: 1;"></line><line transform="translate(0,154)" x2="-5" y2="0" style="fill: none; stroke: #888; stroke-width: 1; opacity: 1;"></line><line transform="translate(0,120)" x2="-5" y2="0" style="fill: none; stroke: #888; stroke-width: 1; opacity: 1;"></line><line transform="translate(0,86)" x2="-5" y2="0" style="fill: none; stroke: #888; stroke-width: 1; opacity: 1;"></line><line transform="translate(0,51)" x2="-5" y2="0" style="fill: none; stroke: #888; stroke-width: 1; opacity: 1;"></line><line transform="translate(0,17)" x2="-5" y2="0" style="fill: none; stroke: #888; stroke-width: 1; opacity: 1;"></line></g><g class="mark-text role-axis-label" style="pointer-events: none;"><text text-anchor="end" transform="translate(-7,603)" style="font-family: sans-serif; font-size: 10px; fill: #000; opacity: 1;">0</text><text text-anchor="end" transform="translate(-7,568.7142857142857)" style="font-family: sans-serif; font-size: 10px; fill: #000; opacity: 1;">20</text><text text-anchor="end" transform="translate(-7,534.4285714285714)" style="font-family: sans-serif; font-size: 10px; fill: #000; opacity: 1;">40</text><text text-anchor="end" transform="translate(-7,500.1428571428571)" style="font-family: sans-serif; font-size: 10px; fill: #000; opacity: 1;">60</text><text text-anchor="end" transform="translate(-7,465.8571428571429)" style="font-family: sans-serif; font-size: 10px; fill: #000; opacity: 1;">80</text><text text-anchor="end" transform="translate(-7,431.57142857142856)" style="font-family: sans-serif; font-size: 10px; fill: #000; opacity: 1;">100</text><text text-anchor="end" transform="translate(-7,397.2857142857143)" style="font-family: sans-serif; font-size: 10px; fill: #000; opacity: 1;">120</text><text text-anchor="end" transform="translate(-7,363)" style="font-family: sans-serif; font-size: 10px; fill: #000; opacity: 1;">140</text><text text-anchor="end" transform="translate(-7,328.7142857142858)" style="font-family: sans-serif; font-size: 10px; fill: #000; opacity: 1;">160</text><text text-anchor="end" transform="translate(-7,294.42857142857144)" style="font-family: sans-serif; font-size: 10px; fill: #000; opacity: 1;">180</text><text text-anchor="end" transform="translate(-7,260.14285714285717)" style="font-family: sans-serif; font-size: 10px; fill: #000; opacity: 1;">200</text><text text-anchor="end" transform="translate(-7,225.85714285714286)" style="font-family: sans-serif; font-size: 10px; fill: #000; opacity: 1;">220</text><text text-anchor="end" transform="translate(-7,191.57142857142856)" style="font-family: sans-serif; font-size: 10px; fill: #000; opacity: 1;">240</text><text text-anchor="end" transform="translate(-7,157.28571428571428)" style="font-family: sans-serif; font-size: 10px; fill: #000; opacity: 1;">260</text><text text-anchor="end" transform="translate(-7,122.99999999999997)" style="font-family: sans-serif; font-size: 10px; fill: #000; opacity: 1;">280</text><text text-anchor="end" transform="translate(-7,88.71428571428574)" style="font-family: sans-serif; font-size: 10px; fill: #000; opacity: 1;">300</text><text text-anchor="end" transform="translate(-7,54.428571428571445)" style="font-family: sans-serif; font-size: 10px; fill: #000; opacity: 1;">320</text><text text-anchor="end" transform="translate(-7,20.14285714285715)" style="font-family: sans-serif; font-size: 10px; fill: #000; opacity: 1;">340</text></g><g class="mark-rule role-axis-domain" style="pointer-events: none;"><line transform="translate(0,600)" x2="0" y2="-600" style="fill: none; stroke: #888; stroke-width: 1; opacity: 1;"></line></g><g class="mark-text role-axis-title" style="pointer-events: none;"><text text-anchor="middle" transform="translate(-29,300) rotate(-90) translate(0,-2)" style="font-family: sans-serif; font-size: 11px; font-weight: bold; fill: #000; opacity: 1;">y</text></g></g><path class="foreground" d="" style="pointer-events: none; display: none; fill: none;"></path></g></g><g class="mark-group role-scope layer_0_pathgroup"><g transform="translate(0,0)"><path class="background" d="M0,0h600v600h-600Z" style="fill: none;"></path><g><g class="mark-line role-mark layer_0_marks"><path d="M0,600L27.272727272727273,598.2857142857142L54.54545454545455,598.2857142857142L81.81818181818181,598.2857142857142L109.0909090909091,586.2857142857142L136.36363636363635,584.5714285714286L163.63636363636363,581.1428571428571L190.9090909090909,572.5714285714286L218.1818181818182,562.2857142857143L245.45454545454547,558.8571428571428L272.7272727272727,553.7142857142857L300,536.5714285714286L327.27272727272725,512.5714285714286L354.54545454545456,493.7142857142857L381.8181818181818,481.7142857142857L409.09090909090907,476.57142857142856L436.3636363636364,462.8571428571429L463.6363636363636,426.85714285714283L490.90909090909093,413.14285714285717L518.1818181818182,402.8571428571429L545.4545454545454,395.99999999999994L572.7272727272727,382.2857142857143L600,353.1428571428571" style="fill: none; stroke: #1f77b4; stroke-width: 2;"></path></g></g><path class="foreground" d="" style="display: none; fill: none;"></path></g><g transform="translate(0,0)"><path class="background" d="M0,0h600v600h-600Z" style="fill: none;"></path><g><g class="mark-line role-mark layer_0_marks"><path d="M0,600L27.272727272727273,598.2857142857142L54.54545454545455,600L81.81818181818181,600L109.0909090909091,588L136.36363636363635,598.2857142857142L163.63636363636363,596.5714285714286L190.9090909090909,591.4285714285714L218.1818181818182,589.7142857142858L245.45454545454547,596.5714285714286L272.7272727272727,594.8571428571429L300,582.8571428571429L327.27272727272725,576L354.54545454545456,581.1428571428571L381.8181818181818,588L409.09090909090907,594.8571428571429L436.3636363636364,586.2857142857142L463.6363636363636,564L490.90909090909093,586.2857142857142L518.1818181818182,589.7142857142858L545.4545454545454,593.1428571428571L572.7272727272727,586.2857142857142L600,570.8571428571429" style="fill: none; stroke: #ffbb78; stroke-width: 2;"></path></g></g><path class="foreground" d="" style="display: none; fill: none;"></path></g><g transform="translate(0,0)"><path class="background" d="M0,0h600v600h-600Z" style="fill: none;"></path><g><g class="mark-line role-mark layer_0_marks"><path d="M0,596.5714285714286L27.272727272727273,598.2857142857142L54.54545454545455,564L81.81818181818181,550.2857142857143L109.0909090909091,469.7142857142858L136.36363636363635,462.8571428571429L163.63636363636363,432L190.9090909090909,433.7142857142857L218.1818181818182,401.14285714285717L245.45454545454547,377.1428571428571L272.7272727272727,365.1428571428571L300,392.5714285714286L327.27272727272725,318.85714285714283L354.54545454545456,298.2857142857143L381.8181818181818,265.7142857142857L409.09090909090907,233.14285714285714L436.3636363636364,195.42857142857144L463.6363636363636,221.14285714285714L490.90909090909093,190.2857142857143L518.1818181818182,181.7142857142857L545.4545454545454,267.42857142857144L572.7272727272727,198.85714285714283L600,181.7142857142857" style="fill: none; stroke: #98df8a; stroke-width: 2;"></path></g></g><path class="foreground" d="" style="display: none; fill: none;"></path></g><g transform="translate(0,0)"><path class="background" d="M0,0h600v600h-600Z" style="fill: none;"></path><g><g class="mark-line role-mark layer_0_marks"><path d="M0,600L27.272727272727273,598.2857142857142L54.54545454545455,598.2857142857142L81.81818181818181,598.2857142857142L109.0909090909091,586.2857142857142L136.36363636363635,586.2857142857142L163.63636363636363,582.8571428571429L190.9090909090909,574.2857142857143L218.1818181818182,564L245.45454545454547,560.5714285714286L272.7272727272727,555.4285714285714L300,538.2857142857143L327.27272727272725,516L354.54545454545456,497.1428571428571L381.8181818181818,486.85714285714283L409.09090909090907,485.14285714285717L436.3636363636364,474.85714285714283L463.6363636363636,442.2857142857143L490.90909090909093,432L518.1818181818182,425.14285714285717L545.4545454545454,421.7142857142857L572.7272727272727,413.14285714285717L600,384" style="fill: none; stroke: #2ca02c; stroke-width: 2;"></path></g></g><path class="foreground" d="" style="display: none; fill: none;"></path></g><g transform="translate(0,0)"><path class="background" d="M0,0h600v600h-600Z" style="fill: none;"></path><g><g class="mark-line role-mark layer_0_marks"><path d="M0,600L27.272727272727273,600L54.54545454545455,600L81.81818181818181,600L109.0909090909091,600L136.36363636363635,598.2857142857142L163.63636363636363,598.2857142857142L190.9090909090909,598.2857142857142L218.1818181818182,598.2857142857142L245.45454545454547,598.2857142857142L272.7272727272727,598.2857142857142L300,598.2857142857142L327.27272727272725,596.5714285714286L354.54545454545456,596.5714285714286L381.8181818181818,594.8571428571429L409.09090909090907,591.4285714285714L436.3636363636364,591.4285714285714L463.6363636363636,591.4285714285714L490.90909090909093,588L518.1818181818182,584.5714285714286L545.4545454545454,581.1428571428571L572.7272727272727,576L600,576" style="fill: none; stroke: #aec7e8; stroke-width: 2;"></path></g></g><path class="foreground" d="" style="display: none; fill: none;"></path></g><g transform="translate(0,0)"><path class="background" d="M0,0h600v600h-600Z" style="fill: none;"></path><g><g class="mark-line role-mark layer_0_marks"><path d="M0,600L27.272727272727273,600L54.54545454545455,600L81.81818181818181,600L109.0909090909091,600L136.36363636363635,600L163.63636363636363,584.5714285714286L190.9090909090909,582.8571428571429L218.1818181818182,574.2857142857143L245.45454545454547,522.8571428571429L272.7272727272727,486.85714285714283L300,425.14285714285717L327.27272727272725,425.14285714285717L354.54545454545456,395.99999999999994L381.8181818181818,356.57142857142856L409.09090909090907,330.85714285714283L436.3636363636364,265.7142857142857L463.6363636363636,207.42857142857144L490.90909090909093,205.71428571428572L518.1818181818182,181.7142857142857L545.4545454545454,47.99999999999998L572.7272727272727,17.14285714285715L600,6.857142857142873" style="fill: none; stroke: #d62728; stroke-width: 2;"></path></g></g><path class="foreground" d="" style="display: none; fill: none;"></path></g><g transform="translate(0,0)"><path class="background" d="M0,0h600v600h-600Z" style="fill: none;"></path><g><g class="mark-line role-mark layer_0_marks"><path d="M0,600L27.272727272727273,600L54.54545454545455,600L81.81818181818181,600L109.0909090909091,600L136.36363636363635,600L163.63636363636363,600L190.9090909090909,600L218.1818181818182,600L245.45454545454547,600L272.7272727272727,600L300,600L327.27272727272725,600L354.54545454545456,600L381.8181818181818,600L409.09090909090907,600L436.3636363636364,596.5714285714286L463.6363636363636,593.1428571428571L490.90909090909093,593.1428571428571L518.1818181818182,593.1428571428571L545.4545454545454,593.1428571428571L572.7272727272727,593.1428571428571L600,593.1428571428571" style="fill: none; stroke: #ff7f0e; stroke-width: 2;"></path></g></g><path class="foreground" d="" style="display: none; fill: none;"></path></g><g transform="translate(0,0)"><path class="background" d="M0,0h600v600h-600Z" style="fill: none;"></path><g><g class="mark-line role-mark layer_0_marks"><path d="M81.81818181818181,567.4285714285714L109.0909090909091,557.1428571428571L136.36363636363635,550.2857142857143L163.63636363636363,536.5714285714286L190.9090909090909,526.2857142857142L218.1818181818182,521.1428571428571L245.45454545454547,514.2857142857143L272.7272727272727,502.28571428571433L300,468L327.27272727272725,442.2857142857143L354.54545454545456,409.7142857142857L381.8181818181818,382.2857142857143L409.09090909090907,361.7142857142857L463.6363636363636,260.57142857142856" style="fill: none; stroke: #ff9896; stroke-width: 2;"></path></g></g><path class="foreground" d="" style="display: none; fill: none;"></path></g></g><g class="mark-symbol role-mark layer_1_marks"><path transform="translate(0,600)" d="M2.7386127875258306,0A2.7386127875258306,2.7386127875258306,0,1,1,-2.7386127875258306,0A2.7386127875258306,2.7386127875258306,0,1,1,2.7386127875258306,0" style="fill: white; stroke: #1f77b4; stroke-width: 2; opacity: 1;"></path><path transform="translate(0,600)" d="M2.7386127875258306,0A2.7386127875258306,2.7386127875258306,0,1,1,-2.7386127875258306,0A2.7386127875258306,2.7386127875258306,0,1,1,2.7386127875258306,0" style="fill: white; stroke: #ffbb78; stroke-width: 2; opacity: 1;"></path><path transform="translate(0,596.5714285714286)" d="M2.7386127875258306,0A2.7386127875258306,2.7386127875258306,0,1,1,-2.7386127875258306,0A2.7386127875258306,2.7386127875258306,0,1,1,2.7386127875258306,0" style="fill: white; stroke: #98df8a; stroke-width: 2; opacity: 1;"></path><path transform="translate(0,600)" d="M2.7386127875258306,0A2.7386127875258306,2.7386127875258306,0,1,1,-2.7386127875258306,0A2.7386127875258306,2.7386127875258306,0,1,1,2.7386127875258306,0" style="fill: white; stroke: #2ca02c; stroke-width: 2; opacity: 1;"></path><path transform="translate(0,600)" d="M2.7386127875258306,0A2.7386127875258306,2.7386127875258306,0,1,1,-2.7386127875258306,0A2.7386127875258306,2.7386127875258306,0,1,1,2.7386127875258306,0" style="fill: white; stroke: #aec7e8; stroke-width: 2; opacity: 1;"></path><path transform="translate(0,600)" d="M2.7386127875258306,0A2.7386127875258306,2.7386127875258306,0,1,1,-2.7386127875258306,0A2.7386127875258306,2.7386127875258306,0,1,1,2.7386127875258306,0" style="fill: white; stroke: #d62728; stroke-width: 2; opacity: 1;"></path><path transform="translate(0,600)" d="M2.7386127875258306,0A2.7386127875258306,2.7386127875258306,0,1,1,-2.7386127875258306,0A2.7386127875258306,2.7386127875258306,0,1,1,2.7386127875258306,0" style="fill: white; stroke: #ff7f0e; stroke-width: 2; opacity: 1;"></path><path transform="translate(27.272727272727273,598.2857142857142)" d="M2.7386127875258306,0A2.7386127875258306,2.7386127875258306,0,1,1,-2.7386127875258306,0A2.7386127875258306,2.7386127875258306,0,1,1,2.7386127875258306,0" style="fill: white; stroke: #1f77b4; stroke-width: 2; opacity: 1;"></path><path transform="translate(27.272727272727273,598.2857142857142)" d="M2.7386127875258306,0A2.7386127875258306,2.7386127875258306,0,1,1,-2.7386127875258306,0A2.7386127875258306,2.7386127875258306,0,1,1,2.7386127875258306,0" style="fill: white; stroke: #ffbb78; stroke-width: 2; opacity: 1;"></path><path transform="translate(27.272727272727273,598.2857142857142)" d="M2.7386127875258306,0A2.7386127875258306,2.7386127875258306,0,1,1,-2.7386127875258306,0A2.7386127875258306,2.7386127875258306,0,1,1,2.7386127875258306,0" style="fill: white; stroke: #98df8a; stroke-width: 2; opacity: 1;"></path><path transform="translate(27.272727272727273,598.2857142857142)" d="M2.7386127875258306,0A2.7386127875258306,2.7386127875258306,0,1,1,-2.7386127875258306,0A2.7386127875258306,2.7386127875258306,0,1,1,2.7386127875258306,0" style="fill: white; stroke: #2ca02c; stroke-width: 2; opacity: 1;"></path><path transform="translate(27.272727272727273,600)" d="M2.7386127875258306,0A2.7386127875258306,2.7386127875258306,0,1,1,-2.7386127875258306,0A2.7386127875258306,2.7386127875258306,0,1,1,2.7386127875258306,0" style="fill: white; stroke: #aec7e8; stroke-width: 2; opacity: 1;"></path><path transform="translate(27.272727272727273,600)" d="M2.7386127875258306,0A2.7386127875258306,2.7386127875258306,0,1,1,-2.7386127875258306,0A2.7386127875258306,2.7386127875258306,0,1,1,2.7386127875258306,0" style="fill: white; stroke: #d62728; stroke-width: 2; opacity: 1;"></path><path transform="translate(27.272727272727273,600)" d="M2.7386127875258306,0A2.7386127875258306,2.7386127875258306,0,1,1,-2.7386127875258306,0A2.7386127875258306,2.7386127875258306,0,1,1,2.7386127875258306,0" style="fill: white; stroke: #ff7f0e; stroke-width: 2; opacity: 1;"></path><path transform="translate(54.54545454545455,598.2857142857142)" d="M2.7386127875258306,0A2.7386127875258306,2.7386127875258306,0,1,1,-2.7386127875258306,0A2.7386127875258306,2.7386127875258306,0,1,1,2.7386127875258306,0" style="fill: white; stroke: #1f77b4; stroke-width: 2; opacity: 1;"></path><path transform="translate(54.54545454545455,600)" d="M2.7386127875258306,0A2.7386127875258306,2.7386127875258306,0,1,1,-2.7386127875258306,0A2.7386127875258306,2.7386127875258306,0,1,1,2.7386127875258306,0" style="fill: white; stroke: #ffbb78; stroke-width: 2; opacity: 1;"></path><path transform="translate(54.54545454545455,564)" d="M2.7386127875258306,0A2.7386127875258306,2.7386127875258306,0,1,1,-2.7386127875258306,0A2.7386127875258306,2.7386127875258306,0,1,1,2.7386127875258306,0" style="fill: white; stroke: #98df8a; stroke-width: 2; opacity: 1;"></path><path transform="translate(54.54545454545455,598.2857142857142)" d="M2.7386127875258306,0A2.7386127875258306,2.7386127875258306,0,1,1,-2.7386127875258306,0A2.7386127875258306,2.7386127875258306,0,1,1,2.7386127875258306,0" style="fill: white; stroke: #2ca02c; stroke-width: 2; opacity: 1;"></path><path transform="translate(54.54545454545455,600)" d="M2.7386127875258306,0A2.7386127875258306,2.7386127875258306,0,1,1,-2.7386127875258306,0A2.7386127875258306,2.7386127875258306,0,1,1,2.7386127875258306,0" style="fill: white; stroke: #aec7e8; stroke-width: 2; opacity: 1;"></path><path transform="translate(54.54545454545455,600)" d="M2.7386127875258306,0A2.7386127875258306,2.7386127875258306,0,1,1,-2.7386127875258306,0A2.7386127875258306,2.7386127875258306,0,1,1,2.7386127875258306,0" style="fill: white; stroke: #d62728; stroke-width: 2; opacity: 1;"></path><path transform="translate(54.54545454545455,600)" d="M2.7386127875258306,0A2.7386127875258306,2.7386127875258306,0,1,1,-2.7386127875258306,0A2.7386127875258306,2.7386127875258306,0,1,1,2.7386127875258306,0" style="fill: white; stroke: #ff7f0e; stroke-width: 2; opacity: 1;"></path><path transform="translate(81.81818181818181,598.2857142857142)" d="M2.7386127875258306,0A2.7386127875258306,2.7386127875258306,0,1,1,-2.7386127875258306,0A2.7386127875258306,2.7386127875258306,0,1,1,2.7386127875258306,0" style="fill: white; stroke: #1f77b4; stroke-width: 2; opacity: 1;"></path><path transform="translate(81.81818181818181,600)" d="M2.7386127875258306,0A2.7386127875258306,2.7386127875258306,0,1,1,-2.7386127875258306,0A2.7386127875258306,2.7386127875258306,0,1,1,2.7386127875258306,0" style="fill: white; stroke: #ffbb78; stroke-width: 2; opacity: 1;"></path><path transform="translate(81.81818181818181,550.2857142857143)" d="M2.7386127875258306,0A2.7386127875258306,2.7386127875258306,0,1,1,-2.7386127875258306,0A2.7386127875258306,2.7386127875258306,0,1,1,2.7386127875258306,0" style="fill: white; stroke: #98df8a; stroke-width: 2; opacity: 1;"></path><path transform="translate(81.81818181818181,567.4285714285714)" d="M2.7386127875258306,0A2.7386127875258306,2.7386127875258306,0,1,1,-2.7386127875258306,0A2.7386127875258306,2.7386127875258306,0,1,1,2.7386127875258306,0" style="fill: white; stroke: #ff9896; stroke-width: 2; opacity: 1;"></path><path transform="translate(81.81818181818181,598.2857142857142)" d="M2.7386127875258306,0A2.7386127875258306,2.7386127875258306,0,1,1,-2.7386127875258306,0A2.7386127875258306,2.7386127875258306,0,1,1,2.7386127875258306,0" style="fill: white; stroke: #2ca02c; stroke-width: 2; opacity: 1;"></path><path transform="translate(81.81818181818181,600)" d="M2.7386127875258306,0A2.7386127875258306,2.7386127875258306,0,1,1,-2.7386127875258306,0A2.7386127875258306,2.7386127875258306,0,1,1,2.7386127875258306,0" style="fill: white; stroke: #aec7e8; stroke-width: 2; opacity: 1;"></path><path transform="translate(81.81818181818181,600)" d="M2.7386127875258306,0A2.7386127875258306,2.7386127875258306,0,1,1,-2.7386127875258306,0A2.7386127875258306,2.7386127875258306,0,1,1,2.7386127875258306,0" style="fill: white; stroke: #d62728; stroke-width: 2; opacity: 1;"></path><path transform="translate(81.81818181818181,600)" d="M2.7386127875258306,0A2.7386127875258306,2.7386127875258306,0,1,1,-2.7386127875258306,0A2.7386127875258306,2.7386127875258306,0,1,1,2.7386127875258306,0" style="fill: white; stroke: #ff7f0e; stroke-width: 2; opacity: 1;"></path><path transform="translate(109.0909090909091,586.2857142857142)" d="M2.7386127875258306,0A2.7386127875258306,2.7386127875258306,0,1,1,-2.7386127875258306,0A2.7386127875258306,2.7386127875258306,0,1,1,2.7386127875258306,0" style="fill: white; stroke: #1f77b4; stroke-width: 2; opacity: 1;"></path><path transform="translate(109.0909090909091,588)" d="M2.7386127875258306,0A2.7386127875258306,2.7386127875258306,0,1,1,-2.7386127875258306,0A2.7386127875258306,2.7386127875258306,0,1,1,2.7386127875258306,0" style="fill: white; stroke: #ffbb78; stroke-width: 2; opacity: 1;"></path><path transform="translate(109.0909090909091,469.7142857142858)" d="M2.7386127875258306,0A2.7386127875258306,2.7386127875258306,0,1,1,-2.7386127875258306,0A2.7386127875258306,2.7386127875258306,0,1,1,2.7386127875258306,0" style="fill: white; stroke: #98df8a; stroke-width: 2; opacity: 1;"></path><path transform="translate(109.0909090909091,557.1428571428571)" d="M2.7386127875258306,0A2.7386127875258306,2.7386127875258306,0,1,1,-2.7386127875258306,0A2.7386127875258306,2.7386127875258306,0,1,1,2.7386127875258306,0" style="fill: white; stroke: #ff9896; stroke-width: 2; opacity: 1;"></path><path transform="translate(109.0909090909091,586.2857142857142)" d="M2.7386127875258306,0A2.7386127875258306,2.7386127875258306,0,1,1,-2.7386127875258306,0A2.7386127875258306,2.7386127875258306,0,1,1,2.7386127875258306,0" style="fill: white; stroke: #2ca02c; stroke-width: 2; opacity: 1;"></path><path transform="translate(109.0909090909091,600)" d="M2.7386127875258306,0A2.7386127875258306,2.7386127875258306,0,1,1,-2.7386127875258306,0A2.7386127875258306,2.7386127875258306,0,1,1,2.7386127875258306,0" style="fill: white; stroke: #aec7e8; stroke-width: 2; opacity: 1;"></path><path transform="translate(109.0909090909091,600)" d="M2.7386127875258306,0A2.7386127875258306,2.7386127875258306,0,1,1,-2.7386127875258306,0A2.7386127875258306,2.7386127875258306,0,1,1,2.7386127875258306,0" style="fill: white; stroke: #d62728; stroke-width: 2; opacity: 1;"></path><path transform="translate(109.0909090909091,600)" d="M2.7386127875258306,0A2.7386127875258306,2.7386127875258306,0,1,1,-2.7386127875258306,0A2.7386127875258306,2.7386127875258306,0,1,1,2.7386127875258306,0" style="fill: white; stroke: #ff7f0e; stroke-width: 2; opacity: 1;"></path><path transform="translate(136.36363636363635,584.5714285714286)" d="M2.7386127875258306,0A2.7386127875258306,2.7386127875258306,0,1,1,-2.7386127875258306,0A2.7386127875258306,2.7386127875258306,0,1,1,2.7386127875258306,0" style="fill: white; stroke: #1f77b4; stroke-width: 2; opacity: 1;"></path><path transform="translate(136.36363636363635,598.2857142857142)" d="M2.7386127875258306,0A2.7386127875258306,2.7386127875258306,0,1,1,-2.7386127875258306,0A2.7386127875258306,2.7386127875258306,0,1,1,2.7386127875258306,0" style="fill: white; stroke: #ffbb78; stroke-width: 2; opacity: 1;"></path><path transform="translate(136.36363636363635,462.8571428571429)" d="M2.7386127875258306,0A2.7386127875258306,2.7386127875258306,0,1,1,-2.7386127875258306,0A2.7386127875258306,2.7386127875258306,0,1,1,2.7386127875258306,0" style="fill: white; stroke: #98df8a; stroke-width: 2; opacity: 1;"></path><path transform="translate(136.36363636363635,550.2857142857143)" d="M2.7386127875258306,0A2.7386127875258306,2.7386127875258306,0,1,1,-2.7386127875258306,0A2.7386127875258306,2.7386127875258306,0,1,1,2.7386127875258306,0" style="fill: white; stroke: #ff9896; stroke-width: 2; opacity: 1;"></path><path transform="translate(136.36363636363635,586.2857142857142)" d="M2.7386127875258306,0A2.7386127875258306,2.7386127875258306,0,1,1,-2.7386127875258306,0A2.7386127875258306,2.7386127875258306,0,1,1,2.7386127875258306,0" style="fill: white; stroke: #2ca02c; stroke-width: 2; opacity: 1;"></path><path transform="translate(136.36363636363635,598.2857142857142)" d="M2.7386127875258306,0A2.7386127875258306,2.7386127875258306,0,1,1,-2.7386127875258306,0A2.7386127875258306,2.7386127875258306,0,1,1,2.7386127875258306,0" style="fill: white; stroke: #aec7e8; stroke-width: 2; opacity: 1;"></path><path transform="translate(136.36363636363635,600)" d="M2.7386127875258306,0A2.7386127875258306,2.7386127875258306,0,1,1,-2.7386127875258306,0A2.7386127875258306,2.7386127875258306,0,1,1,2.7386127875258306,0" style="fill: white; stroke: #d62728; stroke-width: 2; opacity: 1;"></path><path transform="translate(136.36363636363635,600)" d="M2.7386127875258306,0A2.7386127875258306,2.7386127875258306,0,1,1,-2.7386127875258306,0A2.7386127875258306,2.7386127875258306,0,1,1,2.7386127875258306,0" style="fill: white; stroke: #ff7f0e; stroke-width: 2; opacity: 1;"></path><path transform="translate(163.63636363636363,581.1428571428571)" d="M2.7386127875258306,0A2.7386127875258306,2.7386127875258306,0,1,1,-2.7386127875258306,0A2.7386127875258306,2.7386127875258306,0,1,1,2.7386127875258306,0" style="fill: white; stroke: #1f77b4; stroke-width: 2; opacity: 1;"></path><path transform="translate(163.63636363636363,596.5714285714286)" d="M2.7386127875258306,0A2.7386127875258306,2.7386127875258306,0,1,1,-2.7386127875258306,0A2.7386127875258306,2.7386127875258306,0,1,1,2.7386127875258306,0" style="fill: white; stroke: #ffbb78; stroke-width: 2; opacity: 1;"></path><path transform="translate(163.63636363636363,432)" d="M2.7386127875258306,0A2.7386127875258306,2.7386127875258306,0,1,1,-2.7386127875258306,0A2.7386127875258306,2.7386127875258306,0,1,1,2.7386127875258306,0" style="fill: white; stroke: #98df8a; stroke-width: 2; opacity: 1;"></path><path transform="translate(163.63636363636363,536.5714285714286)" d="M2.7386127875258306,0A2.7386127875258306,2.7386127875258306,0,1,1,-2.7386127875258306,0A2.7386127875258306,2.7386127875258306,0,1,1,2.7386127875258306,0" style="fill: white; stroke: #ff9896; stroke-width: 2; opacity: 1;"></path><path transform="translate(163.63636363636363,582.8571428571429)" d="M2.7386127875258306,0A2.7386127875258306,2.7386127875258306,0,1,1,-2.7386127875258306,0A2.7386127875258306,2.7386127875258306,0,1,1,2.7386127875258306,0" style="fill: white; stroke: #2ca02c; stroke-width: 2; opacity: 1;"></path><path transform="translate(163.63636363636363,598.2857142857142)" d="M2.7386127875258306,0A2.7386127875258306,2.7386127875258306,0,1,1,-2.7386127875258306,0A2.7386127875258306,2.7386127875258306,0,1,1,2.7386127875258306,0" style="fill: white; stroke: #aec7e8; stroke-width: 2; opacity: 1;"></path><path transform="translate(163.63636363636363,584.5714285714286)" d="M2.7386127875258306,0A2.7386127875258306,2.7386127875258306,0,1,1,-2.7386127875258306,0A2.7386127875258306,2.7386127875258306,0,1,1,2.7386127875258306,0" style="fill: white; stroke: #d62728; stroke-width: 2; opacity: 1;"></path><path transform="translate(163.63636363636363,600)" d="M2.7386127875258306,0A2.7386127875258306,2.7386127875258306,0,1,1,-2.7386127875258306,0A2.7386127875258306,2.7386127875258306,0,1,1,2.7386127875258306,0" style="fill: white; stroke: #ff7f0e; stroke-width: 2; opacity: 1;"></path><path transform="translate(190.9090909090909,572.5714285714286)" d="M2.7386127875258306,0A2.7386127875258306,2.7386127875258306,0,1,1,-2.7386127875258306,0A2.7386127875258306,2.7386127875258306,0,1,1,2.7386127875258306,0" style="fill: white; stroke: #1f77b4; stroke-width: 2; opacity: 1;"></path><path transform="translate(190.9090909090909,591.4285714285714)" d="M2.7386127875258306,0A2.7386127875258306,2.7386127875258306,0,1,1,-2.7386127875258306,0A2.7386127875258306,2.7386127875258306,0,1,1,2.7386127875258306,0" style="fill: white; stroke: #ffbb78; stroke-width: 2; opacity: 1;"></path><path transform="translate(190.9090909090909,433.7142857142857)" d="M2.7386127875258306,0A2.7386127875258306,2.7386127875258306,0,1,1,-2.7386127875258306,0A2.7386127875258306,2.7386127875258306,0,1,1,2.7386127875258306,0" style="fill: white; stroke: #98df8a; stroke-width: 2; opacity: 1;"></path><path transform="translate(190.9090909090909,526.2857142857142)" d="M2.7386127875258306,0A2.7386127875258306,2.7386127875258306,0,1,1,-2.7386127875258306,0A2.7386127875258306,2.7386127875258306,0,1,1,2.7386127875258306,0" style="fill: white; stroke: #ff9896; stroke-width: 2; opacity: 1;"></path><path transform="translate(190.9090909090909,574.2857142857143)" d="M2.7386127875258306,0A2.7386127875258306,2.7386127875258306,0,1,1,-2.7386127875258306,0A2.7386127875258306,2.7386127875258306,0,1,1,2.7386127875258306,0" style="fill: white; stroke: #2ca02c; stroke-width: 2; opacity: 1;"></path><path transform="translate(190.9090909090909,598.2857142857142)" d="M2.7386127875258306,0A2.7386127875258306,2.7386127875258306,0,1,1,-2.7386127875258306,0A2.7386127875258306,2.7386127875258306,0,1,1,2.7386127875258306,0" style="fill: white; stroke: #aec7e8; stroke-width: 2; opacity: 1;"></path><path transform="translate(190.9090909090909,582.8571428571429)" d="M2.7386127875258306,0A2.7386127875258306,2.7386127875258306,0,1,1,-2.7386127875258306,0A2.7386127875258306,2.7386127875258306,0,1,1,2.7386127875258306,0" style="fill: white; stroke: #d62728; stroke-width: 2; opacity: 1;"></path><path transform="translate(190.9090909090909,600)" d="M2.7386127875258306,0A2.7386127875258306,2.7386127875258306,0,1,1,-2.7386127875258306,0A2.7386127875258306,2.7386127875258306,0,1,1,2.7386127875258306,0" style="fill: white; stroke: #ff7f0e; stroke-width: 2; opacity: 1;"></path><path transform="translate(218.1818181818182,562.2857142857143)" d="M2.7386127875258306,0A2.7386127875258306,2.7386127875258306,0,1,1,-2.7386127875258306,0A2.7386127875258306,2.7386127875258306,0,1,1,2.7386127875258306,0" style="fill: white; stroke: #1f77b4; stroke-width: 2; opacity: 1;"></path><path transform="translate(218.1818181818182,589.7142857142858)" d="M2.7386127875258306,0A2.7386127875258306,2.7386127875258306,0,1,1,-2.7386127875258306,0A2.7386127875258306,2.7386127875258306,0,1,1,2.7386127875258306,0" style="fill: white; stroke: #ffbb78; stroke-width: 2; opacity: 1;"></path><path transform="translate(218.1818181818182,401.14285714285717)" d="M2.7386127875258306,0A2.7386127875258306,2.7386127875258306,0,1,1,-2.7386127875258306,0A2.7386127875258306,2.7386127875258306,0,1,1,2.7386127875258306,0" style="fill: white; stroke: #98df8a; stroke-width: 2; opacity: 1;"></path><path transform="translate(218.1818181818182,521.1428571428571)" d="M2.7386127875258306,0A2.7386127875258306,2.7386127875258306,0,1,1,-2.7386127875258306,0A2.7386127875258306,2.7386127875258306,0,1,1,2.7386127875258306,0" style="fill: white; stroke: #ff9896; stroke-width: 2; opacity: 1;"></path><path transform="translate(218.1818181818182,564)" d="M2.7386127875258306,0A2.7386127875258306,2.7386127875258306,0,1,1,-2.7386127875258306,0A2.7386127875258306,2.7386127875258306,0,1,1,2.7386127875258306,0" style="fill: white; stroke: #2ca02c; stroke-width: 2; opacity: 1;"></path><path transform="translate(218.1818181818182,598.2857142857142)" d="M2.7386127875258306,0A2.7386127875258306,2.7386127875258306,0,1,1,-2.7386127875258306,0A2.7386127875258306,2.7386127875258306,0,1,1,2.7386127875258306,0" style="fill: white; stroke: #aec7e8; stroke-width: 2; opacity: 1;"></path><path transform="translate(218.1818181818182,574.2857142857143)" d="M2.7386127875258306,0A2.7386127875258306,2.7386127875258306,0,1,1,-2.7386127875258306,0A2.7386127875258306,2.7386127875258306,0,1,1,2.7386127875258306,0" style="fill: white; stroke: #d62728; stroke-width: 2; opacity: 1;"></path><path transform="translate(218.1818181818182,600)" d="M2.7386127875258306,0A2.7386127875258306,2.7386127875258306,0,1,1,-2.7386127875258306,0A2.7386127875258306,2.7386127875258306,0,1,1,2.7386127875258306,0" style="fill: white; stroke: #ff7f0e; stroke-width: 2; opacity: 1;"></path><path transform="translate(245.45454545454547,558.8571428571428)" d="M2.7386127875258306,0A2.7386127875258306,2.7386127875258306,0,1,1,-2.7386127875258306,0A2.7386127875258306,2.7386127875258306,0,1,1,2.7386127875258306,0" style="fill: white; stroke: #1f77b4; stroke-width: 2; opacity: 1;"></path><path transform="translate(245.45454545454547,596.5714285714286)" d="M2.7386127875258306,0A2.7386127875258306,2.7386127875258306,0,1,1,-2.7386127875258306,0A2.7386127875258306,2.7386127875258306,0,1,1,2.7386127875258306,0" style="fill: white; stroke: #ffbb78; stroke-width: 2; opacity: 1;"></path><path transform="translate(245.45454545454547,377.1428571428571)" d="M2.7386127875258306,0A2.7386127875258306,2.7386127875258306,0,1,1,-2.7386127875258306,0A2.7386127875258306,2.7386127875258306,0,1,1,2.7386127875258306,0" style="fill: white; stroke: #98df8a; stroke-width: 2; opacity: 1;"></path><path transform="translate(245.45454545454547,514.2857142857143)" d="M2.7386127875258306,0A2.7386127875258306,2.7386127875258306,0,1,1,-2.7386127875258306,0A2.7386127875258306,2.7386127875258306,0,1,1,2.7386127875258306,0" style="fill: white; stroke: #ff9896; stroke-width: 2; opacity: 1;"></path><path transform="translate(245.45454545454547,560.5714285714286)" d="M2.7386127875258306,0A2.7386127875258306,2.7386127875258306,0,1,1,-2.7386127875258306,0A2.7386127875258306,2.7386127875258306,0,1,1,2.7386127875258306,0" style="fill: white; stroke: #2ca02c; stroke-width: 2; opacity: 1;"></path><path transform="translate(245.45454545454547,598.2857142857142)" d="M2.7386127875258306,0A2.7386127875258306,2.7386127875258306,0,1,1,-2.7386127875258306,0A2.7386127875258306,2.7386127875258306,0,1,1,2.7386127875258306,0" style="fill: white; stroke: #aec7e8; stroke-width: 2; opacity: 1;"></path><path transform="translate(245.45454545454547,522.8571428571429)" d="M2.7386127875258306,0A2.7386127875258306,2.7386127875258306,0,1,1,-2.7386127875258306,0A2.7386127875258306,2.7386127875258306,0,1,1,2.7386127875258306,0" style="fill: white; stroke: #d62728; stroke-width: 2; opacity: 1;"></path><path transform="translate(245.45454545454547,600)" d="M2.7386127875258306,0A2.7386127875258306,2.7386127875258306,0,1,1,-2.7386127875258306,0A2.7386127875258306,2.7386127875258306,0,1,1,2.7386127875258306,0" style="fill: white; stroke: #ff7f0e; stroke-width: 2; opacity: 1;"></path><path transform="translate(272.7272727272727,553.7142857142857)" d="M2.7386127875258306,0A2.7386127875258306,2.7386127875258306,0,1,1,-2.7386127875258306,0A2.7386127875258306,2.7386127875258306,0,1,1,2.7386127875258306,0" style="fill: white; stroke: #1f77b4; stroke-width: 2; opacity: 1;"></path><path transform="translate(272.7272727272727,594.8571428571429)" d="M2.7386127875258306,0A2.7386127875258306,2.7386127875258306,0,1,1,-2.7386127875258306,0A2.7386127875258306,2.7386127875258306,0,1,1,2.7386127875258306,0" style="fill: white; stroke: #ffbb78; stroke-width: 2; opacity: 1;"></path><path transform="translate(272.7272727272727,365.1428571428571)" d="M2.7386127875258306,0A2.7386127875258306,2.7386127875258306,0,1,1,-2.7386127875258306,0A2.7386127875258306,2.7386127875258306,0,1,1,2.7386127875258306,0" style="fill: white; stroke: #98df8a; stroke-width: 2; opacity: 1;"></path><path transform="translate(272.7272727272727,502.28571428571433)" d="M2.7386127875258306,0A2.7386127875258306,2.7386127875258306,0,1,1,-2.7386127875258306,0A2.7386127875258306,2.7386127875258306,0,1,1,2.7386127875258306,0" style="fill: white; stroke: #ff9896; stroke-width: 2; opacity: 1;"></path><path transform="translate(272.7272727272727,555.4285714285714)" d="M2.7386127875258306,0A2.7386127875258306,2.7386127875258306,0,1,1,-2.7386127875258306,0A2.7386127875258306,2.7386127875258306,0,1,1,2.7386127875258306,0" style="fill: white; stroke: #2ca02c; stroke-width: 2; opacity: 1;"></path><path transform="translate(272.7272727272727,598.2857142857142)" d="M2.7386127875258306,0A2.7386127875258306,2.7386127875258306,0,1,1,-2.7386127875258306,0A2.7386127875258306,2.7386127875258306,0,1,1,2.7386127875258306,0" style="fill: white; stroke: #aec7e8; stroke-width: 2; opacity: 1;"></path><path transform="translate(272.7272727272727,486.85714285714283)" d="M2.7386127875258306,0A2.7386127875258306,2.7386127875258306,0,1,1,-2.7386127875258306,0A2.7386127875258306,2.7386127875258306,0,1,1,2.7386127875258306,0" style="fill: white; stroke: #d62728; stroke-width: 2; opacity: 1;"></path><path transform="translate(272.7272727272727,600)" d="M2.7386127875258306,0A2.7386127875258306,2.7386127875258306,0,1,1,-2.7386127875258306,0A2.7386127875258306,2.7386127875258306,0,1,1,2.7386127875258306,0" style="fill: white; stroke: #ff7f0e; stroke-width: 2; opacity: 1;"></path><path transform="translate(300,536.5714285714286)" d="M2.7386127875258306,0A2.7386127875258306,2.7386127875258306,0,1,1,-2.7386127875258306,0A2.7386127875258306,2.7386127875258306,0,1,1,2.7386127875258306,0" style="fill: white; stroke: #1f77b4; stroke-width: 2; opacity: 1;"></path><path transform="translate(300,582.8571428571429)" d="M2.7386127875258306,0A2.7386127875258306,2.7386127875258306,0,1,1,-2.7386127875258306,0A2.7386127875258306,2.7386127875258306,0,1,1,2.7386127875258306,0" style="fill: white; stroke: #ffbb78; stroke-width: 2; opacity: 1;"></path><path transform="translate(300,392.5714285714286)" d="M2.7386127875258306,0A2.7386127875258306,2.7386127875258306,0,1,1,-2.7386127875258306,0A2.7386127875258306,2.7386127875258306,0,1,1,2.7386127875258306,0" style="fill: white; stroke: #98df8a; stroke-width: 2; opacity: 1;"></path><path transform="translate(300,468)" d="M2.7386127875258306,0A2.7386127875258306,2.7386127875258306,0,1,1,-2.7386127875258306,0A2.7386127875258306,2.7386127875258306,0,1,1,2.7386127875258306,0" style="fill: white; stroke: #ff9896; stroke-width: 2; opacity: 1;"></path><path transform="translate(300,538.2857142857143)" d="M2.7386127875258306,0A2.7386127875258306,2.7386127875258306,0,1,1,-2.7386127875258306,0A2.7386127875258306,2.7386127875258306,0,1,1,2.7386127875258306,0" style="fill: white; stroke: #2ca02c; stroke-width: 2; opacity: 1;"></path><path transform="translate(300,598.2857142857142)" d="M2.7386127875258306,0A2.7386127875258306,2.7386127875258306,0,1,1,-2.7386127875258306,0A2.7386127875258306,2.7386127875258306,0,1,1,2.7386127875258306,0" style="fill: white; stroke: #aec7e8; stroke-width: 2; opacity: 1;"></path><path transform="translate(300,425.14285714285717)" d="M2.7386127875258306,0A2.7386127875258306,2.7386127875258306,0,1,1,-2.7386127875258306,0A2.7386127875258306,2.7386127875258306,0,1,1,2.7386127875258306,0" style="fill: white; stroke: #d62728; stroke-width: 2; opacity: 1;"></path><path transform="translate(300,600)" d="M2.7386127875258306,0A2.7386127875258306,2.7386127875258306,0,1,1,-2.7386127875258306,0A2.7386127875258306,2.7386127875258306,0,1,1,2.7386127875258306,0" style="fill: white; stroke: #ff7f0e; stroke-width: 2; opacity: 1;"></path><path transform="translate(327.27272727272725,512.5714285714286)" d="M2.7386127875258306,0A2.7386127875258306,2.7386127875258306,0,1,1,-2.7386127875258306,0A2.7386127875258306,2.7386127875258306,0,1,1,2.7386127875258306,0" style="fill: white; stroke: #1f77b4; stroke-width: 2; opacity: 1;"></path><path transform="translate(327.27272727272725,576)" d="M2.7386127875258306,0A2.7386127875258306,2.7386127875258306,0,1,1,-2.7386127875258306,0A2.7386127875258306,2.7386127875258306,0,1,1,2.7386127875258306,0" style="fill: white; stroke: #ffbb78; stroke-width: 2; opacity: 1;"></path><path transform="translate(327.27272727272725,318.85714285714283)" d="M2.7386127875258306,0A2.7386127875258306,2.7386127875258306,0,1,1,-2.7386127875258306,0A2.7386127875258306,2.7386127875258306,0,1,1,2.7386127875258306,0" style="fill: white; stroke: #98df8a; stroke-width: 2; opacity: 1;"></path><path transform="translate(327.27272727272725,442.2857142857143)" d="M2.7386127875258306,0A2.7386127875258306,2.7386127875258306,0,1,1,-2.7386127875258306,0A2.7386127875258306,2.7386127875258306,0,1,1,2.7386127875258306,0" style="fill: white; stroke: #ff9896; stroke-width: 2; opacity: 1;"></path><path transform="translate(327.27272727272725,516)" d="M2.7386127875258306,0A2.7386127875258306,2.7386127875258306,0,1,1,-2.7386127875258306,0A2.7386127875258306,2.7386127875258306,0,1,1,2.7386127875258306,0" style="fill: white; stroke: #2ca02c; stroke-width: 2; opacity: 1;"></path><path transform="translate(327.27272727272725,596.5714285714286)" d="M2.7386127875258306,0A2.7386127875258306,2.7386127875258306,0,1,1,-2.7386127875258306,0A2.7386127875258306,2.7386127875258306,0,1,1,2.7386127875258306,0" style="fill: white; stroke: #aec7e8; stroke-width: 2; opacity: 1;"></path><path transform="translate(327.27272727272725,425.14285714285717)" d="M2.7386127875258306,0A2.7386127875258306,2.7386127875258306,0,1,1,-2.7386127875258306,0A2.7386127875258306,2.7386127875258306,0,1,1,2.7386127875258306,0" style="fill: white; stroke: #d62728; stroke-width: 2; opacity: 1;"></path><path transform="translate(327.27272727272725,600)" d="M2.7386127875258306,0A2.7386127875258306,2.7386127875258306,0,1,1,-2.7386127875258306,0A2.7386127875258306,2.7386127875258306,0,1,1,2.7386127875258306,0" style="fill: white; stroke: #ff7f0e; stroke-width: 2; opacity: 1;"></path><path transform="translate(354.54545454545456,493.7142857142857)" d="M2.7386127875258306,0A2.7386127875258306,2.7386127875258306,0,1,1,-2.7386127875258306,0A2.7386127875258306,2.7386127875258306,0,1,1,2.7386127875258306,0" style="fill: white; stroke: #1f77b4; stroke-width: 2; opacity: 1;"></path><path transform="translate(354.54545454545456,581.1428571428571)" d="M2.7386127875258306,0A2.7386127875258306,2.7386127875258306,0,1,1,-2.7386127875258306,0A2.7386127875258306,2.7386127875258306,0,1,1,2.7386127875258306,0" style="fill: white; stroke: #ffbb78; stroke-width: 2; opacity: 1;"></path><path transform="translate(354.54545454545456,298.2857142857143)" d="M2.7386127875258306,0A2.7386127875258306,2.7386127875258306,0,1,1,-2.7386127875258306,0A2.7386127875258306,2.7386127875258306,0,1,1,2.7386127875258306,0" style="fill: white; stroke: #98df8a; stroke-width: 2; opacity: 1;"></path><path transform="translate(354.54545454545456,409.7142857142857)" d="M2.7386127875258306,0A2.7386127875258306,2.7386127875258306,0,1,1,-2.7386127875258306,0A2.7386127875258306,2.7386127875258306,0,1,1,2.7386127875258306,0" style="fill: white; stroke: #ff9896; stroke-width: 2; opacity: 1;"></path><path transform="translate(354.54545454545456,497.1428571428571)" d="M2.7386127875258306,0A2.7386127875258306,2.7386127875258306,0,1,1,-2.7386127875258306,0A2.7386127875258306,2.7386127875258306,0,1,1,2.7386127875258306,0" style="fill: white; stroke: #2ca02c; stroke-width: 2; opacity: 1;"></path><path transform="translate(354.54545454545456,596.5714285714286)" d="M2.7386127875258306,0A2.7386127875258306,2.7386127875258306,0,1,1,-2.7386127875258306,0A2.7386127875258306,2.7386127875258306,0,1,1,2.7386127875258306,0" style="fill: white; stroke: #aec7e8; stroke-width: 2; opacity: 1;"></path><path transform="translate(354.54545454545456,395.99999999999994)" d="M2.7386127875258306,0A2.7386127875258306,2.7386127875258306,0,1,1,-2.7386127875258306,0A2.7386127875258306,2.7386127875258306,0,1,1,2.7386127875258306,0" style="fill: white; stroke: #d62728; stroke-width: 2; opacity: 1;"></path><path transform="translate(354.54545454545456,600)" d="M2.7386127875258306,0A2.7386127875258306,2.7386127875258306,0,1,1,-2.7386127875258306,0A2.7386127875258306,2.7386127875258306,0,1,1,2.7386127875258306,0" style="fill: white; stroke: #ff7f0e; stroke-width: 2; opacity: 1;"></path><path transform="translate(381.8181818181818,481.7142857142857)" d="M2.7386127875258306,0A2.7386127875258306,2.7386127875258306,0,1,1,-2.7386127875258306,0A2.7386127875258306,2.7386127875258306,0,1,1,2.7386127875258306,0" style="fill: white; stroke: #1f77b4; stroke-width: 2; opacity: 1;"></path><path transform="translate(381.8181818181818,588)" d="M2.7386127875258306,0A2.7386127875258306,2.7386127875258306,0,1,1,-2.7386127875258306,0A2.7386127875258306,2.7386127875258306,0,1,1,2.7386127875258306,0" style="fill: white; stroke: #ffbb78; stroke-width: 2; opacity: 1;"></path><path transform="translate(381.8181818181818,265.7142857142857)" d="M2.7386127875258306,0A2.7386127875258306,2.7386127875258306,0,1,1,-2.7386127875258306,0A2.7386127875258306,2.7386127875258306,0,1,1,2.7386127875258306,0" style="fill: white; stroke: #98df8a; stroke-width: 2; opacity: 1;"></path><path transform="translate(381.8181818181818,382.2857142857143)" d="M2.7386127875258306,0A2.7386127875258306,2.7386127875258306,0,1,1,-2.7386127875258306,0A2.7386127875258306,2.7386127875258306,0,1,1,2.7386127875258306,0" style="fill: white; stroke: #ff9896; stroke-width: 2; opacity: 1;"></path><path transform="translate(381.8181818181818,486.85714285714283)" d="M2.7386127875258306,0A2.7386127875258306,2.7386127875258306,0,1,1,-2.7386127875258306,0A2.7386127875258306,2.7386127875258306,0,1,1,2.7386127875258306,0" style="fill: white; stroke: #2ca02c; stroke-width: 2; opacity: 1;"></path><path transform="translate(381.8181818181818,594.8571428571429)" d="M2.7386127875258306,0A2.7386127875258306,2.7386127875258306,0,1,1,-2.7386127875258306,0A2.7386127875258306,2.7386127875258306,0,1,1,2.7386127875258306,0" style="fill: white; stroke: #aec7e8; stroke-width: 2; opacity: 1;"></path><path transform="translate(381.8181818181818,356.57142857142856)" d="M2.7386127875258306,0A2.7386127875258306,2.7386127875258306,0,1,1,-2.7386127875258306,0A2.7386127875258306,2.7386127875258306,0,1,1,2.7386127875258306,0" style="fill: white; stroke: #d62728; stroke-width: 2; opacity: 1;"></path><path transform="translate(381.8181818181818,600)" d="M2.7386127875258306,0A2.7386127875258306,2.7386127875258306,0,1,1,-2.7386127875258306,0A2.7386127875258306,2.7386127875258306,0,1,1,2.7386127875258306,0" style="fill: white; stroke: #ff7f0e; stroke-width: 2; opacity: 1;"></path><path transform="translate(409.09090909090907,476.57142857142856)" d="M2.7386127875258306,0A2.7386127875258306,2.7386127875258306,0,1,1,-2.7386127875258306,0A2.7386127875258306,2.7386127875258306,0,1,1,2.7386127875258306,0" style="fill: white; stroke: #1f77b4; stroke-width: 2; opacity: 1;"></path><path transform="translate(409.09090909090907,594.8571428571429)" d="M2.7386127875258306,0A2.7386127875258306,2.7386127875258306,0,1,1,-2.7386127875258306,0A2.7386127875258306,2.7386127875258306,0,1,1,2.7386127875258306,0" style="fill: white; stroke: #ffbb78; stroke-width: 2; opacity: 1;"></path><path transform="translate(409.09090909090907,233.14285714285714)" d="M2.7386127875258306,0A2.7386127875258306,2.7386127875258306,0,1,1,-2.7386127875258306,0A2.7386127875258306,2.7386127875258306,0,1,1,2.7386127875258306,0" style="fill: white; stroke: #98df8a; stroke-width: 2; opacity: 1;"></path><path transform="translate(409.09090909090907,361.7142857142857)" d="M2.7386127875258306,0A2.7386127875258306,2.7386127875258306,0,1,1,-2.7386127875258306,0A2.7386127875258306,2.7386127875258306,0,1,1,2.7386127875258306,0" style="fill: white; stroke: #ff9896; stroke-width: 2; opacity: 1;"></path><path transform="translate(409.09090909090907,485.14285714285717)" d="M2.7386127875258306,0A2.7386127875258306,2.7386127875258306,0,1,1,-2.7386127875258306,0A2.7386127875258306,2.7386127875258306,0,1,1,2.7386127875258306,0" style="fill: white; stroke: #2ca02c; stroke-width: 2; opacity: 1;"></path><path transform="translate(409.09090909090907,591.4285714285714)" d="M2.7386127875258306,0A2.7386127875258306,2.7386127875258306,0,1,1,-2.7386127875258306,0A2.7386127875258306,2.7386127875258306,0,1,1,2.7386127875258306,0" style="fill: white; stroke: #aec7e8; stroke-width: 2; opacity: 1;"></path><path transform="translate(409.09090909090907,330.85714285714283)" d="M2.7386127875258306,0A2.7386127875258306,2.7386127875258306,0,1,1,-2.7386127875258306,0A2.7386127875258306,2.7386127875258306,0,1,1,2.7386127875258306,0" style="fill: white; stroke: #d62728; stroke-width: 2; opacity: 1;"></path><path transform="translate(409.09090909090907,600)" d="M2.7386127875258306,0A2.7386127875258306,2.7386127875258306,0,1,1,-2.7386127875258306,0A2.7386127875258306,2.7386127875258306,0,1,1,2.7386127875258306,0" style="fill: white; stroke: #ff7f0e; stroke-width: 2; opacity: 1;"></path><path transform="translate(436.3636363636364,462.8571428571429)" d="M2.7386127875258306,0A2.7386127875258306,2.7386127875258306,0,1,1,-2.7386127875258306,0A2.7386127875258306,2.7386127875258306,0,1,1,2.7386127875258306,0" style="fill: white; stroke: #1f77b4; stroke-width: 2; opacity: 1;"></path><path transform="translate(436.3636363636364,586.2857142857142)" d="M2.7386127875258306,0A2.7386127875258306,2.7386127875258306,0,1,1,-2.7386127875258306,0A2.7386127875258306,2.7386127875258306,0,1,1,2.7386127875258306,0" style="fill: white; stroke: #ffbb78; stroke-width: 2; opacity: 1;"></path><path transform="translate(436.3636363636364,195.42857142857144)" d="M2.7386127875258306,0A2.7386127875258306,2.7386127875258306,0,1,1,-2.7386127875258306,0A2.7386127875258306,2.7386127875258306,0,1,1,2.7386127875258306,0" style="fill: white; stroke: #98df8a; stroke-width: 2; opacity: 1;"></path><path transform="translate(436.3636363636364,474.85714285714283)" d="M2.7386127875258306,0A2.7386127875258306,2.7386127875258306,0,1,1,-2.7386127875258306,0A2.7386127875258306,2.7386127875258306,0,1,1,2.7386127875258306,0" style="fill: white; stroke: #2ca02c; stroke-width: 2; opacity: 1;"></path><path transform="translate(436.3636363636364,591.4285714285714)" d="M2.7386127875258306,0A2.7386127875258306,2.7386127875258306,0,1,1,-2.7386127875258306,0A2.7386127875258306,2.7386127875258306,0,1,1,2.7386127875258306,0" style="fill: white; stroke: #aec7e8; stroke-width: 2; opacity: 1;"></path><path transform="translate(436.3636363636364,265.7142857142857)" d="M2.7386127875258306,0A2.7386127875258306,2.7386127875258306,0,1,1,-2.7386127875258306,0A2.7386127875258306,2.7386127875258306,0,1,1,2.7386127875258306,0" style="fill: white; stroke: #d62728; stroke-width: 2; opacity: 1;"></path><path transform="translate(436.3636363636364,596.5714285714286)" d="M2.7386127875258306,0A2.7386127875258306,2.7386127875258306,0,1,1,-2.7386127875258306,0A2.7386127875258306,2.7386127875258306,0,1,1,2.7386127875258306,0" style="fill: white; stroke: #ff7f0e; stroke-width: 2; opacity: 1;"></path><path transform="translate(463.6363636363636,426.85714285714283)" d="M2.7386127875258306,0A2.7386127875258306,2.7386127875258306,0,1,1,-2.7386127875258306,0A2.7386127875258306,2.7386127875258306,0,1,1,2.7386127875258306,0" style="fill: white; stroke: #1f77b4; stroke-width: 2; opacity: 1;"></path><path transform="translate(463.6363636363636,564)" d="M2.7386127875258306,0A2.7386127875258306,2.7386127875258306,0,1,1,-2.7386127875258306,0A2.7386127875258306,2.7386127875258306,0,1,1,2.7386127875258306,0" style="fill: white; stroke: #ffbb78; stroke-width: 2; opacity: 1;"></path><path transform="translate(463.6363636363636,221.14285714285714)" d="M2.7386127875258306,0A2.7386127875258306,2.7386127875258306,0,1,1,-2.7386127875258306,0A2.7386127875258306,2.7386127875258306,0,1,1,2.7386127875258306,0" style="fill: white; stroke: #98df8a; stroke-width: 2; opacity: 1;"></path><path transform="translate(463.6363636363636,260.57142857142856)" d="M2.7386127875258306,0A2.7386127875258306,2.7386127875258306,0,1,1,-2.7386127875258306,0A2.7386127875258306,2.7386127875258306,0,1,1,2.7386127875258306,0" style="fill: white; stroke: #ff9896; stroke-width: 2; opacity: 1;"></path><path transform="translate(463.6363636363636,442.2857142857143)" d="M2.7386127875258306,0A2.7386127875258306,2.7386127875258306,0,1,1,-2.7386127875258306,0A2.7386127875258306,2.7386127875258306,0,1,1,2.7386127875258306,0" style="fill: white; stroke: #2ca02c; stroke-width: 2; opacity: 1;"></path><path transform="translate(463.6363636363636,591.4285714285714)" d="M2.7386127875258306,0A2.7386127875258306,2.7386127875258306,0,1,1,-2.7386127875258306,0A2.7386127875258306,2.7386127875258306,0,1,1,2.7386127875258306,0" style="fill: white; stroke: #aec7e8; stroke-width: 2; opacity: 1;"></path><path transform="translate(463.6363636363636,207.42857142857144)" d="M2.7386127875258306,0A2.7386127875258306,2.7386127875258306,0,1,1,-2.7386127875258306,0A2.7386127875258306,2.7386127875258306,0,1,1,2.7386127875258306,0" style="fill: white; stroke: #d62728; stroke-width: 2; opacity: 1;"></path><path transform="translate(463.6363636363636,593.1428571428571)" d="M2.7386127875258306,0A2.7386127875258306,2.7386127875258306,0,1,1,-2.7386127875258306,0A2.7386127875258306,2.7386127875258306,0,1,1,2.7386127875258306,0" style="fill: white; stroke: #ff7f0e; stroke-width: 2; opacity: 1;"></path><path transform="translate(490.90909090909093,413.14285714285717)" d="M2.7386127875258306,0A2.7386127875258306,2.7386127875258306,0,1,1,-2.7386127875258306,0A2.7386127875258306,2.7386127875258306,0,1,1,2.7386127875258306,0" style="fill: white; stroke: #1f77b4; stroke-width: 2; opacity: 1;"></path><path transform="translate(490.90909090909093,586.2857142857142)" d="M2.7386127875258306,0A2.7386127875258306,2.7386127875258306,0,1,1,-2.7386127875258306,0A2.7386127875258306,2.7386127875258306,0,1,1,2.7386127875258306,0" style="fill: white; stroke: #ffbb78; stroke-width: 2; opacity: 1;"></path><path transform="translate(490.90909090909093,190.2857142857143)" d="M2.7386127875258306,0A2.7386127875258306,2.7386127875258306,0,1,1,-2.7386127875258306,0A2.7386127875258306,2.7386127875258306,0,1,1,2.7386127875258306,0" style="fill: white; stroke: #98df8a; stroke-width: 2; opacity: 1;"></path><path transform="translate(490.90909090909093,432)" d="M2.7386127875258306,0A2.7386127875258306,2.7386127875258306,0,1,1,-2.7386127875258306,0A2.7386127875258306,2.7386127875258306,0,1,1,2.7386127875258306,0" style="fill: white; stroke: #2ca02c; stroke-width: 2; opacity: 1;"></path><path transform="translate(490.90909090909093,588)" d="M2.7386127875258306,0A2.7386127875258306,2.7386127875258306,0,1,1,-2.7386127875258306,0A2.7386127875258306,2.7386127875258306,0,1,1,2.7386127875258306,0" style="fill: white; stroke: #aec7e8; stroke-width: 2; opacity: 1;"></path><path transform="translate(490.90909090909093,205.71428571428572)" d="M2.7386127875258306,0A2.7386127875258306,2.7386127875258306,0,1,1,-2.7386127875258306,0A2.7386127875258306,2.7386127875258306,0,1,1,2.7386127875258306,0" style="fill: white; stroke: #d62728; stroke-width: 2; opacity: 1;"></path><path transform="translate(490.90909090909093,593.1428571428571)" d="M2.7386127875258306,0A2.7386127875258306,2.7386127875258306,0,1,1,-2.7386127875258306,0A2.7386127875258306,2.7386127875258306,0,1,1,2.7386127875258306,0" style="fill: white; stroke: #ff7f0e; stroke-width: 2; opacity: 1;"></path><path transform="translate(518.1818181818182,402.8571428571429)" d="M2.7386127875258306,0A2.7386127875258306,2.7386127875258306,0,1,1,-2.7386127875258306,0A2.7386127875258306,2.7386127875258306,0,1,1,2.7386127875258306,0" style="fill: white; stroke: #1f77b4; stroke-width: 2; opacity: 1;"></path><path transform="translate(518.1818181818182,589.7142857142858)" d="M2.7386127875258306,0A2.7386127875258306,2.7386127875258306,0,1,1,-2.7386127875258306,0A2.7386127875258306,2.7386127875258306,0,1,1,2.7386127875258306,0" style="fill: white; stroke: #ffbb78; stroke-width: 2; opacity: 1;"></path><path transform="translate(518.1818181818182,181.7142857142857)" d="M2.7386127875258306,0A2.7386127875258306,2.7386127875258306,0,1,1,-2.7386127875258306,0A2.7386127875258306,2.7386127875258306,0,1,1,2.7386127875258306,0" style="fill: white; stroke: #98df8a; stroke-width: 2; opacity: 1;"></path><path transform="translate(518.1818181818182,425.14285714285717)" d="M2.7386127875258306,0A2.7386127875258306,2.7386127875258306,0,1,1,-2.7386127875258306,0A2.7386127875258306,2.7386127875258306,0,1,1,2.7386127875258306,0" style="fill: white; stroke: #2ca02c; stroke-width: 2; opacity: 1;"></path><path transform="translate(518.1818181818182,584.5714285714286)" d="M2.7386127875258306,0A2.7386127875258306,2.7386127875258306,0,1,1,-2.7386127875258306,0A2.7386127875258306,2.7386127875258306,0,1,1,2.7386127875258306,0" style="fill: white; stroke: #aec7e8; stroke-width: 2; opacity: 1;"></path><path transform="translate(518.1818181818182,181.7142857142857)" d="M2.7386127875258306,0A2.7386127875258306,2.7386127875258306,0,1,1,-2.7386127875258306,0A2.7386127875258306,2.7386127875258306,0,1,1,2.7386127875258306,0" style="fill: white; stroke: #d62728; stroke-width: 2; opacity: 1;"></path><path transform="translate(518.1818181818182,593.1428571428571)" d="M2.7386127875258306,0A2.7386127875258306,2.7386127875258306,0,1,1,-2.7386127875258306,0A2.7386127875258306,2.7386127875258306,0,1,1,2.7386127875258306,0" style="fill: white; stroke: #ff7f0e; stroke-width: 2; opacity: 1;"></path><path transform="translate(545.4545454545454,395.99999999999994)" d="M2.7386127875258306,0A2.7386127875258306,2.7386127875258306,0,1,1,-2.7386127875258306,0A2.7386127875258306,2.7386127875258306,0,1,1,2.7386127875258306,0" style="fill: white; stroke: #1f77b4; stroke-width: 2; opacity: 1;"></path><path transform="translate(545.4545454545454,593.1428571428571)" d="M2.7386127875258306,0A2.7386127875258306,2.7386127875258306,0,1,1,-2.7386127875258306,0A2.7386127875258306,2.7386127875258306,0,1,1,2.7386127875258306,0" style="fill: white; stroke: #ffbb78; stroke-width: 2; opacity: 1;"></path><path transform="translate(545.4545454545454,267.42857142857144)" d="M2.7386127875258306,0A2.7386127875258306,2.7386127875258306,0,1,1,-2.7386127875258306,0A2.7386127875258306,2.7386127875258306,0,1,1,2.7386127875258306,0" style="fill: white; stroke: #98df8a; stroke-width: 2; opacity: 1;"></path><path transform="translate(545.4545454545454,421.7142857142857)" d="M2.7386127875258306,0A2.7386127875258306,2.7386127875258306,0,1,1,-2.7386127875258306,0A2.7386127875258306,2.7386127875258306,0,1,1,2.7386127875258306,0" style="fill: white; stroke: #2ca02c; stroke-width: 2; opacity: 1;"></path><path transform="translate(545.4545454545454,581.1428571428571)" d="M2.7386127875258306,0A2.7386127875258306,2.7386127875258306,0,1,1,-2.7386127875258306,0A2.7386127875258306,2.7386127875258306,0,1,1,2.7386127875258306,0" style="fill: white; stroke: #aec7e8; stroke-width: 2; opacity: 1;"></path><path transform="translate(545.4545454545454,47.99999999999998)" d="M2.7386127875258306,0A2.7386127875258306,2.7386127875258306,0,1,1,-2.7386127875258306,0A2.7386127875258306,2.7386127875258306,0,1,1,2.7386127875258306,0" style="fill: white; stroke: #d62728; stroke-width: 2; opacity: 1;"></path><path transform="translate(545.4545454545454,593.1428571428571)" d="M2.7386127875258306,0A2.7386127875258306,2.7386127875258306,0,1,1,-2.7386127875258306,0A2.7386127875258306,2.7386127875258306,0,1,1,2.7386127875258306,0" style="fill: white; stroke: #ff7f0e; stroke-width: 2; opacity: 1;"></path><path transform="translate(572.7272727272727,382.2857142857143)" d="M2.7386127875258306,0A2.7386127875258306,2.7386127875258306,0,1,1,-2.7386127875258306,0A2.7386127875258306,2.7386127875258306,0,1,1,2.7386127875258306,0" style="fill: white; stroke: #1f77b4; stroke-width: 2; opacity: 1;"></path><path transform="translate(572.7272727272727,586.2857142857142)" d="M2.7386127875258306,0A2.7386127875258306,2.7386127875258306,0,1,1,-2.7386127875258306,0A2.7386127875258306,2.7386127875258306,0,1,1,2.7386127875258306,0" style="fill: white; stroke: #ffbb78; stroke-width: 2; opacity: 1;"></path><path transform="translate(572.7272727272727,198.85714285714283)" d="M2.7386127875258306,0A2.7386127875258306,2.7386127875258306,0,1,1,-2.7386127875258306,0A2.7386127875258306,2.7386127875258306,0,1,1,2.7386127875258306,0" style="fill: white; stroke: #98df8a; stroke-width: 2; opacity: 1;"></path><path transform="translate(572.7272727272727,413.14285714285717)" d="M2.7386127875258306,0A2.7386127875258306,2.7386127875258306,0,1,1,-2.7386127875258306,0A2.7386127875258306,2.7386127875258306,0,1,1,2.7386127875258306,0" style="fill: white; stroke: #2ca02c; stroke-width: 2; opacity: 1;"></path><path transform="translate(572.7272727272727,576)" d="M2.7386127875258306,0A2.7386127875258306,2.7386127875258306,0,1,1,-2.7386127875258306,0A2.7386127875258306,2.7386127875258306,0,1,1,2.7386127875258306,0" style="fill: white; stroke: #aec7e8; stroke-width: 2; opacity: 1;"></path><path transform="translate(572.7272727272727,17.14285714285715)" d="M2.7386127875258306,0A2.7386127875258306,2.7386127875258306,0,1,1,-2.7386127875258306,0A2.7386127875258306,2.7386127875258306,0,1,1,2.7386127875258306,0" style="fill: white; stroke: #d62728; stroke-width: 2; opacity: 1;"></path><path transform="translate(572.7272727272727,593.1428571428571)" d="M2.7386127875258306,0A2.7386127875258306,2.7386127875258306,0,1,1,-2.7386127875258306,0A2.7386127875258306,2.7386127875258306,0,1,1,2.7386127875258306,0" style="fill: white; stroke: #ff7f0e; stroke-width: 2; opacity: 1;"></path><path transform="translate(600,353.1428571428571)" d="M2.7386127875258306,0A2.7386127875258306,2.7386127875258306,0,1,1,-2.7386127875258306,0A2.7386127875258306,2.7386127875258306,0,1,1,2.7386127875258306,0" style="fill: white; stroke: #1f77b4; stroke-width: 2; opacity: 1;"></path><path transform="translate(600,570.8571428571429)" d="M2.7386127875258306,0A2.7386127875258306,2.7386127875258306,0,1,1,-2.7386127875258306,0A2.7386127875258306,2.7386127875258306,0,1,1,2.7386127875258306,0" style="fill: white; stroke: #ffbb78; stroke-width: 2; opacity: 1;"></path><path transform="translate(600,181.7142857142857)" d="M2.7386127875258306,0A2.7386127875258306,2.7386127875258306,0,1,1,-2.7386127875258306,0A2.7386127875258306,2.7386127875258306,0,1,1,2.7386127875258306,0" style="fill: white; stroke: #98df8a; stroke-width: 2; opacity: 1;"></path><path transform="translate(600,384)" d="M2.7386127875258306,0A2.7386127875258306,2.7386127875258306,0,1,1,-2.7386127875258306,0A2.7386127875258306,2.7386127875258306,0,1,1,2.7386127875258306,0" style="fill: white; stroke: #2ca02c; stroke-width: 2; opacity: 1;"></path><path transform="translate(600,576)" d="M2.7386127875258306,0A2.7386127875258306,2.7386127875258306,0,1,1,-2.7386127875258306,0A2.7386127875258306,2.7386127875258306,0,1,1,2.7386127875258306,0" style="fill: white; stroke: #aec7e8; stroke-width: 2; opacity: 1;"></path><path transform="translate(600,6.857142857142873)" d="M2.7386127875258306,0A2.7386127875258306,2.7386127875258306,0,1,1,-2.7386127875258306,0A2.7386127875258306,2.7386127875258306,0,1,1,2.7386127875258306,0" style="fill: white; stroke: #d62728; stroke-width: 2; opacity: 1;"></path><path transform="translate(600,593.1428571428571)" d="M2.7386127875258306,0A2.7386127875258306,2.7386127875258306,0,1,1,-2.7386127875258306,0A2.7386127875258306,2.7386127875258306,0,1,1,2.7386127875258306,0" style="fill: white; stroke: #ff7f0e; stroke-width: 2; opacity: 1;"></path></g><g class="mark-group role-legend"><g transform="translate(620,0)"><path class="background" d="M0,0h116v141h-116Z" style="pointer-events: none; fill: none;"></path><g><g class="mark-group role-legend-entry"><g transform="translate(0,16)"><path class="background" d="M0,0h0v0h0Z" style="pointer-events: none; fill: none;"></path><g><g class="mark-group role-scope"><g transform="translate(0,0)"><path class="background" d="M0,0h116v12.5h-116Z" style="pointer-events: none; fill: none; opacity: 1;"></path><g><g class="mark-symbol role-legend-symbol" style="pointer-events: none;"><path transform="translate(6,6)" d="M5,0A5,5,0,1,1,-5,0A5,5,0,1,1,5,0" style="fill: white; stroke: #1f77b4; stroke-width: 1.5; opacity: 1;"></path></g><g class="mark-text role-legend-label" style="pointer-events: none;"><text text-anchor="start" transform="translate(16,9)" style="font-family: sans-serif; font-size: 10px; fill: #000; opacity: 1;">casi-totali</text></g></g><path class="foreground" d="" style="pointer-events: none; display: none; fill: none;"></path></g><g transform="translate(0,16)"><path class="background" d="M0,0h116v12.5h-116Z" style="pointer-events: none; fill: none; opacity: 1;"></path><g><g class="mark-symbol role-legend-symbol" style="pointer-events: none;"><path transform="translate(6,6)" d="M5,0A5,5,0,1,1,-5,0A5,5,0,1,1,5,0" style="fill: white; stroke: #aec7e8; stroke-width: 1.5; opacity: 1;"></path></g><g class="mark-text role-legend-label" style="pointer-events: none;"><text text-anchor="start" transform="translate(16,9)" style="font-family: sans-serif; font-size: 10px; fill: #000; opacity: 1;">decessi</text></g></g><path class="foreground" d="" style="pointer-events: none; display: none; fill: none;"></path></g><g transform="translate(0,32)"><path class="background" d="M0,0h116v12.5h-116Z" style="pointer-events: none; fill: none; opacity: 1;"></path><g><g class="mark-symbol role-legend-symbol" style="pointer-events: none;"><path transform="translate(6,6)" d="M5,0A5,5,0,1,1,-5,0A5,5,0,1,1,5,0" style="fill: white; stroke: #ff7f0e; stroke-width: 1.5; opacity: 1;"></path></g><g class="mark-text role-legend-label" style="pointer-events: none;"><text text-anchor="start" transform="translate(16,9)" style="font-family: sans-serif; font-size: 10px; fill: #000; opacity: 1;">guariti</text></g></g><path class="foreground" d="" style="pointer-events: none; display: none; fill: none;"></path></g><g transform="translate(0,48)"><path class="background" d="M0,0h116v12.5h-116Z" style="pointer-events: none; fill: none; opacity: 1;"></path><g><g class="mark-symbol role-legend-symbol" style="pointer-events: none;"><path transform="translate(6,6)" d="M5,0A5,5,0,1,1,-5,0A5,5,0,1,1,5,0" style="fill: white; stroke: #ffbb78; stroke-width: 1.5; opacity: 1;"></path></g><g class="mark-text role-legend-label" style="pointer-events: none;"><text text-anchor="start" transform="translate(16,9)" style="font-family: sans-serif; font-size: 10px; fill: #000; opacity: 1;">nuovi-casi</text></g></g><path class="foreground" d="" style="pointer-events: none; display: none; fill: none;"></path></g><g transform="translate(0,64)"><path class="background" d="M0,0h116v12.5h-116Z" style="pointer-events: none; fill: none; opacity: 1;"></path><g><g class="mark-symbol role-legend-symbol" style="pointer-events: none;"><path transform="translate(6,6)" d="M5,0A5,5,0,1,1,-5,0A5,5,0,1,1,5,0" style="fill: white; stroke: #2ca02c; stroke-width: 1.5; opacity: 1;"></path></g><g class="mark-text role-legend-label" style="pointer-events: none;"><text text-anchor="start" transform="translate(16,9)" style="font-family: sans-serif; font-size: 10px; fill: #000; opacity: 1;">positivi</text></g></g><path class="foreground" d="" style="pointer-events: none; display: none; fill: none;"></path></g><g transform="translate(0,80)"><path class="background" d="M0,0h116v12.5h-116Z" style="pointer-events: none; fill: none; opacity: 1;"></path><g><g class="mark-symbol role-legend-symbol" style="pointer-events: none;"><path transform="translate(6,6)" d="M5,0A5,5,0,1,1,-5,0A5,5,0,1,1,5,0" style="fill: white; stroke: #98df8a; stroke-width: 1.5; opacity: 1;"></path></g><g class="mark-text role-legend-label" style="pointer-events: none;"><text text-anchor="start" transform="translate(16,9)" style="font-family: sans-serif; font-size: 10px; fill: #000; opacity: 1;">quarantene</text></g></g><path class="foreground" d="" style="pointer-events: none; display: none; fill: none;"></path></g><g transform="translate(0,96)"><path class="background" d="M0,0h116v12.5h-116Z" style="pointer-events: none; fill: none; opacity: 1;"></path><g><g class="mark-symbol role-legend-symbol" style="pointer-events: none;"><path transform="translate(6,6)" d="M5,0A5,5,0,1,1,-5,0A5,5,0,1,1,5,0" style="fill: white; stroke: #d62728; stroke-width: 1.5; opacity: 1;"></path></g><g class="mark-text role-legend-label" style="pointer-events: none;"><text text-anchor="start" transform="translate(16,9)" style="font-family: sans-serif; font-size: 10px; fill: #000; opacity: 1;">quarantene-terminate</text></g></g><path class="foreground" d="" style="pointer-events: none; display: none; fill: none;"></path></g><g transform="translate(0,112)"><path class="background" d="M0,0h116v12.5h-116Z" style="pointer-events: none; fill: none; opacity: 1;"></path><g><g class="mark-symbol role-legend-symbol" style="pointer-events: none;"><path transform="translate(6,6)" d="M5,0A5,5,0,1,1,-5,0A5,5,0,1,1,5,0" style="fill: white; stroke: #ff9896; stroke-width: 1.5; opacity: 1;"></path></g><g class="mark-text role-legend-label" style="pointer-events: none;"><text text-anchor="start" transform="translate(16,9)" style="font-family: sans-serif; font-size: 10px; fill: #000; opacity: 1;">tamponi</text></g></g><path class="foreground" d="" style="pointer-events: none; display: none; fill: none;"></path></g></g></g><path class="foreground" d="" style="pointer-events: none; display: none; fill: none;"></path></g></g><g class="mark-text role-legend-title" style="pointer-events: none;"><text text-anchor="start" transform="translate(0,9)" style="font-family: sans-serif; font-size: 11px; font-weight: bold; fill: #000; opacity: 1;">type</text></g></g><path class="foreground" d="" style="pointer-events: none; display: none; fill: none;"></path></g></g></g><path class="foreground" d="" style="display: none; fill: none;"></path></g></g></g></svg>